<svg width="360" height="504" viewBox="0 0 360 504" fill="none" xmlns="http://www.w3.org/2000/svg">
<g filter="url(#filter0_i)">
<rect width="360" height="504" rx="8" fill="#212529"/>
</g>
<path d="M36.14 404.04V412.66C36.14 413.607 36.3867 414.333 36.88 414.84C37.3733 415.333 38.0667 415.58 38.96 415.58C39.8667 415.58 40.5667 415.333 41.06 414.84C41.5533 414.333 41.8 413.607 41.8 412.66V404.04H44.62V412.66C44.62 413.847 44.36 414.853 43.84 415.68C43.3333 416.493 42.6467 417.107 41.78 417.52C40.9267 417.933 39.9733 418.14 38.92 418.14C37.88 418.14 36.9333 417.933 36.08 417.52C35.24 417.107 34.5733 416.493 34.08 415.68C33.5867 414.853 33.34 413.847 33.34 412.66V404.04H36.14ZM51.9453 418.18C51.0386 418.18 50.2253 418.02 49.5053 417.7C48.7986 417.367 48.232 416.92 47.8053 416.36C47.392 415.8 47.1653 415.18 47.1253 414.5H49.9453C49.9986 414.967 50.2053 415.347 50.5653 415.64C50.9253 415.92 51.3853 416.06 51.9453 416.06C52.4786 416.06 52.892 415.953 53.1853 415.74C53.492 415.513 53.6453 415.213 53.6453 414.84C53.6453 414.48 53.4586 414.207 53.0853 414.02C52.7253 413.833 52.1386 413.64 51.3253 413.44C50.512 413.24 49.8453 413.04 49.3253 412.84C48.8053 412.627 48.3586 412.3 47.9853 411.86C47.612 411.42 47.4253 410.84 47.4253 410.12C47.4253 409.493 47.592 408.927 47.9253 408.42C48.272 407.9 48.772 407.493 49.4253 407.2C50.092 406.893 50.872 406.74 51.7653 406.74C53.0853 406.74 54.1386 407.073 54.9253 407.74C55.712 408.393 56.1453 409.28 56.2253 410.4H53.5453C53.5053 409.933 53.3186 409.56 52.9853 409.28C52.6653 409 52.232 408.86 51.6853 408.86C51.1786 408.86 50.7853 408.967 50.5053 409.18C50.2386 409.38 50.1053 409.66 50.1053 410.02C50.1053 410.393 50.292 410.68 50.6653 410.88C51.0386 411.067 51.6186 411.26 52.4053 411.46C53.2053 411.66 53.8653 411.867 54.3853 412.08C54.9053 412.293 55.352 412.62 55.7253 413.06C56.0986 413.487 56.2853 414.067 56.2853 414.8C56.2853 415.44 56.112 416.02 55.7653 416.54C55.4186 417.047 54.9186 417.447 54.2653 417.74C53.612 418.033 52.8386 418.18 51.9453 418.18ZM58.3037 412.42C58.3037 411.3 58.5237 410.307 58.9637 409.44C59.4171 408.573 60.0237 407.907 60.7837 407.44C61.5571 406.973 62.4171 406.74 63.3637 406.74C64.1904 406.74 64.9104 406.907 65.5237 407.24C66.1504 407.573 66.6504 407.993 67.0237 408.5V406.92H69.8437V418H67.0237V416.38C66.6637 416.9 66.1637 417.333 65.5237 417.68C64.8971 418.013 64.1704 418.18 63.3437 418.18C62.4104 418.18 61.5571 417.94 60.7837 417.46C60.0237 416.98 59.4171 416.307 58.9637 415.44C58.5237 414.56 58.3037 413.553 58.3037 412.42ZM67.0237 412.46C67.0237 411.78 66.8904 411.2 66.6237 410.72C66.3571 410.227 65.9971 409.853 65.5437 409.6C65.0904 409.333 64.6037 409.2 64.0837 409.2C63.5637 409.2 63.0837 409.327 62.6437 409.58C62.2037 409.833 61.8437 410.207 61.5637 410.7C61.2971 411.18 61.1637 411.753 61.1637 412.42C61.1637 413.087 61.2971 413.673 61.5637 414.18C61.8437 414.673 62.2037 415.053 62.6437 415.32C63.0971 415.587 63.5771 415.72 64.0837 415.72C64.6037 415.72 65.0904 415.593 65.5437 415.34C65.9971 415.073 66.3571 414.7 66.6237 414.22C66.8904 413.727 67.0237 413.14 67.0237 412.46ZM75.7784 408.54C76.1384 408.007 76.6318 407.573 77.2584 407.24C77.8984 406.907 78.6251 406.74 79.4384 406.74C80.3851 406.74 81.2384 406.973 81.9984 407.44C82.7718 407.907 83.3784 408.573 83.8184 409.44C84.2718 410.293 84.4984 411.287 84.4984 412.42C84.4984 413.553 84.2718 414.56 83.8184 415.44C83.3784 416.307 82.7718 416.98 81.9984 417.46C81.2384 417.94 80.3851 418.18 79.4384 418.18C78.6118 418.18 77.8851 418.02 77.2584 417.7C76.6451 417.367 76.1518 416.94 75.7784 416.42V418H72.9784V403.2H75.7784V408.54ZM81.6384 412.42C81.6384 411.753 81.4984 411.18 81.2184 410.7C80.9518 410.207 80.5918 409.833 80.1384 409.58C79.6984 409.327 79.2184 409.2 78.6984 409.2C78.1918 409.2 77.7118 409.333 77.2584 409.6C76.8184 409.853 76.4584 410.227 76.1784 410.72C75.9118 411.213 75.7784 411.793 75.7784 412.46C75.7784 413.127 75.9118 413.707 76.1784 414.2C76.4584 414.693 76.8184 415.073 77.2584 415.34C77.7118 415.593 78.1918 415.72 78.6984 415.72C79.2184 415.72 79.6984 415.587 80.1384 415.32C80.5918 415.053 80.9518 414.673 81.2184 414.18C81.4984 413.687 81.6384 413.1 81.6384 412.42ZM89.7331 403.2V418H86.9331V403.2H89.7331ZM103.2 412.2C103.2 412.573 103.173 412.92 103.12 413.24H95.0195C95.0729 414.053 95.3462 414.693 95.8395 415.16C96.3329 415.627 96.9462 415.86 97.6795 415.86C98.7195 415.86 99.4595 415.413 99.8995 414.52H102.92C102.6 415.587 101.986 416.467 101.08 417.16C100.173 417.84 99.0595 418.18 97.7395 418.18C96.6729 418.18 95.7129 417.947 94.8595 417.48C94.0195 417 93.3595 416.327 92.8795 415.46C92.4129 414.593 92.1795 413.593 92.1795 412.46C92.1795 411.313 92.4129 410.307 92.8795 409.44C93.3462 408.573 93.9995 407.907 94.8395 407.44C95.6795 406.973 96.6462 406.74 97.7395 406.74C98.7929 406.74 99.7329 406.967 100.56 407.42C101.4 407.873 102.046 408.513 102.5 409.34C102.966 410.167 103.2 411.12 103.2 412.2ZM100.3 411.54C100.286 410.767 100.026 410.16 99.5195 409.72C99.0262 409.267 98.4062 409.04 97.6595 409.04C96.9529 409.04 96.3595 409.267 95.8795 409.72C95.3995 410.16 95.1129 410.767 95.0195 411.54H100.3ZM36.18 428.04V442H33.38V428.04H36.18ZM45.4864 430.76C46.8064 430.76 47.8731 431.18 48.6864 432.02C49.4997 432.847 49.9064 434.007 49.9064 435.5V442H47.1064V435.88C47.1064 435 46.8864 434.327 46.4464 433.86C46.0064 433.38 45.4064 433.14 44.6464 433.14C43.8731 433.14 43.2597 433.38 42.8064 433.86C42.3664 434.327 42.1464 435 42.1464 435.88V442H39.3464V430.92H42.1464V432.3C42.5197 431.82 42.9931 431.447 43.5664 431.18C44.1531 430.9 44.7931 430.76 45.4864 430.76ZM56.2291 433.22V438.58C56.2291 438.953 56.3157 439.227 56.4891 439.4C56.6757 439.56 56.9824 439.64 57.4091 439.64H58.7091V442H56.9491C54.5891 442 53.4091 440.853 53.4091 438.56V433.22H52.0891V430.92H53.4091V428.18H56.2291V430.92H58.7091V433.22H56.2291ZM71.423 436.2C71.423 436.573 71.3963 436.92 71.343 437.24H63.243C63.2963 438.053 63.5696 438.693 64.063 439.16C64.5563 439.627 65.1696 439.86 65.903 439.86C66.943 439.86 67.683 439.413 68.123 438.52H71.143C70.823 439.587 70.2096 440.467 69.303 441.16C68.3963 441.84 67.283 442.18 65.963 442.18C64.8963 442.18 63.9363 441.947 63.083 441.48C62.243 441 61.583 440.327 61.103 439.46C60.6363 438.593 60.403 437.593 60.403 436.46C60.403 435.313 60.6363 434.307 61.103 433.44C61.5696 432.573 62.223 431.907 63.063 431.44C63.903 430.973 64.8696 430.74 65.963 430.74C67.0163 430.74 67.9563 430.967 68.783 431.42C69.623 431.873 70.2696 432.513 70.723 433.34C71.1896 434.167 71.423 435.12 71.423 436.2ZM68.523 435.54C68.5096 434.767 68.2496 434.16 67.743 433.72C67.2496 433.267 66.6296 433.04 65.883 433.04C65.1763 433.04 64.583 433.267 64.103 433.72C63.623 434.16 63.3363 434.767 63.243 435.54H68.523ZM76.6667 432.88C77.0267 432.213 77.4934 431.693 78.0667 431.32C78.6534 430.947 79.3201 430.76 80.0667 430.76V433.7H79.3267C78.4467 433.7 77.7801 433.907 77.3267 434.32C76.8867 434.733 76.6667 435.453 76.6667 436.48V442H73.8667V430.92H76.6667V432.88ZM87.4327 433.22H85.4927V442H82.6527V433.22H81.3927V430.92H82.6527V430.36C82.6527 429 83.0393 428 83.8127 427.36C84.586 426.72 85.7527 426.42 87.3127 426.46V428.82C86.6327 428.807 86.1593 428.92 85.8927 429.16C85.626 429.4 85.4927 429.833 85.4927 430.46V430.92H87.4327V433.22ZM88.9272 436.42C88.9272 435.3 89.1472 434.307 89.5872 433.44C90.0405 432.573 90.6472 431.907 91.4072 431.44C92.1805 430.973 93.0405 430.74 93.9872 430.74C94.8139 430.74 95.5339 430.907 96.1472 431.24C96.7739 431.573 97.2739 431.993 97.6472 432.5V430.92H100.467V442H97.6472V440.38C97.2872 440.9 96.7872 441.333 96.1472 441.68C95.5205 442.013 94.7939 442.18 93.9672 442.18C93.0339 442.18 92.1805 441.94 91.4072 441.46C90.6472 440.98 90.0405 440.307 89.5872 439.44C89.1472 438.56 88.9272 437.553 88.9272 436.42ZM97.6472 436.46C97.6472 435.78 97.5139 435.2 97.2472 434.72C96.9805 434.227 96.6205 433.853 96.1672 433.6C95.7139 433.333 95.2272 433.2 94.7072 433.2C94.1872 433.2 93.7072 433.327 93.2672 433.58C92.8272 433.833 92.4672 434.207 92.1872 434.7C91.9205 435.18 91.7872 435.753 91.7872 436.42C91.7872 437.087 91.9205 437.673 92.1872 438.18C92.4672 438.673 92.8272 439.053 93.2672 439.32C93.7205 439.587 94.2005 439.72 94.7072 439.72C95.2272 439.72 95.7139 439.593 96.1672 439.34C96.6205 439.073 96.9805 438.7 97.2472 438.22C97.5139 437.727 97.6472 437.14 97.6472 436.46ZM102.882 436.46C102.882 435.313 103.115 434.313 103.582 433.46C104.049 432.593 104.695 431.927 105.522 431.46C106.349 430.98 107.295 430.74 108.362 430.74C109.735 430.74 110.869 431.087 111.762 431.78C112.669 432.46 113.275 433.42 113.582 434.66H110.562C110.402 434.18 110.129 433.807 109.742 433.54C109.369 433.26 108.902 433.12 108.342 433.12C107.542 433.12 106.909 433.413 106.442 434C105.975 434.573 105.742 435.393 105.742 436.46C105.742 437.513 105.975 438.333 106.442 438.92C106.909 439.493 107.542 439.78 108.342 439.78C109.475 439.78 110.215 439.273 110.562 438.26H113.582C113.275 439.46 112.669 440.413 111.762 441.12C110.855 441.827 109.722 442.18 108.362 442.18C107.295 442.18 106.349 441.947 105.522 441.48C104.695 441 104.049 440.333 103.582 439.48C103.115 438.613 102.882 437.607 102.882 436.46ZM126.333 436.2C126.333 436.573 126.306 436.92 126.253 437.24H118.153C118.206 438.053 118.48 438.693 118.973 439.16C119.466 439.627 120.08 439.86 120.813 439.86C121.853 439.86 122.593 439.413 123.033 438.52H126.053C125.733 439.587 125.12 440.467 124.213 441.16C123.306 441.84 122.193 442.18 120.873 442.18C119.806 442.18 118.846 441.947 117.993 441.48C117.153 441 116.493 440.327 116.013 439.46C115.546 438.593 115.313 437.593 115.313 436.46C115.313 435.313 115.546 434.307 116.013 433.44C116.48 432.573 117.133 431.907 117.973 431.44C118.813 430.973 119.78 430.74 120.873 430.74C121.926 430.74 122.866 430.967 123.693 431.42C124.533 431.873 125.18 432.513 125.633 433.34C126.1 434.167 126.333 435.12 126.333 436.2ZM123.433 435.54C123.42 434.767 123.16 434.16 122.653 433.72C122.16 433.267 121.54 433.04 120.793 433.04C120.086 433.04 119.493 433.267 119.013 433.72C118.533 434.16 118.246 434.767 118.153 435.54H123.433Z" fill="white"/>
<path d="M51.6 202.1L47.48 216H44.9L41.98 205.48L38.88 216L36.32 216.02L32.38 202.1H34.8L37.68 213.42L40.8 202.1H43.36L46.26 213.36L49.16 202.1H51.6ZM58.9805 204.8C59.8205 204.8 60.5671 204.98 61.2205 205.34C61.8871 205.7 62.4071 206.233 62.7805 206.94C63.1671 207.647 63.3605 208.5 63.3605 209.5V216H61.1005V209.84C61.1005 208.853 60.8538 208.1 60.3605 207.58C59.8671 207.047 59.1938 206.78 58.3405 206.78C57.4871 206.78 56.8071 207.047 56.3005 207.58C55.8071 208.1 55.5605 208.853 55.5605 209.84V216H53.2805V201.2H55.5605V206.26C55.9471 205.793 56.4338 205.433 57.0205 205.18C57.6205 204.927 58.2738 204.8 58.9805 204.8ZM65.3087 210.44C65.3087 209.333 65.5354 208.353 65.9887 207.5C66.4554 206.647 67.0821 205.987 67.8687 205.52C68.6687 205.04 69.5487 204.8 70.5087 204.8C71.3754 204.8 72.1287 204.973 72.7687 205.32C73.4221 205.653 73.9421 206.073 74.3287 206.58V204.98H76.6287V216H74.3287V214.36C73.9421 214.88 73.4154 215.313 72.7487 215.66C72.0821 216.007 71.3221 216.18 70.4687 216.18C69.5221 216.18 68.6554 215.94 67.8687 215.46C67.0821 214.967 66.4554 214.287 65.9887 213.42C65.5354 212.54 65.3087 211.547 65.3087 210.44ZM74.3287 210.48C74.3287 209.72 74.1687 209.06 73.8487 208.5C73.5421 207.94 73.1354 207.513 72.6287 207.22C72.1221 206.927 71.5754 206.78 70.9887 206.78C70.4021 206.78 69.8554 206.927 69.3487 207.22C68.8421 207.5 68.4287 207.92 68.1087 208.48C67.8021 209.027 67.6487 209.68 67.6487 210.44C67.6487 211.2 67.8021 211.867 68.1087 212.44C68.4287 213.013 68.8421 213.453 69.3487 213.76C69.8687 214.053 70.4154 214.2 70.9887 214.2C71.5754 214.2 72.1221 214.053 72.6287 213.76C73.1354 213.467 73.5421 213.04 73.8487 212.48C74.1687 211.907 74.3287 211.24 74.3287 210.48ZM82.0834 206.84V212.94C82.0834 213.353 82.1768 213.653 82.3634 213.84C82.5634 214.013 82.8968 214.1 83.3634 214.1H84.7634V216H82.9634C81.9368 216 81.1501 215.76 80.6034 215.28C80.0568 214.8 79.7834 214.02 79.7834 212.94V206.84H78.4834V204.98H79.7834V202.24H82.0834V204.98H84.7634V206.84H82.0834ZM93.6209 203.52C93.2076 203.52 92.8609 203.38 92.5809 203.1C92.3009 202.82 92.1609 202.473 92.1609 202.06C92.1609 201.647 92.3009 201.3 92.5809 201.02C92.8609 200.74 93.2076 200.6 93.6209 200.6C94.0209 200.6 94.3609 200.74 94.6409 201.02C94.9209 201.3 95.0609 201.647 95.0609 202.06C95.0609 202.473 94.9209 202.82 94.6409 203.1C94.3609 203.38 94.0209 203.52 93.6209 203.52ZM94.7409 204.98V216H92.4609V204.98H94.7409ZM101.494 216.18C100.641 216.18 99.8744 216.027 99.1944 215.72C98.5144 215.4 97.9744 214.973 97.5744 214.44C97.1744 213.893 96.961 213.287 96.9344 212.62H99.2944C99.3344 213.127 99.5544 213.547 99.9544 213.88C100.368 214.213 100.881 214.38 101.494 214.38C102.134 214.38 102.628 214.253 102.974 214C103.334 213.733 103.514 213.38 103.514 212.94C103.514 212.54 103.314 212.233 102.914 212.02C102.514 211.807 101.894 211.593 101.054 211.38C100.241 211.153 99.5744 210.94 99.0544 210.74C98.5477 210.527 98.1077 210.207 97.7344 209.78C97.361 209.34 97.1744 208.773 97.1744 208.08C97.1744 207.48 97.341 206.933 97.6744 206.44C98.0077 205.933 98.4877 205.533 99.1144 205.24C99.7544 204.947 100.501 204.8 101.354 204.8C102.608 204.8 103.614 205.12 104.374 205.76C105.148 206.387 105.561 207.247 105.614 208.34H103.334C103.294 207.807 103.094 207.387 102.734 207.08C102.374 206.76 101.888 206.6 101.274 206.6C100.674 206.6 100.214 206.727 99.8944 206.98C99.5744 207.22 99.4144 207.547 99.4144 207.96C99.4144 208.253 99.521 208.5 99.7344 208.7C99.9477 208.9 100.214 209.06 100.534 209.18C100.854 209.287 101.308 209.42 101.894 209.58C102.694 209.793 103.348 210.007 103.854 210.22C104.361 210.433 104.794 210.76 105.154 211.2C105.514 211.627 105.694 212.187 105.694 212.88C105.694 213.507 105.528 214.073 105.194 214.58C104.861 215.073 104.374 215.467 103.734 215.76C103.108 216.04 102.361 216.18 101.494 216.18ZM116.474 206.84V212.94C116.474 213.353 116.567 213.653 116.754 213.84C116.954 214.013 117.287 214.1 117.754 214.1H119.154V216H117.354C116.327 216 115.541 215.76 114.994 215.28C114.447 214.8 114.174 214.02 114.174 212.94V206.84H112.874V204.98H114.174V202.24H116.474V204.98H119.154V206.84H116.474ZM126.755 204.8C127.595 204.8 128.342 204.98 128.995 205.34C129.662 205.7 130.182 206.233 130.555 206.94C130.942 207.647 131.135 208.5 131.135 209.5V216H128.875V209.84C128.875 208.853 128.629 208.1 128.135 207.58C127.642 207.047 126.969 206.78 126.115 206.78C125.262 206.78 124.582 207.047 124.075 207.58C123.582 208.1 123.335 208.853 123.335 209.84V216H121.055V201.2H123.335V206.26C123.722 205.793 124.209 205.433 124.795 205.18C125.395 204.927 126.049 204.8 126.755 204.8ZM143.944 210.18C143.944 210.567 143.917 210.927 143.864 211.26H135.424C135.49 212.18 135.817 212.913 136.404 213.46C136.99 213.993 137.717 214.26 138.584 214.26C139.81 214.26 140.677 213.747 141.184 212.72H143.644C143.31 213.733 142.704 214.567 141.824 215.22C140.957 215.86 139.877 216.18 138.584 216.18C137.53 216.18 136.584 215.947 135.744 215.48C134.917 215 134.264 214.333 133.784 213.48C133.317 212.613 133.084 211.613 133.084 210.48C133.084 209.347 133.31 208.353 133.764 207.5C134.23 206.633 134.877 205.967 135.704 205.5C136.544 205.033 137.504 204.8 138.584 204.8C139.624 204.8 140.55 205.027 141.364 205.48C142.177 205.933 142.81 206.567 143.264 207.38C143.717 208.193 143.944 209.127 143.944 210.18ZM141.564 209.62C141.55 208.727 141.25 208.02 140.664 207.5C140.09 206.98 139.364 206.72 138.484 206.72C137.684 206.72 136.997 206.98 136.424 207.5C135.864 208.02 135.537 208.727 135.444 209.62H141.564ZM161.764 204.98V216H159.484V214.7C159.124 215.153 158.65 215.513 158.064 215.78C157.49 216.033 156.877 216.16 156.224 216.16C155.357 216.16 154.577 215.98 153.884 215.62C153.204 215.26 152.664 214.727 152.264 214.02C151.877 213.313 151.684 212.46 151.684 211.46V204.98H153.944V211.12C153.944 212.107 154.19 212.867 154.684 213.4C155.177 213.92 155.85 214.18 156.704 214.18C157.557 214.18 158.23 213.92 158.724 213.4C159.23 212.867 159.484 212.107 159.484 211.12V204.98H161.764ZM168.532 216.18C167.679 216.18 166.912 216.027 166.232 215.72C165.552 215.4 165.012 214.973 164.612 214.44C164.212 213.893 163.999 213.287 163.972 212.62H166.332C166.372 213.127 166.592 213.547 166.992 213.88C167.405 214.213 167.919 214.38 168.532 214.38C169.172 214.38 169.665 214.253 170.012 214C170.372 213.733 170.552 213.38 170.552 212.94C170.552 212.54 170.352 212.233 169.952 212.02C169.552 211.807 168.932 211.593 168.092 211.38C167.279 211.153 166.612 210.94 166.092 210.74C165.585 210.527 165.145 210.207 164.772 209.78C164.399 209.34 164.212 208.773 164.212 208.08C164.212 207.48 164.379 206.933 164.712 206.44C165.045 205.933 165.525 205.533 166.152 205.24C166.792 204.947 167.539 204.8 168.392 204.8C169.645 204.8 170.652 205.12 171.412 205.76C172.185 206.387 172.599 207.247 172.652 208.34H170.372C170.332 207.807 170.132 207.387 169.772 207.08C169.412 206.76 168.925 206.6 168.312 206.6C167.712 206.6 167.252 206.727 166.932 206.98C166.612 207.22 166.452 207.547 166.452 207.96C166.452 208.253 166.559 208.5 166.772 208.7C166.985 208.9 167.252 209.06 167.572 209.18C167.892 209.287 168.345 209.42 168.932 209.58C169.732 209.793 170.385 210.007 170.892 210.22C171.399 210.433 171.832 210.76 172.192 211.2C172.552 211.627 172.732 212.187 172.732 212.88C172.732 213.507 172.565 214.073 172.232 214.58C171.899 215.073 171.412 215.467 170.772 215.76C170.145 216.04 169.399 216.18 168.532 216.18ZM185.155 210.18C185.155 210.567 185.129 210.927 185.075 211.26H176.635C176.702 212.18 177.029 212.913 177.615 213.46C178.202 213.993 178.929 214.26 179.795 214.26C181.022 214.26 181.889 213.747 182.395 212.72H184.855C184.522 213.733 183.915 214.567 183.035 215.22C182.169 215.86 181.089 216.18 179.795 216.18C178.742 216.18 177.795 215.947 176.955 215.48C176.129 215 175.475 214.333 174.995 213.48C174.529 212.613 174.295 211.613 174.295 210.48C174.295 209.347 174.522 208.353 174.975 207.5C175.442 206.633 176.089 205.967 176.915 205.5C177.755 205.033 178.715 204.8 179.795 204.8C180.835 204.8 181.762 205.027 182.575 205.48C183.389 205.933 184.022 206.567 184.475 207.38C184.929 208.193 185.155 209.127 185.155 210.18ZM182.775 209.62C182.762 208.727 182.462 208.02 181.875 207.5C181.302 206.98 180.575 206.72 179.695 206.72C178.895 206.72 178.209 206.98 177.635 207.5C177.075 208.02 176.749 208.727 176.655 209.62H182.775ZM189.479 206.9C189.813 206.233 190.253 205.72 190.799 205.36C191.359 204.987 192.019 204.8 192.779 204.8V207.16H192.199C191.306 207.16 190.626 207.387 190.159 207.84C189.706 208.293 189.479 209.08 189.479 210.2V216H187.199V204.98H189.479V206.9ZM203.131 206.84V212.94C203.131 213.353 203.224 213.653 203.411 213.84C203.611 214.013 203.944 214.1 204.411 214.1H205.811V216H204.011C202.984 216 202.198 215.76 201.651 215.28C201.104 214.8 200.831 214.02 200.831 212.94V206.84H199.531V204.98H200.831V202.24H203.131V204.98H205.811V206.84H203.131ZM209.993 206.9C210.326 206.233 210.766 205.72 211.313 205.36C211.873 204.987 212.533 204.8 213.293 204.8V207.16H212.713C211.819 207.16 211.139 207.387 210.673 207.84C210.219 208.293 209.993 209.08 209.993 210.2V216H207.713V204.98H209.993V206.9ZM216.428 204.98L219.528 213.38L222.748 204.98H225.108L218.348 221.18H215.988L218.228 215.82L213.888 204.98H216.428ZM227.789 203.52C227.376 203.52 227.029 203.38 226.749 203.1C226.469 202.82 226.329 202.473 226.329 202.06C226.329 201.647 226.469 201.3 226.749 201.02C227.029 200.74 227.376 200.6 227.789 200.6C228.189 200.6 228.529 200.74 228.809 201.02C229.089 201.3 229.229 201.647 229.229 202.06C229.229 202.473 229.089 202.82 228.809 203.1C228.529 203.38 228.189 203.52 227.789 203.52ZM228.909 204.98V216H226.629V204.98H228.909ZM237.262 204.8C238.129 204.8 238.902 204.98 239.582 205.34C240.276 205.7 240.816 206.233 241.202 206.94C241.589 207.647 241.782 208.5 241.782 209.5V216H239.522V209.84C239.522 208.853 239.276 208.1 238.782 207.58C238.289 207.047 237.616 206.78 236.762 206.78C235.909 206.78 235.229 207.047 234.722 207.58C234.229 208.1 233.982 208.853 233.982 209.84V216H231.702V204.98H233.982V206.24C234.356 205.787 234.829 205.433 235.402 205.18C235.989 204.927 236.609 204.8 237.262 204.8ZM248.931 204.8C249.784 204.8 250.537 204.973 251.191 205.32C251.857 205.653 252.377 206.073 252.751 206.58V204.98H255.051V216.18C255.051 217.193 254.837 218.093 254.411 218.88C253.984 219.68 253.364 220.307 252.551 220.76C251.751 221.213 250.791 221.44 249.671 221.44C248.177 221.44 246.937 221.087 245.951 220.38C244.964 219.687 244.404 218.74 244.271 217.54H246.531C246.704 218.113 247.071 218.573 247.631 218.92C248.204 219.28 248.884 219.46 249.671 219.46C250.591 219.46 251.331 219.18 251.891 218.62C252.464 218.06 252.751 217.247 252.751 216.18V214.34C252.364 214.86 251.837 215.3 251.171 215.66C250.517 216.007 249.771 216.18 248.931 216.18C247.971 216.18 247.091 215.94 246.291 215.46C245.504 214.967 244.877 214.287 244.411 213.42C243.957 212.54 243.731 211.547 243.731 210.44C243.731 209.333 243.957 208.353 244.411 207.5C244.877 206.647 245.504 205.987 246.291 205.52C247.091 205.04 247.971 204.8 248.931 204.8ZM252.751 210.48C252.751 209.72 252.591 209.06 252.271 208.5C251.964 207.94 251.557 207.513 251.051 207.22C250.544 206.927 249.997 206.78 249.411 206.78C248.824 206.78 248.277 206.927 247.771 207.22C247.264 207.5 246.851 207.92 246.531 208.48C246.224 209.027 246.071 209.68 246.071 210.44C246.071 211.2 246.224 211.867 246.531 212.44C246.851 213.013 247.264 213.453 247.771 213.76C248.291 214.053 248.837 214.2 249.411 214.2C249.997 214.2 250.544 214.053 251.051 213.76C251.557 213.467 251.964 213.04 252.271 212.48C252.591 211.907 252.751 211.24 252.751 210.48ZM266.301 206.84V212.94C266.301 213.353 266.395 213.653 266.581 213.84C266.781 214.013 267.115 214.1 267.581 214.1H268.981V216H267.181C266.155 216 265.368 215.76 264.821 215.28C264.275 214.8 264.001 214.02 264.001 212.94V206.84H262.701V204.98H264.001V202.24H266.301V204.98H268.981V206.84H266.301ZM275.663 216.18C274.623 216.18 273.683 215.947 272.843 215.48C272.003 215 271.343 214.333 270.863 213.48C270.383 212.613 270.143 211.613 270.143 210.48C270.143 209.36 270.389 208.367 270.883 207.5C271.376 206.633 272.049 205.967 272.903 205.5C273.756 205.033 274.709 204.8 275.763 204.8C276.816 204.8 277.769 205.033 278.623 205.5C279.476 205.967 280.149 206.633 280.643 207.5C281.136 208.367 281.383 209.36 281.383 210.48C281.383 211.6 281.129 212.593 280.623 213.46C280.116 214.327 279.423 215 278.543 215.48C277.676 215.947 276.716 216.18 275.663 216.18ZM275.663 214.26C276.249 214.26 276.796 214.113 277.303 213.82C277.823 213.527 278.243 213.1 278.563 212.54C278.883 211.967 279.043 211.28 279.043 210.48C279.043 209.68 278.889 209 278.583 208.44C278.276 207.867 277.869 207.44 277.363 207.16C276.856 206.867 276.309 206.72 275.723 206.72C275.136 206.72 274.596 206.867 274.103 207.16C273.609 207.44 273.209 207.867 272.903 208.44C272.609 209 272.463 209.68 272.463 210.48C272.463 211.28 272.603 211.967 272.883 212.54C273.176 213.113 273.563 213.547 274.043 213.84C274.536 214.12 275.076 214.26 275.663 214.26ZM32.74 234.44C32.74 233.333 32.9667 232.353 33.42 231.5C33.8867 230.647 34.5133 229.987 35.3 229.52C36.1 229.04 36.98 228.8 37.94 228.8C38.8067 228.8 39.56 228.973 40.2 229.32C40.8533 229.653 41.3733 230.073 41.76 230.58V228.98H44.06V240H41.76V238.36C41.3733 238.88 40.8467 239.313 40.18 239.66C39.5133 240.007 38.7533 240.18 37.9 240.18C36.9533 240.18 36.0867 239.94 35.3 239.46C34.5133 238.967 33.8867 238.287 33.42 237.42C32.9667 236.54 32.74 235.547 32.74 234.44ZM41.76 234.48C41.76 233.72 41.6 233.06 41.28 232.5C40.9733 231.94 40.5667 231.513 40.06 231.22C39.5533 230.927 39.0067 230.78 38.42 230.78C37.8333 230.78 37.2867 230.927 36.78 231.22C36.2733 231.5 35.86 231.92 35.54 232.48C35.2333 233.027 35.08 233.68 35.08 234.44C35.08 235.2 35.2333 235.867 35.54 236.44C35.86 237.013 36.2733 237.453 36.78 237.76C37.3 238.053 37.8467 238.2 38.42 238.2C39.0067 238.2 39.5533 238.053 40.06 237.76C40.5667 237.467 40.9733 237.04 41.28 236.48C41.6 235.907 41.76 235.24 41.76 234.48ZM46.0947 234.48C46.0947 233.347 46.3214 232.353 46.7747 231.5C47.2414 230.633 47.8814 229.967 48.6947 229.5C49.508 229.033 50.4414 228.8 51.4947 228.8C52.828 228.8 53.928 229.12 54.7947 229.76C55.6747 230.387 56.268 231.287 56.5747 232.46H54.1147C53.9147 231.913 53.5947 231.487 53.1547 231.18C52.7147 230.873 52.1614 230.72 51.4947 230.72C50.5614 230.72 49.8147 231.053 49.2547 231.72C48.708 232.373 48.4347 233.293 48.4347 234.48C48.4347 235.667 48.708 236.593 49.2547 237.26C49.8147 237.927 50.5614 238.26 51.4947 238.26C52.8147 238.26 53.688 237.68 54.1147 236.52H56.5747C56.2547 237.64 55.6547 238.533 54.7747 239.2C53.8947 239.853 52.8014 240.18 51.4947 240.18C50.4414 240.18 49.508 239.947 48.6947 239.48C47.8814 239 47.2414 238.333 46.7747 237.48C46.3214 236.613 46.0947 235.613 46.0947 234.48ZM64.3469 228.8C65.1869 228.8 65.9335 228.98 66.5869 229.34C67.2535 229.7 67.7735 230.233 68.1469 230.94C68.5335 231.647 68.7269 232.5 68.7269 233.5V240H66.4669V233.84C66.4669 232.853 66.2202 232.1 65.7269 231.58C65.2335 231.047 64.5602 230.78 63.7069 230.78C62.8535 230.78 62.1735 231.047 61.6669 231.58C61.1735 232.1 60.9269 232.853 60.9269 233.84V240H58.6469V225.2H60.9269V230.26C61.3135 229.793 61.8002 229.433 62.3869 229.18C62.9869 228.927 63.6402 228.8 64.3469 228.8ZM72.5952 227.52C72.1818 227.52 71.8352 227.38 71.5552 227.1C71.2752 226.82 71.1352 226.473 71.1352 226.06C71.1352 225.647 71.2752 225.3 71.5552 225.02C71.8352 224.74 72.1818 224.6 72.5952 224.6C72.9952 224.6 73.3352 224.74 73.6152 225.02C73.8952 225.3 74.0352 225.647 74.0352 226.06C74.0352 226.473 73.8952 226.82 73.6152 227.1C73.3352 227.38 72.9952 227.52 72.5952 227.52ZM73.7152 228.98V240H71.4352V228.98H73.7152ZM86.6086 234.18C86.6086 234.567 86.5819 234.927 86.5286 235.26H78.0886C78.1553 236.18 78.4819 236.913 79.0686 237.46C79.6553 237.993 80.3819 238.26 81.2486 238.26C82.4753 238.26 83.3419 237.747 83.8486 236.72H86.3086C85.9753 237.733 85.3686 238.567 84.4886 239.22C83.6219 239.86 82.5419 240.18 81.2486 240.18C80.1953 240.18 79.2486 239.947 78.4086 239.48C77.5819 239 76.9286 238.333 76.4486 237.48C75.9819 236.613 75.7486 235.613 75.7486 234.48C75.7486 233.347 75.9753 232.353 76.4286 231.5C76.8953 230.633 77.5419 229.967 78.3686 229.5C79.2086 229.033 80.1686 228.8 81.2486 228.8C82.2886 228.8 83.2153 229.027 84.0286 229.48C84.8419 229.933 85.4753 230.567 85.9286 231.38C86.3819 232.193 86.6086 233.127 86.6086 234.18ZM84.2286 233.62C84.2153 232.727 83.9153 232.02 83.3286 231.5C82.7553 230.98 82.0286 230.72 81.1486 230.72C80.3486 230.72 79.6619 230.98 79.0886 231.5C78.5286 232.02 78.2019 232.727 78.1086 233.62H84.2286ZM92.9123 237.96L96.0323 228.98H98.4923L94.2923 240H91.5323L87.3523 228.98H89.7923L92.9123 237.96ZM110.076 234.18C110.076 234.567 110.049 234.927 109.996 235.26H101.556C101.622 236.18 101.949 236.913 102.536 237.46C103.122 237.993 103.849 238.26 104.716 238.26C105.942 238.26 106.809 237.747 107.316 236.72H109.776C109.442 237.733 108.836 238.567 107.956 239.22C107.089 239.86 106.009 240.18 104.716 240.18C103.662 240.18 102.716 239.947 101.876 239.48C101.049 239 100.396 238.333 99.9158 237.48C99.4491 236.613 99.2158 235.613 99.2158 234.48C99.2158 233.347 99.4425 232.353 99.8958 231.5C100.362 230.633 101.009 229.967 101.836 229.5C102.676 229.033 103.636 228.8 104.716 228.8C105.756 228.8 106.682 229.027 107.496 229.48C108.309 229.933 108.942 230.567 109.396 231.38C109.849 232.193 110.076 233.127 110.076 234.18ZM107.696 233.62C107.682 232.727 107.382 232.02 106.796 231.5C106.222 230.98 105.496 230.72 104.616 230.72C103.816 230.72 103.129 230.98 102.556 231.5C101.996 232.02 101.669 232.727 101.576 233.62H107.696ZM115.86 225.9C117.22 225.9 118.306 226.273 119.12 227.02C119.946 227.767 120.36 228.787 120.36 230.08C120.36 231.427 119.933 232.44 119.08 233.12C118.226 233.8 117.093 234.14 115.68 234.14L115.6 235.72H113.62L113.52 232.58H114.18C115.473 232.58 116.46 232.407 117.14 232.06C117.833 231.713 118.18 231.053 118.18 230.08C118.18 229.373 117.973 228.82 117.56 228.42C117.16 228.02 116.6 227.82 115.88 227.82C115.16 227.82 114.593 228.013 114.18 228.4C113.766 228.787 113.56 229.327 113.56 230.02H111.42C111.42 229.22 111.6 228.507 111.96 227.88C112.32 227.253 112.833 226.767 113.5 226.42C114.18 226.073 114.966 225.9 115.86 225.9ZM114.58 240.14C114.166 240.14 113.82 240 113.54 239.72C113.26 239.44 113.12 239.093 113.12 238.68C113.12 238.267 113.26 237.92 113.54 237.64C113.82 237.36 114.166 237.22 114.58 237.22C114.98 237.22 115.32 237.36 115.6 237.64C115.88 237.92 116.02 238.267 116.02 238.68C116.02 239.093 115.88 239.44 115.6 239.72C115.32 240 114.98 240.14 114.58 240.14ZM137.921 231.8V233.72H122.921V231.8H137.921ZM159.058 226.1L154.938 240H152.358L149.438 229.48L146.338 240L143.778 240.02L139.838 226.1H142.258L145.138 237.42L148.258 226.1H150.818L153.718 237.36L156.618 226.1H159.058ZM166.438 228.8C167.278 228.8 168.025 228.98 168.678 229.34C169.345 229.7 169.865 230.233 170.238 230.94C170.625 231.647 170.818 232.5 170.818 233.5V240H168.558V233.84C168.558 232.853 168.312 232.1 167.818 231.58C167.325 231.047 166.652 230.78 165.798 230.78C164.945 230.78 164.265 231.047 163.758 231.58C163.265 232.1 163.018 232.853 163.018 233.84V240H160.738V225.2H163.018V230.26C163.405 229.793 163.892 229.433 164.478 229.18C165.078 228.927 165.732 228.8 166.438 228.8ZM172.767 234.44C172.767 233.333 172.993 232.353 173.447 231.5C173.913 230.647 174.54 229.987 175.327 229.52C176.127 229.04 177.007 228.8 177.967 228.8C178.833 228.8 179.587 228.973 180.227 229.32C180.88 229.653 181.4 230.073 181.787 230.58V228.98H184.087V240H181.787V238.36C181.4 238.88 180.873 239.313 180.207 239.66C179.54 240.007 178.78 240.18 177.927 240.18C176.98 240.18 176.113 239.94 175.327 239.46C174.54 238.967 173.913 238.287 173.447 237.42C172.993 236.54 172.767 235.547 172.767 234.44ZM181.787 234.48C181.787 233.72 181.627 233.06 181.307 232.5C181 231.94 180.593 231.513 180.087 231.22C179.58 230.927 179.033 230.78 178.447 230.78C177.86 230.78 177.313 230.927 176.807 231.22C176.3 231.5 175.887 231.92 175.567 232.48C175.26 233.027 175.107 233.68 175.107 234.44C175.107 235.2 175.26 235.867 175.567 236.44C175.887 237.013 176.3 237.453 176.807 237.76C177.327 238.053 177.873 238.2 178.447 238.2C179.033 238.2 179.58 238.053 180.087 237.76C180.593 237.467 181 237.04 181.307 236.48C181.627 235.907 181.787 235.24 181.787 234.48ZM189.541 230.84V236.94C189.541 237.353 189.635 237.653 189.821 237.84C190.021 238.013 190.355 238.1 190.821 238.1H192.221V240H190.421C189.395 240 188.608 239.76 188.061 239.28C187.515 238.8 187.241 238.02 187.241 236.94V230.84H185.941V228.98H187.241V226.24H189.541V228.98H192.221V230.84H189.541ZM199.159 234.44C199.159 233.333 199.385 232.353 199.839 231.5C200.305 230.647 200.932 229.987 201.719 229.52C202.519 229.04 203.399 228.8 204.359 228.8C205.225 228.8 205.979 228.973 206.619 229.32C207.272 229.653 207.792 230.073 208.179 230.58V228.98H210.479V240H208.179V238.36C207.792 238.88 207.265 239.313 206.599 239.66C205.932 240.007 205.172 240.18 204.319 240.18C203.372 240.18 202.505 239.94 201.719 239.46C200.932 238.967 200.305 238.287 199.839 237.42C199.385 236.54 199.159 235.547 199.159 234.44ZM208.179 234.48C208.179 233.72 208.019 233.06 207.699 232.5C207.392 231.94 206.985 231.513 206.479 231.22C205.972 230.927 205.425 230.78 204.839 230.78C204.252 230.78 203.705 230.927 203.199 231.22C202.692 231.5 202.279 231.92 201.959 232.48C201.652 233.027 201.499 233.68 201.499 234.44C201.499 235.2 201.652 235.867 201.959 236.44C202.279 237.013 202.692 237.453 203.199 237.76C203.719 238.053 204.265 238.2 204.839 238.2C205.425 238.2 205.972 238.053 206.479 237.76C206.985 237.467 207.392 237.04 207.699 236.48C208.019 235.907 208.179 235.24 208.179 234.48ZM215.553 230.9C215.887 230.233 216.327 229.72 216.873 229.36C217.433 228.987 218.093 228.8 218.853 228.8V231.16H218.273C217.38 231.16 216.7 231.387 216.233 231.84C215.78 232.293 215.553 233.08 215.553 234.2V240H213.273V228.98H215.553V230.9ZM230.849 234.18C230.849 234.567 230.823 234.927 230.769 235.26H222.329C222.396 236.18 222.723 236.913 223.309 237.46C223.896 237.993 224.623 238.26 225.489 238.26C226.716 238.26 227.583 237.747 228.089 236.72H230.549C230.216 237.733 229.609 238.567 228.729 239.22C227.863 239.86 226.783 240.18 225.489 240.18C224.436 240.18 223.489 239.947 222.649 239.48C221.823 239 221.169 238.333 220.689 237.48C220.223 236.613 219.989 235.613 219.989 234.48C219.989 233.347 220.216 232.353 220.669 231.5C221.136 230.633 221.783 229.967 222.609 229.5C223.449 229.033 224.409 228.8 225.489 228.8C226.529 228.8 227.456 229.027 228.269 229.48C229.083 229.933 229.716 230.567 230.169 231.38C230.623 232.193 230.849 233.127 230.849 234.18ZM228.469 233.62C228.456 232.727 228.156 232.02 227.569 231.5C226.996 230.98 226.269 230.72 225.389 230.72C224.589 230.72 223.903 230.98 223.329 231.5C222.769 232.02 222.443 232.727 222.349 233.62H228.469ZM237.929 234.44C237.929 233.333 238.156 232.353 238.609 231.5C239.076 230.647 239.702 229.987 240.489 229.52C241.289 229.04 242.169 228.8 243.129 228.8C243.996 228.8 244.749 228.973 245.389 229.32C246.042 229.653 246.562 230.073 246.949 230.58V228.98H249.249V240H246.949V238.36C246.562 238.88 246.036 239.313 245.369 239.66C244.702 240.007 243.942 240.18 243.089 240.18C242.142 240.18 241.276 239.94 240.489 239.46C239.702 238.967 239.076 238.287 238.609 237.42C238.156 236.54 237.929 235.547 237.929 234.44ZM246.949 234.48C246.949 233.72 246.789 233.06 246.469 232.5C246.162 231.94 245.756 231.513 245.249 231.22C244.742 230.927 244.196 230.78 243.609 230.78C243.022 230.78 242.476 230.927 241.969 231.22C241.462 231.5 241.049 231.92 240.729 232.48C240.422 233.027 240.269 233.68 240.269 234.44C240.269 235.2 240.422 235.867 240.729 236.44C241.049 237.013 241.462 237.453 241.969 237.76C242.489 238.053 243.036 238.2 243.609 238.2C244.196 238.2 244.742 238.053 245.249 237.76C245.756 237.467 246.162 237.04 246.469 236.48C246.789 235.907 246.949 235.24 246.949 234.48ZM251.284 234.44C251.284 233.333 251.51 232.353 251.964 231.5C252.43 230.647 253.057 229.987 253.844 229.52C254.644 229.04 255.53 228.8 256.504 228.8C257.224 228.8 257.93 228.96 258.624 229.28C259.33 229.587 259.89 230 260.304 230.52V225.2H262.604V240H260.304V238.34C259.93 238.873 259.41 239.313 258.744 239.66C258.09 240.007 257.337 240.18 256.484 240.18C255.524 240.18 254.644 239.94 253.844 239.46C253.057 238.967 252.43 238.287 251.964 237.42C251.51 236.54 251.284 235.547 251.284 234.44ZM260.304 234.48C260.304 233.72 260.144 233.06 259.824 232.5C259.517 231.94 259.11 231.513 258.604 231.22C258.097 230.927 257.55 230.78 256.964 230.78C256.377 230.78 255.83 230.927 255.324 231.22C254.817 231.5 254.404 231.92 254.084 232.48C253.777 233.027 253.624 233.68 253.624 234.44C253.624 235.2 253.777 235.867 254.084 236.44C254.404 237.013 254.817 237.453 255.324 237.76C255.844 238.053 256.39 238.2 256.964 238.2C257.55 238.2 258.097 238.053 258.604 237.76C259.11 237.467 259.517 237.04 259.824 236.48C260.144 235.907 260.304 235.24 260.304 234.48ZM266.558 227.52C266.145 227.52 265.798 227.38 265.518 227.1C265.238 226.82 265.098 226.473 265.098 226.06C265.098 225.647 265.238 225.3 265.518 225.02C265.798 224.74 266.145 224.6 266.558 224.6C266.958 224.6 267.298 224.74 267.578 225.02C267.858 225.3 267.998 225.647 267.998 226.06C267.998 226.473 267.858 226.82 267.578 227.1C267.298 227.38 266.958 227.52 266.558 227.52ZM267.678 242.16C267.678 243.24 267.405 244.02 266.858 244.5C266.325 244.993 265.545 245.24 264.518 245.24H263.338V243.32H264.118C264.585 243.32 264.912 243.227 265.098 243.04C265.298 242.867 265.398 242.573 265.398 242.16V228.98H267.678V242.16ZM269.712 234.44C269.712 233.333 269.939 232.353 270.392 231.5C270.859 230.647 271.485 229.987 272.272 229.52C273.072 229.04 273.952 228.8 274.912 228.8C275.779 228.8 276.532 228.973 277.172 229.32C277.825 229.653 278.345 230.073 278.732 230.58V228.98H281.032V240H278.732V238.36C278.345 238.88 277.819 239.313 277.152 239.66C276.485 240.007 275.725 240.18 274.872 240.18C273.925 240.18 273.059 239.94 272.272 239.46C271.485 238.967 270.859 238.287 270.392 237.42C269.939 236.54 269.712 235.547 269.712 234.44ZM278.732 234.48C278.732 233.72 278.572 233.06 278.252 232.5C277.945 231.94 277.539 231.513 277.032 231.22C276.525 230.927 275.979 230.78 275.392 230.78C274.805 230.78 274.259 230.927 273.752 231.22C273.245 231.5 272.832 231.92 272.512 232.48C272.205 233.027 272.052 233.68 272.052 234.44C272.052 235.2 272.205 235.867 272.512 236.44C272.832 237.013 273.245 237.453 273.752 237.76C274.272 238.053 274.819 238.2 275.392 238.2C275.979 238.2 276.525 238.053 277.032 237.76C277.539 237.467 277.945 237.04 278.252 236.48C278.572 235.907 278.732 235.24 278.732 234.48ZM283.067 234.48C283.067 233.347 283.293 232.353 283.747 231.5C284.213 230.633 284.853 229.967 285.667 229.5C286.48 229.033 287.413 228.8 288.467 228.8C289.8 228.8 290.9 229.12 291.767 229.76C292.647 230.387 293.24 231.287 293.547 232.46H291.087C290.887 231.913 290.567 231.487 290.127 231.18C289.687 230.873 289.133 230.72 288.467 230.72C287.533 230.72 286.787 231.053 286.227 231.72C285.68 232.373 285.407 233.293 285.407 234.48C285.407 235.667 285.68 236.593 286.227 237.26C286.787 237.927 287.533 238.26 288.467 238.26C289.787 238.26 290.66 237.68 291.087 236.52H293.547C293.227 237.64 292.627 238.533 291.747 239.2C290.867 239.853 289.773 240.18 288.467 240.18C287.413 240.18 286.48 239.947 285.667 239.48C284.853 239 284.213 238.333 283.747 237.48C283.293 236.613 283.067 235.613 283.067 234.48ZM305.719 234.18C305.719 234.567 305.692 234.927 305.639 235.26H297.199C297.265 236.18 297.592 236.913 298.179 237.46C298.765 237.993 299.492 238.26 300.359 238.26C301.585 238.26 302.452 237.747 302.959 236.72H305.419C305.085 237.733 304.479 238.567 303.599 239.22C302.732 239.86 301.652 240.18 300.359 240.18C299.305 240.18 298.359 239.947 297.519 239.48C296.692 239 296.039 238.333 295.559 237.48C295.092 236.613 294.859 235.613 294.859 234.48C294.859 233.347 295.085 232.353 295.539 231.5C296.005 230.633 296.652 229.967 297.479 229.5C298.319 229.033 299.279 228.8 300.359 228.8C301.399 228.8 302.325 229.027 303.139 229.48C303.952 229.933 304.585 230.567 305.039 231.38C305.492 232.193 305.719 233.127 305.719 234.18ZM303.339 233.62C303.325 232.727 303.025 232.02 302.439 231.5C301.865 230.98 301.139 230.72 300.259 230.72C299.459 230.72 298.772 230.98 298.199 231.5C297.639 232.02 297.312 232.727 297.219 233.62H303.339ZM313.323 228.8C314.189 228.8 314.963 228.98 315.643 229.34C316.336 229.7 316.876 230.233 317.263 230.94C317.649 231.647 317.843 232.5 317.843 233.5V240H315.583V233.84C315.583 232.853 315.336 232.1 314.843 231.58C314.349 231.047 313.676 230.78 312.823 230.78C311.969 230.78 311.289 231.047 310.783 231.58C310.289 232.1 310.043 232.853 310.043 233.84V240H307.763V228.98H310.043V230.24C310.416 229.787 310.889 229.433 311.463 229.18C312.049 228.927 312.669 228.8 313.323 228.8ZM323.211 230.84V236.94C323.211 237.353 323.304 237.653 323.491 237.84C323.691 238.013 324.024 238.1 324.491 238.1H325.891V240H324.091C323.064 240 322.277 239.76 321.731 239.28C321.184 238.8 320.911 238.02 320.911 236.94V230.84L319.611 230.84V228.98L320.911 228.98V226.24H323.211V228.98H325.891V230.84H323.211ZM37.46 264.18C36.6067 264.18 35.84 264.027 35.16 263.72C34.48 263.4 33.94 262.973 33.54 262.44C33.14 261.893 32.9267 261.287 32.9 260.62H35.26C35.3 261.127 35.52 261.547 35.92 261.88C36.3333 262.213 36.8467 262.38 37.46 262.38C38.1 262.38 38.5933 262.253 38.94 262C39.3 261.733 39.48 261.38 39.48 260.94C39.48 260.54 39.28 260.233 38.88 260.02C38.48 259.807 37.86 259.593 37.02 259.38C36.2067 259.153 35.54 258.94 35.02 258.74C34.5133 258.527 34.0733 258.207 33.7 257.78C33.3267 257.34 33.14 256.773 33.14 256.08C33.14 255.48 33.3067 254.933 33.64 254.44C33.9733 253.933 34.4533 253.533 35.08 253.24C35.72 252.947 36.4667 252.8 37.32 252.8C38.5733 252.8 39.58 253.12 40.34 253.76C41.1133 254.387 41.5267 255.247 41.58 256.34H39.3C39.26 255.807 39.06 255.387 38.7 255.08C38.34 254.76 37.8533 254.6 37.24 254.6C36.64 254.6 36.18 254.727 35.86 254.98C35.54 255.22 35.38 255.547 35.38 255.96C35.38 256.253 35.4867 256.5 35.7 256.7C35.9133 256.9 36.18 257.06 36.5 257.18C36.82 257.287 37.2733 257.42 37.86 257.58C38.66 257.793 39.3133 258.007 39.82 258.22C40.3267 258.433 40.76 258.76 41.12 259.2C41.48 259.627 41.66 260.187 41.66 260.88C41.66 261.507 41.4933 262.073 41.16 262.58C40.8267 263.073 40.34 263.467 39.7 263.76C39.0733 264.04 38.3267 264.18 37.46 264.18ZM48.7636 264.18C47.7236 264.18 46.7836 263.947 45.9436 263.48C45.1036 263 44.4436 262.333 43.9636 261.48C43.4836 260.613 43.2436 259.613 43.2436 258.48C43.2436 257.36 43.4903 256.367 43.9836 255.5C44.4769 254.633 45.1503 253.967 46.0036 253.5C46.8569 253.033 47.8103 252.8 48.8636 252.8C49.9169 252.8 50.8703 253.033 51.7236 253.5C52.5769 253.967 53.2503 254.633 53.7436 255.5C54.2369 256.367 54.4836 257.36 54.4836 258.48C54.4836 259.6 54.2303 260.593 53.7236 261.46C53.2169 262.327 52.5236 263 51.6436 263.48C50.7769 263.947 49.8169 264.18 48.7636 264.18ZM48.7636 262.26C49.3503 262.26 49.8969 262.113 50.4036 261.82C50.9236 261.527 51.3436 261.1 51.6636 260.54C51.9836 259.967 52.1436 259.28 52.1436 258.48C52.1436 257.68 51.9903 257 51.6836 256.44C51.3769 255.867 50.9703 255.44 50.4636 255.16C49.9569 254.867 49.4103 254.72 48.8236 254.72C48.2369 254.72 47.6969 254.867 47.2036 255.16C46.7103 255.44 46.3103 255.867 46.0036 256.44C45.7103 257 45.5636 257.68 45.5636 258.48C45.5636 259.28 45.7036 259.967 45.9836 260.54C46.2769 261.113 46.6636 261.547 47.1436 261.84C47.6369 262.12 48.1769 262.26 48.7636 262.26ZM58.8175 249.2V264H56.5375V249.2H58.8175ZM71.5909 252.98V264H69.3109V262.7C68.9509 263.153 68.4776 263.513 67.8909 263.78C67.3176 264.033 66.7043 264.16 66.0509 264.16C65.1843 264.16 64.4043 263.98 63.7109 263.62C63.0309 263.26 62.4909 262.727 62.0909 262.02C61.7043 261.313 61.5109 260.46 61.5109 259.46V252.98H63.7709V259.12C63.7709 260.107 64.0176 260.867 64.5109 261.4C65.0043 261.92 65.6776 262.18 66.5309 262.18C67.3843 262.18 68.0576 261.92 68.5509 261.4C69.0576 260.867 69.3109 260.107 69.3109 259.12V252.98H71.5909ZM77.0592 254.84V260.94C77.0592 261.353 77.1526 261.653 77.3392 261.84C77.5392 262.013 77.8726 262.1 78.3392 262.1H79.7392V264H77.9392C76.9126 264 76.1259 263.76 75.5792 263.28C75.0326 262.8 74.7592 262.02 74.7592 260.94V254.84H73.4592V252.98H74.7592V250.24H77.0592V252.98H79.7392V254.84H77.0592ZM82.8006 251.52C82.3873 251.52 82.0406 251.38 81.7606 251.1C81.4806 250.82 81.3406 250.473 81.3406 250.06C81.3406 249.647 81.4806 249.3 81.7606 249.02C82.0406 248.74 82.3873 248.6 82.8006 248.6C83.2006 248.6 83.5406 248.74 83.8206 249.02C84.1006 249.3 84.2406 249.647 84.2406 250.06C84.2406 250.473 84.1006 250.82 83.8206 251.1C83.5406 251.38 83.2006 251.52 82.8006 251.52ZM83.9206 252.98V264H81.6406V252.98H83.9206ZM91.4941 264.18C90.4541 264.18 89.5141 263.947 88.6741 263.48C87.8341 263 87.1741 262.333 86.6941 261.48C86.2141 260.613 85.9741 259.613 85.9741 258.48C85.9741 257.36 86.2207 256.367 86.7141 255.5C87.2074 254.633 87.8807 253.967 88.7341 253.5C89.5874 253.033 90.5407 252.8 91.5941 252.8C92.6474 252.8 93.6007 253.033 94.4541 253.5C95.3074 253.967 95.9807 254.633 96.4741 255.5C96.9674 256.367 97.2141 257.36 97.2141 258.48C97.2141 259.6 96.9607 260.593 96.4541 261.46C95.9474 262.327 95.2541 263 94.3741 263.48C93.5074 263.947 92.5474 264.18 91.4941 264.18ZM91.4941 262.26C92.0807 262.26 92.6274 262.113 93.1341 261.82C93.6541 261.527 94.0741 261.1 94.3941 260.54C94.7141 259.967 94.8741 259.28 94.8741 258.48C94.8741 257.68 94.7207 257 94.4141 256.44C94.1074 255.867 93.7007 255.44 93.1941 255.16C92.6874 254.867 92.1407 254.72 91.5541 254.72C90.9674 254.72 90.4274 254.867 89.9341 255.16C89.4407 255.44 89.0407 255.867 88.7341 256.44C88.4407 257 88.2941 257.68 88.2941 258.48C88.2941 259.28 88.4341 259.967 88.7141 260.54C89.0074 261.113 89.3941 261.547 89.8741 261.84C90.3674 262.12 90.9074 262.26 91.4941 262.26ZM104.828 252.8C105.695 252.8 106.468 252.98 107.148 253.34C107.841 253.7 108.381 254.233 108.768 254.94C109.155 255.647 109.348 256.5 109.348 257.5V264H107.088V257.84C107.088 256.853 106.841 256.1 106.348 255.58C105.855 255.047 105.181 254.78 104.328 254.78C103.475 254.78 102.795 255.047 102.288 255.58C101.795 256.1 101.548 256.853 101.548 257.84V264H99.268V252.98H101.548V254.24C101.921 253.787 102.395 253.433 102.968 253.18C103.555 252.927 104.175 252.8 104.828 252.8ZM131.192 252.8C132.059 252.8 132.832 252.98 133.512 253.34C134.206 253.7 134.746 254.233 135.132 254.94C135.532 255.647 135.732 256.5 135.732 257.5V264H133.472V257.84C133.472 256.853 133.226 256.1 132.732 255.58C132.239 255.047 131.566 254.78 130.712 254.78C129.859 254.78 129.179 255.047 128.672 255.58C128.179 256.1 127.932 256.853 127.932 257.84V264H125.672V257.84C125.672 256.853 125.426 256.1 124.932 255.58C124.439 255.047 123.766 254.78 122.912 254.78C122.059 254.78 121.379 255.047 120.872 255.58C120.379 256.1 120.132 256.853 120.132 257.84V264H117.852V252.98H120.132V254.24C120.506 253.787 120.979 253.433 121.552 253.18C122.126 252.927 122.739 252.8 123.392 252.8C124.272 252.8 125.059 252.987 125.752 253.36C126.446 253.733 126.979 254.273 127.352 254.98C127.686 254.313 128.206 253.787 128.912 253.4C129.619 253 130.379 252.8 131.192 252.8ZM148.534 258.18C148.534 258.567 148.507 258.927 148.454 259.26H140.014C140.08 260.18 140.407 260.913 140.994 261.46C141.58 261.993 142.307 262.26 143.174 262.26C144.4 262.26 145.267 261.747 145.774 260.72H148.234C147.9 261.733 147.294 262.567 146.414 263.22C145.547 263.86 144.467 264.18 143.174 264.18C142.12 264.18 141.174 263.947 140.334 263.48C139.507 263 138.854 262.333 138.374 261.48C137.907 260.613 137.674 259.613 137.674 258.48C137.674 257.347 137.9 256.353 138.354 255.5C138.82 254.633 139.467 253.967 140.294 253.5C141.134 253.033 142.094 252.8 143.174 252.8C144.214 252.8 145.14 253.027 145.954 253.48C146.767 253.933 147.4 254.567 147.854 255.38C148.307 256.193 148.534 257.127 148.534 258.18ZM146.154 257.62C146.14 256.727 145.84 256.02 145.254 255.5C144.68 254.98 143.954 254.72 143.074 254.72C142.274 254.72 141.587 254.98 141.014 255.5C140.454 256.02 140.127 256.727 140.034 257.62H146.154ZM153.237 254.84V260.94C153.237 261.353 153.331 261.653 153.517 261.84C153.717 262.013 154.051 262.1 154.517 262.1H155.917V264H154.117C153.091 264 152.304 263.76 151.757 263.28C151.211 262.8 150.937 262.02 150.937 260.94V254.84H149.637V252.98H150.937V250.24H153.237V252.98H155.917V254.84H153.237ZM163.519 252.8C164.359 252.8 165.105 252.98 165.759 253.34C166.425 253.7 166.945 254.233 167.319 254.94C167.705 255.647 167.899 256.5 167.899 257.5V264H165.639V257.84C165.639 256.853 165.392 256.1 164.899 255.58C164.405 255.047 163.732 254.78 162.879 254.78C162.025 254.78 161.345 255.047 160.839 255.58C160.345 256.1 160.099 256.853 160.099 257.84V264H157.819V249.2H160.099V254.26C160.485 253.793 160.972 253.433 161.559 253.18C162.159 252.927 162.812 252.8 163.519 252.8ZM175.387 264.18C174.347 264.18 173.407 263.947 172.567 263.48C171.727 263 171.067 262.333 170.587 261.48C170.107 260.613 169.867 259.613 169.867 258.48C169.867 257.36 170.114 256.367 170.607 255.5C171.1 254.633 171.774 253.967 172.627 253.5C173.48 253.033 174.434 252.8 175.487 252.8C176.54 252.8 177.494 253.033 178.347 253.5C179.2 253.967 179.874 254.633 180.367 255.5C180.86 256.367 181.107 257.36 181.107 258.48C181.107 259.6 180.854 260.593 180.347 261.46C179.84 262.327 179.147 263 178.267 263.48C177.4 263.947 176.44 264.18 175.387 264.18ZM175.387 262.26C175.974 262.26 176.52 262.113 177.027 261.82C177.547 261.527 177.967 261.1 178.287 260.54C178.607 259.967 178.767 259.28 178.767 258.48C178.767 257.68 178.614 257 178.307 256.44C178 255.867 177.594 255.44 177.087 255.16C176.58 254.867 176.034 254.72 175.447 254.72C174.86 254.72 174.32 254.867 173.827 255.16C173.334 255.44 172.934 255.867 172.627 256.44C172.334 257 172.187 257.68 172.187 258.48C172.187 259.28 172.327 259.967 172.607 260.54C172.9 261.113 173.287 261.547 173.767 261.84C174.26 262.12 174.8 262.26 175.387 262.26ZM182.401 258.44C182.401 257.333 182.628 256.353 183.081 255.5C183.548 254.647 184.174 253.987 184.961 253.52C185.761 253.04 186.648 252.8 187.621 252.8C188.341 252.8 189.048 252.96 189.741 253.28C190.448 253.587 191.008 254 191.421 254.52V249.2H193.721V264H191.421V262.34C191.048 262.873 190.528 263.313 189.861 263.66C189.208 264.007 188.454 264.18 187.601 264.18C186.641 264.18 185.761 263.94 184.961 263.46C184.174 262.967 183.548 262.287 183.081 261.42C182.628 260.54 182.401 259.547 182.401 258.44ZM191.421 258.48C191.421 257.72 191.261 257.06 190.941 256.5C190.634 255.94 190.228 255.513 189.721 255.22C189.214 254.927 188.668 254.78 188.081 254.78C187.494 254.78 186.948 254.927 186.441 255.22C185.934 255.5 185.521 255.92 185.201 256.48C184.894 257.027 184.741 257.68 184.741 258.44C184.741 259.2 184.894 259.867 185.201 260.44C185.521 261.013 185.934 261.453 186.441 261.76C186.961 262.053 187.508 262.2 188.081 262.2C188.668 262.2 189.214 262.053 189.721 261.76C190.228 261.467 190.634 261.04 190.941 260.48C191.261 259.907 191.421 259.24 191.421 258.48ZM200.476 264.18C199.622 264.18 198.856 264.027 198.176 263.72C197.496 263.4 196.956 262.973 196.556 262.44C196.156 261.893 195.942 261.287 195.916 260.62H198.276C198.316 261.127 198.536 261.547 198.936 261.88C199.349 262.213 199.862 262.38 200.476 262.38C201.116 262.38 201.609 262.253 201.956 262C202.316 261.733 202.496 261.38 202.496 260.94C202.496 260.54 202.296 260.233 201.896 260.02C201.496 259.807 200.876 259.593 200.036 259.38C199.222 259.153 198.556 258.94 198.036 258.74C197.529 258.527 197.089 258.207 196.716 257.78C196.342 257.34 196.156 256.773 196.156 256.08C196.156 255.48 196.322 254.933 196.656 254.44C196.989 253.933 197.469 253.533 198.096 253.24C198.736 252.947 199.482 252.8 200.336 252.8C201.589 252.8 202.596 253.12 203.356 253.76C204.129 254.387 204.542 255.247 204.596 256.34H202.316C202.276 255.807 202.076 255.387 201.716 255.08C201.356 254.76 200.869 254.6 200.256 254.6C199.656 254.6 199.196 254.727 198.876 254.98C198.556 255.22 198.396 255.547 198.396 255.96C198.396 256.253 198.502 256.5 198.716 256.7C198.929 256.9 199.196 257.06 199.516 257.18C199.836 257.287 200.289 257.42 200.876 257.58C201.676 257.793 202.329 258.007 202.836 258.22C203.342 258.433 203.776 258.76 204.136 259.2C204.496 259.627 204.676 260.187 204.676 260.88C204.676 261.507 204.509 262.073 204.176 262.58C203.842 263.073 203.356 263.467 202.716 263.76C202.089 264.04 201.342 264.18 200.476 264.18ZM210.739 249.9C212.099 249.9 213.186 250.273 213.999 251.02C214.826 251.767 215.239 252.787 215.239 254.08C215.239 255.427 214.813 256.44 213.959 257.12C213.106 257.8 211.973 258.14 210.559 258.14L210.479 259.72H208.499L208.399 256.58H209.059C210.353 256.58 211.339 256.407 212.019 256.06C212.713 255.713 213.059 255.053 213.059 254.08C213.059 253.373 212.853 252.82 212.439 252.42C212.039 252.02 211.479 251.82 210.759 251.82C210.039 251.82 209.473 252.013 209.059 252.4C208.646 252.787 208.439 253.327 208.439 254.02H206.299C206.299 253.22 206.479 252.507 206.839 251.88C207.199 251.253 207.713 250.767 208.379 250.42C209.059 250.073 209.846 249.9 210.739 249.9ZM209.459 264.14C209.046 264.14 208.699 264 208.419 263.72C208.139 263.44 207.999 263.093 207.999 262.68C207.999 262.267 208.139 261.92 208.419 261.64C208.699 261.36 209.046 261.22 209.459 261.22C209.859 261.22 210.199 261.36 210.479 261.64C210.759 261.92 210.899 262.267 210.899 262.68C210.899 263.093 210.759 263.44 210.479 263.72C210.199 264 209.859 264.14 209.459 264.14ZM232.801 255.8V257.72H217.801V255.8H232.801ZM246.937 250.1V264H244.657V257.86H238.117V264H235.837V250.1H238.117V256.1H244.657V250.1H246.937ZM254.519 264.18C253.479 264.18 252.539 263.947 251.699 263.48C250.859 263 250.199 262.333 249.719 261.48C249.239 260.613 248.999 259.613 248.999 258.48C248.999 257.36 249.246 256.367 249.739 255.5C250.232 254.633 250.906 253.967 251.759 253.5C252.612 253.033 253.566 252.8 254.619 252.8C255.672 252.8 256.626 253.033 257.479 253.5C258.332 253.967 259.006 254.633 259.499 255.5C259.992 256.367 260.239 257.36 260.239 258.48C260.239 259.6 259.986 260.593 259.479 261.46C258.972 262.327 258.279 263 257.399 263.48C256.532 263.947 255.572 264.18 254.519 264.18ZM254.519 262.26C255.106 262.26 255.652 262.113 256.159 261.82C256.679 261.527 257.099 261.1 257.419 260.54C257.739 259.967 257.899 259.28 257.899 258.48C257.899 257.68 257.746 257 257.439 256.44C257.132 255.867 256.726 255.44 256.219 255.16C255.712 254.867 255.166 254.72 254.579 254.72C253.992 254.72 253.452 254.867 252.959 255.16C252.466 255.44 252.066 255.867 251.759 256.44C251.466 257 251.319 257.68 251.319 258.48C251.319 259.28 251.459 259.967 251.739 260.54C252.032 261.113 252.419 261.547 252.899 261.84C253.392 262.12 253.932 262.26 254.519 262.26ZM277.093 252.98L273.673 264H271.273L269.053 255.86L266.833 264H264.433L260.993 252.98H263.313L265.613 261.84L267.953 252.98H270.333L272.573 261.8L274.853 252.98H277.093ZM283.633 258.44C283.633 257.333 283.86 256.353 284.313 255.5C284.78 254.647 285.406 253.987 286.193 253.52C286.993 253.04 287.873 252.8 288.833 252.8C289.7 252.8 290.453 252.973 291.093 253.32C291.746 253.653 292.266 254.073 292.653 254.58V252.98H294.953V264H292.653V262.36C292.266 262.88 291.74 263.313 291.073 263.66C290.406 264.007 289.646 264.18 288.793 264.18C287.846 264.18 286.98 263.94 286.193 263.46C285.406 262.967 284.78 262.287 284.313 261.42C283.86 260.54 283.633 259.547 283.633 258.44ZM292.653 258.48C292.653 257.72 292.493 257.06 292.173 256.5C291.866 255.94 291.46 255.513 290.953 255.22C290.446 254.927 289.9 254.78 289.313 254.78C288.726 254.78 288.18 254.927 287.673 255.22C287.166 255.5 286.753 255.92 286.433 256.48C286.126 257.027 285.973 257.68 285.973 258.44C285.973 259.2 286.126 259.867 286.433 260.44C286.753 261.013 287.166 261.453 287.673 261.76C288.193 262.053 288.74 262.2 289.313 262.2C289.9 262.2 290.446 262.053 290.953 261.76C291.46 261.467 291.866 261.04 292.173 260.48C292.493 259.907 292.653 259.24 292.653 258.48ZM300.028 254.9C300.361 254.233 300.801 253.72 301.348 253.36C301.908 252.987 302.568 252.8 303.328 252.8V255.16H302.748C301.854 255.16 301.174 255.387 300.708 255.84C300.254 256.293 300.028 257.08 300.028 258.2V264H297.748V252.98H300.028V254.9ZM315.323 258.18C315.323 258.567 315.297 258.927 315.243 259.26H306.803C306.87 260.18 307.197 260.913 307.783 261.46C308.37 261.993 309.097 262.26 309.963 262.26C311.19 262.26 312.057 261.747 312.563 260.72H315.023C314.69 261.733 314.083 262.567 313.203 263.22C312.337 263.86 311.257 264.18 309.963 264.18C308.91 264.18 307.963 263.947 307.123 263.48C306.297 263 305.643 262.333 305.163 261.48C304.697 260.613 304.463 259.613 304.463 258.48C304.463 257.347 304.69 256.353 305.143 255.5C305.61 254.633 306.257 253.967 307.083 253.5C307.923 253.033 308.883 252.8 309.963 252.8C311.003 252.8 311.93 253.027 312.743 253.48C313.557 253.933 314.19 254.567 314.643 255.38C315.097 256.193 315.323 257.127 315.323 258.18ZM312.943 257.62C312.93 256.727 312.63 256.02 312.043 255.5C311.47 254.98 310.743 254.72 309.863 254.72C309.063 254.72 308.377 254.98 307.803 255.5C307.243 256.02 306.917 256.727 306.823 257.62H312.943ZM36.16 278.84V284.94C36.16 285.353 36.2533 285.653 36.44 285.84C36.64 286.013 36.9733 286.1 37.44 286.1H38.84V288H37.04C36.0133 288 35.2267 287.76 34.68 287.28C34.1333 286.8 33.86 286.02 33.86 284.94V278.84H32.56V276.98H33.86V274.24H36.16V276.98H38.84V278.84H36.16ZM46.4414 276.8C47.2814 276.8 48.0281 276.98 48.6814 277.34C49.3481 277.7 49.8681 278.233 50.2414 278.94C50.6281 279.647 50.8214 280.5 50.8214 281.5V288H48.5614V281.84C48.5614 280.853 48.3147 280.1 47.8214 279.58C47.3281 279.047 46.6547 278.78 45.8014 278.78C44.9481 278.78 44.2681 279.047 43.7614 279.58C43.2681 280.1 43.0214 280.853 43.0214 281.84V288H40.7414L40.7414 273.2H43.0214V278.26C43.4081 277.793 43.8947 277.433 44.4814 277.18C45.0814 276.927 45.7347 276.8 46.4414 276.8ZM63.6297 282.18C63.6297 282.567 63.603 282.927 63.5497 283.26H55.1097C55.1764 284.18 55.503 284.913 56.0897 285.46C56.6764 285.993 57.403 286.26 58.2697 286.26C59.4964 286.26 60.363 285.747 60.8697 284.72H63.3297C62.9964 285.733 62.3897 286.567 61.5097 287.22C60.643 287.86 59.563 288.18 58.2697 288.18C57.2164 288.18 56.2697 287.947 55.4297 287.48C54.603 287 53.9497 286.333 53.4697 285.48C53.003 284.613 52.7697 283.613 52.7697 282.48C52.7697 281.347 52.9964 280.353 53.4497 279.5C53.9164 278.633 54.563 277.967 55.3897 277.5C56.2297 277.033 57.1897 276.8 58.2697 276.8C59.3097 276.8 60.2364 277.027 61.0497 277.48C61.863 277.933 62.4964 278.567 62.9497 279.38C63.403 280.193 63.6297 281.127 63.6297 282.18ZM61.2497 281.62C61.2364 280.727 60.9364 280.02 60.3497 279.5C59.7764 278.98 59.0497 278.72 58.1697 278.72C57.3697 278.72 56.683 278.98 56.1097 279.5C55.5497 280.02 55.223 280.727 55.1297 281.62H61.2497ZM66.9134 276.98L70.0134 285.38L73.2334 276.98H75.5934L68.8334 293.18H66.4734L68.7134 287.82L64.3734 276.98H66.9134ZM85.1902 278.6C85.5768 278.093 86.1035 277.667 86.7702 277.32C87.4368 276.973 88.1902 276.8 89.0302 276.8C89.9902 276.8 90.8635 277.04 91.6502 277.52C92.4502 277.987 93.0768 278.647 93.5302 279.5C93.9835 280.353 94.2102 281.333 94.2102 282.44C94.2102 283.547 93.9835 284.54 93.5302 285.42C93.0768 286.287 92.4502 286.967 91.6502 287.46C90.8635 287.94 89.9902 288.18 89.0302 288.18C88.1902 288.18 87.4435 288.013 86.7902 287.68C86.1368 287.333 85.6035 286.907 85.1902 286.4V293.24H82.9102V276.98H85.1902V278.6ZM91.8902 282.44C91.8902 281.68 91.7302 281.027 91.4102 280.48C91.1035 279.92 90.6902 279.5 90.1702 279.22C89.6635 278.927 89.1168 278.78 88.5302 278.78C87.9568 278.78 87.4102 278.927 86.8902 279.22C86.3835 279.513 85.9702 279.94 85.6502 280.5C85.3435 281.06 85.1902 281.72 85.1902 282.48C85.1902 283.24 85.3435 283.907 85.6502 284.48C85.9702 285.04 86.3835 285.467 86.8902 285.76C87.4102 286.053 87.9568 286.2 88.5302 286.2C89.1168 286.2 89.6635 286.053 90.1702 285.76C90.6902 285.453 91.1035 285.013 91.4102 284.44C91.7302 283.867 91.8902 283.2 91.8902 282.44ZM98.5448 278.9C98.8782 278.233 99.3182 277.72 99.8648 277.36C100.425 276.987 101.085 276.8 101.845 276.8V279.16H101.265C100.372 279.16 99.6915 279.387 99.2248 279.84C98.7715 280.293 98.5448 281.08 98.5448 282.2V288H96.2648V276.98H98.5448V278.9ZM113.841 282.18C113.841 282.567 113.814 282.927 113.761 283.26H105.321C105.387 284.18 105.714 284.913 106.301 285.46C106.887 285.993 107.614 286.26 108.481 286.26C109.707 286.26 110.574 285.747 111.081 284.72H113.541C113.207 285.733 112.601 286.567 111.721 287.22C110.854 287.86 109.774 288.18 108.481 288.18C107.427 288.18 106.481 287.947 105.641 287.48C104.814 287 104.161 286.333 103.681 285.48C103.214 284.613 102.981 283.613 102.981 282.48C102.981 281.347 103.207 280.353 103.661 279.5C104.127 278.633 104.774 277.967 105.601 277.5C106.441 277.033 107.401 276.8 108.481 276.8C109.521 276.8 110.447 277.027 111.261 277.48C112.074 277.933 112.707 278.567 113.161 279.38C113.614 280.193 113.841 281.127 113.841 282.18ZM111.461 281.62C111.447 280.727 111.147 280.02 110.561 279.5C109.987 278.98 109.261 278.72 108.381 278.72C107.581 278.72 106.894 278.98 106.321 279.5C105.761 280.02 105.434 280.727 105.341 281.62H111.461ZM119.844 288.18C118.991 288.18 118.224 288.027 117.544 287.72C116.864 287.4 116.324 286.973 115.924 286.44C115.524 285.893 115.311 285.287 115.284 284.62H117.644C117.684 285.127 117.904 285.547 118.304 285.88C118.718 286.213 119.231 286.38 119.844 286.38C120.484 286.38 120.978 286.253 121.324 286C121.684 285.733 121.864 285.38 121.864 284.94C121.864 284.54 121.664 284.233 121.264 284.02C120.864 283.807 120.244 283.593 119.404 283.38C118.591 283.153 117.924 282.94 117.404 282.74C116.898 282.527 116.458 282.207 116.084 281.78C115.711 281.34 115.524 280.773 115.524 280.08C115.524 279.48 115.691 278.933 116.024 278.44C116.358 277.933 116.838 277.533 117.464 277.24C118.104 276.947 118.851 276.8 119.704 276.8C120.958 276.8 121.964 277.12 122.724 277.76C123.498 278.387 123.911 279.247 123.964 280.34H121.684C121.644 279.807 121.444 279.387 121.084 279.08C120.724 278.76 120.238 278.6 119.624 278.6C119.024 278.6 118.564 278.727 118.244 278.98C117.924 279.22 117.764 279.547 117.764 279.96C117.764 280.253 117.871 280.5 118.084 280.7C118.298 280.9 118.564 281.06 118.884 281.18C119.204 281.287 119.658 281.42 120.244 281.58C121.044 281.793 121.698 282.007 122.204 282.22C122.711 282.433 123.144 282.76 123.504 283.2C123.864 283.627 124.044 284.187 124.044 284.88C124.044 285.507 123.878 286.073 123.544 286.58C123.211 287.073 122.724 287.467 122.084 287.76C121.458 288.04 120.711 288.18 119.844 288.18ZM136.468 282.18C136.468 282.567 136.441 282.927 136.388 283.26H127.948C128.015 284.18 128.341 284.913 128.928 285.46C129.515 285.993 130.241 286.26 131.108 286.26C132.335 286.26 133.201 285.747 133.708 284.72H136.168C135.835 285.733 135.228 286.567 134.348 287.22C133.481 287.86 132.401 288.18 131.108 288.18C130.055 288.18 129.108 287.947 128.268 287.48C127.441 287 126.788 286.333 126.308 285.48C125.841 284.613 125.608 283.613 125.608 282.48C125.608 281.347 125.835 280.353 126.288 279.5C126.755 278.633 127.401 277.967 128.228 277.5C129.068 277.033 130.028 276.8 131.108 276.8C132.148 276.8 133.075 277.027 133.888 277.48C134.701 277.933 135.335 278.567 135.788 279.38C136.241 280.193 136.468 281.127 136.468 282.18ZM134.088 281.62C134.075 280.727 133.775 280.02 133.188 279.5C132.615 278.98 131.888 278.72 131.008 278.72C130.208 278.72 129.521 278.98 128.948 279.5C128.388 280.02 128.061 280.727 127.968 281.62H134.088ZM144.072 276.8C144.938 276.8 145.712 276.98 146.392 277.34C147.085 277.7 147.625 278.233 148.012 278.94C148.398 279.647 148.592 280.5 148.592 281.5V288H146.332V281.84C146.332 280.853 146.085 280.1 145.592 279.58C145.098 279.047 144.425 278.78 143.572 278.78C142.718 278.78 142.038 279.047 141.532 279.58C141.038 280.1 140.792 280.853 140.792 281.84V288H138.512V276.98H140.792V278.24C141.165 277.787 141.638 277.433 142.212 277.18C142.798 276.927 143.418 276.8 144.072 276.8ZM153.96 278.84V284.94C153.96 285.353 154.053 285.653 154.24 285.84C154.44 286.013 154.773 286.1 155.24 286.1H156.64V288H154.84C153.813 288 153.027 287.76 152.48 287.28C151.933 286.8 151.66 286.02 151.66 284.94V278.84H150.36V276.98H151.66V274.24H153.96V276.98H156.64V278.84H153.96ZM168.641 282.18C168.641 282.567 168.615 282.927 168.561 283.26H160.121C160.188 284.18 160.515 284.913 161.101 285.46C161.688 285.993 162.415 286.26 163.281 286.26C164.508 286.26 165.375 285.747 165.881 284.72H168.341C168.008 285.733 167.401 286.567 166.521 287.22C165.655 287.86 164.575 288.18 163.281 288.18C162.228 288.18 161.281 287.947 160.441 287.48C159.615 287 158.961 286.333 158.481 285.48C158.015 284.613 157.781 283.613 157.781 282.48C157.781 281.347 158.008 280.353 158.461 279.5C158.928 278.633 159.575 277.967 160.401 277.5C161.241 277.033 162.201 276.8 163.281 276.8C164.321 276.8 165.248 277.027 166.061 277.48C166.875 277.933 167.508 278.567 167.961 279.38C168.415 280.193 168.641 281.127 168.641 282.18ZM166.261 281.62C166.248 280.727 165.948 280.02 165.361 279.5C164.788 278.98 164.061 278.72 163.181 278.72C162.381 278.72 161.695 278.98 161.121 279.5C160.561 280.02 160.235 280.727 160.141 281.62H166.261ZM169.925 282.44C169.925 281.333 170.152 280.353 170.605 279.5C171.072 278.647 171.698 277.987 172.485 277.52C173.285 277.04 174.172 276.8 175.145 276.8C175.865 276.8 176.572 276.96 177.265 277.28C177.972 277.587 178.532 278 178.945 278.52V273.2H181.245V288H178.945V286.34C178.572 286.873 178.052 287.313 177.385 287.66C176.732 288.007 175.978 288.18 175.125 288.18C174.165 288.18 173.285 287.94 172.485 287.46C171.698 286.967 171.072 286.287 170.605 285.42C170.152 284.54 169.925 283.547 169.925 282.44ZM178.945 282.48C178.945 281.72 178.785 281.06 178.465 280.5C178.158 279.94 177.752 279.513 177.245 279.22C176.738 278.927 176.192 278.78 175.605 278.78C175.018 278.78 174.472 278.927 173.965 279.22C173.458 279.5 173.045 279.92 172.725 280.48C172.418 281.027 172.265 281.68 172.265 282.44C172.265 283.2 172.418 283.867 172.725 284.44C173.045 285.013 173.458 285.453 173.965 285.76C174.485 286.053 175.032 286.2 175.605 286.2C176.192 286.2 176.738 286.053 177.245 285.76C177.752 285.467 178.158 285.04 178.465 284.48C178.785 283.907 178.945 283.24 178.945 282.48ZM187.78 273.9C189.14 273.9 190.227 274.273 191.04 275.02C191.867 275.767 192.28 276.787 192.28 278.08C192.28 279.427 191.853 280.44 191 281.12C190.147 281.8 189.013 282.14 187.6 282.14L187.52 283.72H185.54L185.44 280.58H186.1C187.393 280.58 188.38 280.407 189.06 280.06C189.753 279.713 190.1 279.053 190.1 278.08C190.1 277.373 189.893 276.82 189.48 276.42C189.08 276.02 188.52 275.82 187.8 275.82C187.08 275.82 186.513 276.013 186.1 276.4C185.687 276.787 185.48 277.327 185.48 278.02H183.34C183.34 277.22 183.52 276.507 183.88 275.88C184.24 275.253 184.753 274.767 185.42 274.42C186.1 274.073 186.887 273.9 187.78 273.9ZM186.5 288.14C186.087 288.14 185.74 288 185.46 287.72C185.18 287.44 185.04 287.093 185.04 286.68C185.04 286.267 185.18 285.92 185.46 285.64C185.74 285.36 186.087 285.22 186.5 285.22C186.9 285.22 187.24 285.36 187.52 285.64C187.8 285.92 187.94 286.267 187.94 286.68C187.94 287.093 187.8 287.44 187.52 287.72C187.24 288 186.9 288.14 186.5 288.14Z" fill="white"/>
<path d="M41.936 456.048H32.656V456.592L34.096 456.72C34.144 458.368 34.144 460.016 34.144 461.68V462.384C34.144 464.048 34.144 465.696 34.096 467.312L32.656 467.456V468H38.592V467.456L36.88 467.28C36.848 465.648 36.848 463.984 36.848 462.24V462.192H39.056L39.28 463.968H40.08V459.84H39.28L39.04 461.616H36.848C36.848 459.92 36.848 458.272 36.88 456.672H40.256L40.992 459.232H41.904L41.936 456.048ZM46.6193 468.272C49.3393 468.272 51.1633 466.448 51.1633 463.584C51.1633 460.72 49.1473 458.992 46.6193 458.992C44.1073 458.992 42.0913 460.752 42.0913 463.584C42.0913 466.4 43.8832 468.272 46.6193 468.272ZM46.6193 467.712C45.4673 467.712 44.8273 466.4 44.8273 463.616C44.8273 460.816 45.4673 459.552 46.6193 459.552C47.7713 459.552 48.3953 460.816 48.3953 463.616C48.3953 466.4 47.7713 467.712 46.6193 467.712ZM55.7988 459.168L55.5748 459.008L52.1028 460.016V460.4L53.3028 460.528C53.3348 461.296 53.3508 461.824 53.3508 462.864V464.192C53.3508 465.088 53.3348 466.464 53.3188 467.392L52.2308 467.504V468H57.4308V467.504L55.9588 467.36C55.9427 466.416 55.9268 465.072 55.9268 464.192V462.864C56.2308 461.68 56.6148 460.992 57.2548 460.4L57.3988 460.592C57.8308 461.168 58.2148 461.552 58.8228 461.552C59.6228 461.552 59.9427 460.96 60.0068 460.256C59.8468 459.296 59.2068 458.992 58.4548 458.992C57.4948 458.992 56.4068 459.824 55.9268 461.456L55.7988 459.168ZM75.0553 467.408C75.0393 466.496 75.0233 465.136 75.0233 464.192V462.176C75.0233 460 74.2073 458.992 72.4153 458.992C71.3753 458.992 70.5113 459.392 69.4553 460.656C69.1193 459.536 68.3033 458.992 67.1033 458.992C66.0153 458.992 65.1513 459.488 64.2233 460.592L64.1113 459.168L63.8873 459.008L60.4153 460.016V460.384L61.6153 460.512C61.6473 461.296 61.6633 461.808 61.6633 462.864V464.192C61.6633 465.088 61.6473 466.464 61.6313 467.408L60.5592 467.504V468H65.1833V467.504L64.2713 467.424C64.2552 466.48 64.2393 465.088 64.2393 464.192V461.136C64.8153 460.576 65.4233 460.208 65.9993 460.208C66.7673 460.208 67.1033 460.72 67.1033 462.032V464.192C67.1033 465.12 67.0873 466.48 67.0713 467.408L66.0473 467.504V468H70.5753V467.504L69.6793 467.424C69.6473 466.496 69.6313 465.136 69.6313 464.192V462.08C69.6313 461.744 69.6153 461.44 69.5673 461.152C70.1753 460.544 70.7673 460.208 71.3593 460.208C72.1273 460.208 72.4793 460.624 72.4793 462.032V464.192C72.4793 465.12 72.4633 466.48 72.4473 467.408L71.4873 467.504V468H76.0153V467.504L75.0553 467.408ZM79.1575 468.256C79.9735 468.256 80.6295 467.616 80.6295 466.816C80.6295 466.032 79.9735 465.36 79.1575 465.36C78.3415 465.36 77.6855 466.032 77.6855 466.816C77.6855 467.616 78.3415 468.256 79.1575 468.256ZM91.8584 464.496H90.9144L90.0664 467.488C89.6664 467.632 89.2664 467.696 88.8184 467.696C86.4984 467.696 84.7544 465.984 84.7544 462.032C84.7544 458.096 86.5144 456.336 88.7544 456.336C89.1704 456.336 89.5544 456.384 89.9224 456.496L90.8024 459.552H91.7464L91.8104 456.64C90.7704 456.064 89.7944 455.728 88.4184 455.728C84.9464 455.728 81.9224 457.744 81.9224 462.016C81.9224 466.24 84.7544 468.32 88.2904 468.32C89.7784 468.32 90.9464 467.952 91.9224 467.376L91.8584 464.496ZM98.1625 466.448C97.5705 466.976 97.2025 467.184 96.7705 467.184C96.0185 467.184 95.5705 466.736 95.5705 465.776C95.5705 464.608 96.1625 463.856 97.2825 463.392C97.4745 463.312 97.7945 463.216 98.1625 463.12V466.448ZM94.7385 459.936L94.9945 459.84L94.7385 459.936ZM101.875 466.8C101.571 467.28 101.395 467.408 101.155 467.408C100.851 467.408 100.659 467.2 100.659 466.592V462.288C100.659 459.968 99.7465 458.992 97.4745 458.992C94.9945 458.992 93.6025 459.952 93.4745 461.456C93.6025 461.984 94.0025 462.272 94.5785 462.272C95.1865 462.272 95.7305 461.84 95.7785 460.752L95.8905 459.616C96.1305 459.568 96.3385 459.552 96.5625 459.552C97.7785 459.552 98.1625 460.048 98.1625 461.712V462.688C97.6025 462.832 97.0425 462.976 96.5945 463.104C94.0185 463.856 93.1865 464.64 93.1865 466.096C93.1865 467.44 94.1465 468.272 95.5225 468.272C96.8025 468.272 97.4105 467.776 98.2265 466.88C98.4665 467.744 99.0585 468.272 100.115 468.272C101.139 468.272 101.747 467.904 102.147 467.024L101.875 466.8ZM106.221 459.168L105.997 459.008L102.525 460.016V460.4L103.725 460.528C103.757 461.296 103.773 461.824 103.773 462.864V464.192C103.773 465.088 103.757 466.464 103.741 467.392L102.653 467.504V468H107.853V467.504L106.381 467.36C106.365 466.416 106.349 465.072 106.349 464.192V462.864C106.653 461.68 107.037 460.992 107.677 460.4L107.821 460.592C108.253 461.168 108.637 461.552 109.245 461.552C110.045 461.552 110.365 460.96 110.429 460.256C110.269 459.296 109.629 458.992 108.877 458.992C107.917 458.992 106.829 459.824 106.349 461.456L106.221 459.168ZM116.829 466.72C116.445 467.024 116.029 467.136 115.581 467.136C114.349 467.136 113.421 466.208 113.421 463.6C113.421 460.912 114.429 460.096 115.645 460.096C116.045 460.096 116.445 460.208 116.829 460.512V466.72ZM119.405 467.44V457.488L119.469 454.928L119.245 454.784L115.613 455.472V455.888L116.925 456.016V460.08C116.301 459.344 115.565 458.992 114.637 458.992C112.445 458.992 110.669 460.688 110.669 463.696C110.669 466.592 112.317 468.272 114.413 468.272C115.389 468.272 116.221 467.872 116.893 467.2L117.021 468.192L120.445 468V467.504L119.405 467.44ZM125.227 462.352C123.979 461.968 123.659 461.488 123.659 460.896C123.659 460.096 124.299 459.6 125.275 459.6C125.755 459.6 126.091 459.68 126.427 459.84L127.035 461.728H127.931L128.059 459.712C127.115 459.248 126.299 458.992 125.227 458.992C122.875 458.992 121.563 460.208 121.563 461.888C121.563 463.248 122.411 464.064 123.851 464.512L124.779 464.784C126.059 465.184 126.363 465.664 126.363 466.336C126.363 467.216 125.691 467.648 124.475 467.648C123.963 467.648 123.563 467.568 123.163 467.408L122.667 465.296H121.643L121.515 467.472C122.459 468 123.435 468.272 124.683 468.272C127.099 468.272 128.587 467.184 128.587 465.328C128.587 464.016 127.851 463.12 126.171 462.624L125.227 462.352Z" fill="white"/>
<path d="M198.575 49.4C198.575 46.928 199.127 44.72 200.231 42.776C201.359 40.808 202.883 39.284 204.803 38.204C206.747 37.1 208.919 36.548 211.319 36.548C214.127 36.548 216.587 37.268 218.699 38.708C220.811 40.148 222.287 42.14 223.127 44.684H217.331C216.731 43.532 215.915 42.668 214.883 42.092C213.851 41.492 212.651 41.192 211.283 41.192C209.819 41.192 208.511 41.528 207.359 42.2C206.231 42.872 205.343 43.832 204.695 45.08C204.071 46.328 203.759 47.768 203.759 49.4C203.759 51.032 204.071 52.472 204.695 53.72C205.343 54.944 206.231 55.904 207.359 56.6C208.511 57.272 209.819 57.608 211.283 57.608C212.651 57.608 213.851 57.308 214.883 56.708C215.939 56.108 216.755 55.232 217.331 54.08H223.127C222.287 56.648 220.811 58.652 218.699 60.092C216.611 61.508 214.151 62.216 211.319 62.216C208.919 62.216 206.747 61.676 204.803 60.596C202.883 59.492 201.359 57.968 200.231 56.024C199.127 54.08 198.575 51.872 198.575 49.4ZM239.064 41.768C240.576 41.768 241.92 42.104 243.096 42.776C244.272 43.424 245.184 44.396 245.832 45.692C246.504 46.964 246.84 48.5 246.84 50.3V62H241.8V50.984C241.8 49.4 241.404 48.188 240.612 47.348C239.82 46.484 238.74 46.052 237.372 46.052C235.98 46.052 234.876 46.484 234.06 47.348C233.268 48.188 232.872 49.4 232.872 50.984V62H227.832V35.36H232.872V44.54C233.52 43.676 234.384 43.004 235.464 42.524C236.544 42.02 237.744 41.768 239.064 41.768ZM260.888 62.324C258.968 62.324 257.24 61.904 255.704 61.064C254.168 60.2 252.956 58.988 252.068 57.428C251.204 55.868 250.772 54.068 250.772 52.028C250.772 49.988 251.216 48.188 252.104 46.628C253.016 45.068 254.252 43.868 255.812 43.028C257.372 42.164 259.112 41.732 261.032 41.732C262.952 41.732 264.692 42.164 266.252 43.028C267.812 43.868 269.036 45.068 269.924 46.628C270.836 48.188 271.292 49.988 271.292 52.028C271.292 54.068 270.824 55.868 269.888 57.428C268.976 58.988 267.728 60.2 266.144 61.064C264.584 61.904 262.832 62.324 260.888 62.324ZM260.888 58.004C261.8 58.004 262.652 57.776 263.444 57.32C264.26 56.864 264.908 56.192 265.388 55.304C265.868 54.392 266.108 53.3 266.108 52.028C266.108 50.756 265.868 49.676 265.388 48.788C264.908 47.876 264.272 47.192 263.48 46.736C262.712 46.28 261.872 46.052 260.96 46.052C259.544 46.052 258.344 46.58 257.36 47.636C256.376 48.668 255.884 50.132 255.884 52.028C255.884 53.924 256.364 55.4 257.324 56.456C258.284 57.488 259.472 58.004 260.888 58.004ZM277.945 39.68C277.057 39.68 276.313 39.404 275.713 38.852C275.137 38.276 274.849 37.568 274.849 36.728C274.849 35.888 275.137 35.192 275.713 34.64C276.313 34.064 277.057 33.776 277.945 33.776C278.833 33.776 279.565 34.064 280.141 34.64C280.741 35.192 281.041 35.888 281.041 36.728C281.041 37.568 280.741 38.276 280.141 38.852C279.565 39.404 278.833 39.68 277.945 39.68ZM280.429 42.056V62H275.389V42.056H280.429ZM284.513 52.028C284.513 49.964 284.933 48.164 285.773 46.628C286.613 45.068 287.777 43.868 289.265 43.028C290.753 42.164 292.457 41.732 294.377 41.732C296.849 41.732 298.889 42.356 300.497 43.604C302.129 44.828 303.221 46.556 303.773 48.788H298.337C298.049 47.924 297.557 47.252 296.861 46.772C296.189 46.268 295.349 46.016 294.341 46.016C292.901 46.016 291.761 46.544 290.921 47.6C290.081 48.632 289.661 50.108 289.661 52.028C289.661 53.924 290.081 55.4 290.921 56.456C291.761 57.488 292.901 58.004 294.341 58.004C296.381 58.004 297.713 57.092 298.337 55.268H303.773C303.221 57.428 302.129 59.144 300.497 60.416C298.865 61.688 296.825 62.324 294.377 62.324C292.457 62.324 290.753 61.904 289.265 61.064C287.777 60.2 286.613 59 285.773 57.464C284.933 55.904 284.513 54.092 284.513 52.028ZM326.405 51.56C326.405 52.232 326.357 52.856 326.261 53.432H311.681C311.777 54.896 312.269 56.048 313.157 56.888C314.045 57.728 315.149 58.148 316.469 58.148C318.341 58.148 319.673 57.344 320.465 55.736H325.901C325.325 57.656 324.221 59.24 322.589 60.488C320.957 61.712 318.953 62.324 316.577 62.324C314.657 62.324 312.929 61.904 311.393 61.064C309.881 60.2 308.693 58.988 307.829 57.428C306.989 55.868 306.569 54.068 306.569 52.028C306.569 49.964 306.989 48.152 307.829 46.592C308.669 45.032 309.845 43.832 311.357 42.992C312.869 42.152 314.609 41.732 316.577 41.732C318.473 41.732 320.165 42.14 321.653 42.956C323.165 43.772 324.329 44.924 325.145 46.412C325.985 47.9 326.405 49.616 326.405 51.56ZM321.185 50.372C321.161 48.98 320.693 47.888 319.781 47.096C318.893 46.28 317.777 45.872 316.433 45.872C315.161 45.872 314.093 46.28 313.229 47.096C312.365 47.888 311.849 48.98 311.681 50.372H321.185ZM134.725 97.212H124.717L123.061 102H117.769L126.805 76.836H132.673L141.709 102H136.381L134.725 97.212ZM133.393 93.288L129.721 82.668L126.049 93.288H133.393ZM153.802 97.356L158.842 82.056H164.242L156.898 102H150.706L143.362 82.056H148.762L153.802 97.356ZM166.141 91.956C166.141 89.94 166.537 88.152 167.329 86.592C168.145 85.032 169.237 83.832 170.605 82.992C171.997 82.152 173.545 81.732 175.249 81.732C176.737 81.732 178.033 82.032 179.137 82.632C180.265 83.232 181.165 83.988 181.837 84.9V82.056H186.913V102H181.837V99.084C181.189 100.02 180.289 100.8 179.137 101.424C178.009 102.024 176.701 102.324 175.213 102.324C173.533 102.324 171.997 101.892 170.605 101.028C169.237 100.164 168.145 98.952 167.329 97.392C166.537 95.808 166.141 93.996 166.141 91.956ZM181.837 92.028C181.837 90.804 181.597 89.76 181.117 88.896C180.637 88.008 179.989 87.336 179.173 86.88C178.357 86.4 177.481 86.16 176.545 86.16C175.609 86.16 174.745 86.388 173.953 86.844C173.161 87.3 172.513 87.972 172.009 88.86C171.529 89.724 171.289 90.756 171.289 91.956C171.289 93.156 171.529 94.212 172.009 95.124C172.513 96.012 173.161 96.696 173.953 97.176C174.769 97.656 175.633 97.896 176.545 97.896C177.481 97.896 178.357 97.668 179.173 97.212C179.989 96.732 180.637 96.06 181.117 95.196C181.597 94.308 181.837 93.252 181.837 92.028ZM194.792 79.68C193.904 79.68 193.16 79.404 192.56 78.852C191.984 78.276 191.696 77.568 191.696 76.728C191.696 75.888 191.984 75.192 192.56 74.64C193.16 74.064 193.904 73.776 194.792 73.776C195.68 73.776 196.412 74.064 196.988 74.64C197.588 75.192 197.888 75.888 197.888 76.728C197.888 77.568 197.588 78.276 196.988 78.852C196.412 79.404 195.68 79.68 194.792 79.68ZM197.276 82.056V102H192.236V82.056H197.276ZM207.695 75.36V102H202.655V75.36H207.695ZM211.779 91.956C211.779 89.94 212.175 88.152 212.967 86.592C213.783 85.032 214.875 83.832 216.243 82.992C217.635 82.152 219.183 81.732 220.887 81.732C222.375 81.732 223.671 82.032 224.775 82.632C225.903 83.232 226.803 83.988 227.475 84.9V82.056H232.551V102H227.475V99.084C226.827 100.02 225.927 100.8 224.775 101.424C223.647 102.024 222.339 102.324 220.851 102.324C219.171 102.324 217.635 101.892 216.243 101.028C214.875 100.164 213.783 98.952 212.967 97.392C212.175 95.808 211.779 93.996 211.779 91.956ZM227.475 92.028C227.475 90.804 227.235 89.76 226.755 88.896C226.275 88.008 225.627 87.336 224.811 86.88C223.995 86.4 223.119 86.16 222.183 86.16C221.247 86.16 220.383 86.388 219.591 86.844C218.799 87.3 218.151 87.972 217.647 88.86C217.167 89.724 216.927 90.756 216.927 91.956C216.927 93.156 217.167 94.212 217.647 95.124C218.151 96.012 218.799 96.696 219.591 97.176C220.407 97.656 221.271 97.896 222.183 97.896C223.119 97.896 223.995 97.668 224.811 97.212C225.627 96.732 226.275 96.06 226.755 95.196C227.235 94.308 227.475 93.252 227.475 92.028ZM242.913 84.972C243.561 84.012 244.449 83.232 245.577 82.632C246.729 82.032 248.037 81.732 249.501 81.732C251.205 81.732 252.741 82.152 254.109 82.992C255.501 83.832 256.593 85.032 257.385 86.592C258.201 88.128 258.609 89.916 258.609 91.956C258.609 93.996 258.201 95.808 257.385 97.392C256.593 98.952 255.501 100.164 254.109 101.028C252.741 101.892 251.205 102.324 249.501 102.324C248.013 102.324 246.705 102.036 245.577 101.46C244.473 100.86 243.585 100.092 242.913 99.156V102H237.873V75.36H242.913V84.972ZM253.461 91.956C253.461 90.756 253.209 89.724 252.705 88.86C252.225 87.972 251.577 87.3 250.761 86.844C249.969 86.388 249.105 86.16 248.169 86.16C247.257 86.16 246.393 86.4 245.577 86.88C244.785 87.336 244.137 88.008 243.633 88.896C243.153 89.784 242.913 90.828 242.913 92.028C242.913 93.228 243.153 94.272 243.633 95.16C244.137 96.048 244.785 96.732 245.577 97.212C246.393 97.668 247.257 97.896 248.169 97.896C249.105 97.896 249.969 97.656 250.761 97.176C251.577 96.696 252.225 96.012 252.705 95.124C253.209 94.236 253.461 93.18 253.461 91.956ZM265.228 79.68C264.34 79.68 263.596 79.404 262.996 78.852C262.42 78.276 262.132 77.568 262.132 76.728C262.132 75.888 262.42 75.192 262.996 74.64C263.596 74.064 264.34 73.776 265.228 73.776C266.116 73.776 266.848 74.064 267.424 74.64C268.024 75.192 268.324 75.888 268.324 76.728C268.324 77.568 268.024 78.276 267.424 78.852C266.848 79.404 266.116 79.68 265.228 79.68ZM267.712 82.056V102H262.672V82.056H267.712ZM278.131 75.36V102H273.091V75.36H278.131ZM286.067 79.68C285.179 79.68 284.435 79.404 283.835 78.852C283.259 78.276 282.971 77.568 282.971 76.728C282.971 75.888 283.259 75.192 283.835 74.64C284.435 74.064 285.179 73.776 286.067 73.776C286.955 73.776 287.687 74.064 288.263 74.64C288.863 75.192 289.163 75.888 289.163 76.728C289.163 77.568 288.863 78.276 288.263 78.852C287.687 79.404 286.955 79.68 286.067 79.68ZM288.551 82.056V102H283.511V82.056H288.551ZM299.798 86.196V95.844C299.798 96.516 299.954 97.008 300.266 97.32C300.602 97.608 301.154 97.752 301.922 97.752H304.262V102H301.094C296.846 102 294.722 99.936 294.722 95.808V86.196H292.346V82.056H294.722V77.124H299.798V82.056H304.262V86.196H299.798ZM311.635 82.056L316.783 95.988L322.003 82.056H327.367L315.019 111.432H309.655L313.975 101.496L305.983 82.056H311.635Z" fill="white"/>
<path fill-rule="evenodd" clip-rule="evenodd" d="M292 451.856V465.713L316 451.856V438L292 451.856Z" fill="white"/>
<path fill-rule="evenodd" clip-rule="evenodd" d="M304 458.785V472.641L328 458.785V444.928L304 458.785Z" fill="white"/>
<defs>
<filter id="filter0_i" x="0" y="0" width="360" height="506" filterUnits="userSpaceOnUse" color-interpolation-filters="sRGB">
<feFlood flood-opacity="0" result="BackgroundImageFix"/>
<feBlend mode="normal" in="SourceGraphic" in2="BackgroundImageFix" result="shape"/>
<feColorMatrix in="SourceAlpha" type="matrix" values="0 0 0 0 0 0 0 0 0 0 0 0 0 0 0 0 0 0 127 0" result="hardAlpha"/>
<feOffset dy="2"/>
<feGaussianBlur stdDeviation="0.5"/>
<feComposite in2="hardAlpha" operator="arithmetic" k2="-1" k3="1"/>
<feColorMatrix type="matrix" values="0 0 0 0 0.945098 0 0 0 0 0.952941 0 0 0 0 0.960784 0 0 0 0.3 0"/>
<feBlend mode="normal" in2="shape" result="effect1_innerShadow"/>
</filter>
</defs>
</svg>
