<svg width="360" height="504" viewBox="0 0 360 504" fill="none" xmlns="http://www.w3.org/2000/svg">
<g filter="url(#filter0_i)">
<rect width="360" height="504" rx="8" fill="#FAFAFB"/>
</g>
<path fill-rule="evenodd" clip-rule="evenodd" d="M292 463.856V477.713L316 463.856V450L292 463.856Z" fill="white"/>
<path fill-rule="evenodd" clip-rule="evenodd" d="M304 470.785V484.641L328 470.785V456.928L304 470.785Z" fill="white"/>
<path d="M51.6 378.1L47.48 392H44.9L41.98 381.48L38.88 392L36.32 392.02L32.38 378.1H34.8L37.68 389.42L40.8 378.1H43.36L46.26 389.36L49.16 378.1H51.6ZM54.4405 379.52C54.0271 379.52 53.6805 379.38 53.4005 379.1C53.1205 378.82 52.9805 378.473 52.9805 378.06C52.9805 377.647 53.1205 377.3 53.4005 377.02C53.6805 376.74 54.0271 376.6 54.4405 376.6C54.8405 376.6 55.1805 376.74 55.4605 377.02C55.7405 377.3 55.8805 377.647 55.8805 378.06C55.8805 378.473 55.7405 378.82 55.4605 379.1C55.1805 379.38 54.8405 379.52 54.4405 379.52ZM55.5605 380.98V392H53.2805V380.98H55.5605ZM61.0139 382.84V388.94C61.0139 389.353 61.1072 389.653 61.2939 389.84C61.4939 390.013 61.8272 390.1 62.2939 390.1H63.6939V392H61.8939C60.8672 392 60.0806 391.76 59.5339 391.28C58.9872 390.8 58.7139 390.02 58.7139 388.94V382.84H57.4139V380.98H58.7139V378.24H61.0139V380.98H63.6939V382.84H61.0139ZM71.2953 380.8C72.1353 380.8 72.882 380.98 73.5353 381.34C74.202 381.7 74.722 382.233 75.0953 382.94C75.482 383.647 75.6753 384.5 75.6753 385.5V392H73.4153V385.84C73.4153 384.853 73.1686 384.1 72.6753 383.58C72.182 383.047 71.5086 382.78 70.6553 382.78C69.802 382.78 69.122 383.047 68.6153 383.58C68.122 384.1 67.8753 384.853 67.8753 385.84V392H65.5953V377.2H67.8753V382.26C68.262 381.793 68.7486 381.433 69.3353 381.18C69.9353 380.927 70.5886 380.8 71.2953 380.8ZM79.5436 379.52C79.1303 379.52 78.7836 379.38 78.5036 379.1C78.2236 378.82 78.0836 378.473 78.0836 378.06C78.0836 377.647 78.2236 377.3 78.5036 377.02C78.7836 376.74 79.1303 376.6 79.5436 376.6C79.9436 376.6 80.2836 376.74 80.5636 377.02C80.8436 377.3 80.9836 377.647 80.9836 378.06C80.9836 378.473 80.8436 378.82 80.5636 379.1C80.2836 379.38 79.9436 379.52 79.5436 379.52ZM80.6636 380.98V392H78.3836V380.98H80.6636ZM89.017 380.8C89.8837 380.8 90.657 380.98 91.337 381.34C92.0304 381.7 92.5704 382.233 92.957 382.94C93.3437 383.647 93.537 384.5 93.537 385.5V392H91.277V385.84C91.277 384.853 91.0304 384.1 90.537 383.58C90.0437 383.047 89.3704 382.78 88.517 382.78C87.6637 382.78 86.9837 383.047 86.477 383.58C85.9837 384.1 85.737 384.853 85.737 385.84V392H83.457V380.98H85.737V382.24C86.1104 381.787 86.5837 381.433 87.157 381.18C87.7437 380.927 88.3637 380.8 89.017 380.8ZM104.701 382.84V388.94C104.701 389.353 104.795 389.653 104.981 389.84C105.181 390.013 105.515 390.1 105.981 390.1H107.381V392H105.581C104.555 392 103.768 391.76 103.221 391.28C102.675 390.8 102.401 390.02 102.401 388.94V382.84H101.101V380.98H102.401V378.24H104.701V380.98H107.381V382.84H104.701ZM114.983 380.8C115.823 380.8 116.569 380.98 117.223 381.34C117.889 381.7 118.409 382.233 118.783 382.94C119.169 383.647 119.363 384.5 119.363 385.5V392H117.103V385.84C117.103 384.853 116.856 384.1 116.363 383.58C115.869 383.047 115.196 382.78 114.343 382.78C113.489 382.78 112.809 383.047 112.303 383.58C111.809 384.1 111.563 384.853 111.563 385.84V392H109.283V377.2H111.563V382.26C111.949 381.793 112.436 381.433 113.023 381.18C113.623 380.927 114.276 380.8 114.983 380.8ZM132.171 386.18C132.171 386.567 132.144 386.927 132.091 387.26H123.651C123.718 388.18 124.044 388.913 124.631 389.46C125.218 389.993 125.944 390.26 126.811 390.26C128.038 390.26 128.904 389.747 129.411 388.72H131.871C131.538 389.733 130.931 390.567 130.051 391.22C129.184 391.86 128.104 392.18 126.811 392.18C125.758 392.18 124.811 391.947 123.971 391.48C123.144 391 122.491 390.333 122.011 389.48C121.544 388.613 121.311 387.613 121.311 386.48C121.311 385.347 121.538 384.353 121.991 383.5C122.458 382.633 123.104 381.967 123.931 381.5C124.771 381.033 125.731 380.8 126.811 380.8C127.851 380.8 128.778 381.027 129.591 381.48C130.404 381.933 131.038 382.567 131.491 383.38C131.944 384.193 132.171 385.127 132.171 386.18ZM129.791 385.62C129.778 384.727 129.478 384.02 128.891 383.5C128.318 382.98 127.591 382.72 126.711 382.72C125.911 382.72 125.224 382.98 124.651 383.5C124.091 384.02 123.764 384.727 123.671 385.62H129.791ZM143.971 392.18C143.118 392.18 142.351 392.027 141.671 391.72C140.991 391.4 140.451 390.973 140.051 390.44C139.651 389.893 139.438 389.287 139.411 388.62H141.771C141.811 389.127 142.031 389.547 142.431 389.88C142.844 390.213 143.358 390.38 143.971 390.38C144.611 390.38 145.104 390.253 145.451 390C145.811 389.733 145.991 389.38 145.991 388.94C145.991 388.54 145.791 388.233 145.391 388.02C144.991 387.807 144.371 387.593 143.531 387.38C142.718 387.153 142.051 386.94 141.531 386.74C141.024 386.527 140.584 386.207 140.211 385.78C139.838 385.34 139.651 384.773 139.651 384.08C139.651 383.48 139.818 382.933 140.151 382.44C140.484 381.933 140.964 381.533 141.591 381.24C142.231 380.947 142.978 380.8 143.831 380.8C145.084 380.8 146.091 381.12 146.851 381.76C147.624 382.387 148.038 383.247 148.091 384.34H145.811C145.771 383.807 145.571 383.387 145.211 383.08C144.851 382.76 144.364 382.6 143.751 382.6C143.151 382.6 142.691 382.727 142.371 382.98C142.051 383.22 141.891 383.547 141.891 383.96C141.891 384.253 141.998 384.5 142.211 384.7C142.424 384.9 142.691 385.06 143.011 385.18C143.331 385.287 143.784 385.42 144.371 385.58C145.171 385.793 145.824 386.007 146.331 386.22C146.838 386.433 147.271 386.76 147.631 387.2C147.991 387.627 148.171 388.187 148.171 388.88C148.171 389.507 148.004 390.073 147.671 390.58C147.338 391.073 146.851 391.467 146.211 391.76C145.584 392.04 144.838 392.18 143.971 392.18ZM151.735 380.98L154.835 389.38L158.055 380.98H160.415L153.655 397.18H151.295L153.535 391.82L149.195 380.98H151.735ZM165.895 392.18C165.042 392.18 164.275 392.027 163.595 391.72C162.915 391.4 162.375 390.973 161.975 390.44C161.575 389.893 161.362 389.287 161.335 388.62H163.695C163.735 389.127 163.955 389.547 164.355 389.88C164.768 390.213 165.282 390.38 165.895 390.38C166.535 390.38 167.028 390.253 167.375 390C167.735 389.733 167.915 389.38 167.915 388.94C167.915 388.54 167.715 388.233 167.315 388.02C166.915 387.807 166.295 387.593 165.455 387.38C164.642 387.153 163.975 386.94 163.455 386.74C162.948 386.527 162.508 386.207 162.135 385.78C161.762 385.34 161.575 384.773 161.575 384.08C161.575 383.48 161.742 382.933 162.075 382.44C162.408 381.933 162.888 381.533 163.515 381.24C164.155 380.947 164.902 380.8 165.755 380.8C167.008 380.8 168.015 381.12 168.775 381.76C169.548 382.387 169.962 383.247 170.015 384.34H167.735C167.695 383.807 167.495 383.387 167.135 383.08C166.775 382.76 166.288 382.6 165.675 382.6C165.075 382.6 164.615 382.727 164.295 382.98C163.975 383.22 163.815 383.547 163.815 383.96C163.815 384.253 163.922 384.5 164.135 384.7C164.348 384.9 164.615 385.06 164.935 385.18C165.255 385.287 165.708 385.42 166.295 385.58C167.095 385.793 167.748 386.007 168.255 386.22C168.762 386.433 169.195 386.76 169.555 387.2C169.915 387.627 170.095 388.187 170.095 388.88C170.095 389.507 169.928 390.073 169.595 390.58C169.262 391.073 168.775 391.467 168.135 391.76C167.508 392.04 166.762 392.18 165.895 392.18ZM175.079 382.84V388.94C175.079 389.353 175.172 389.653 175.359 389.84C175.559 390.013 175.892 390.1 176.359 390.1H177.759V392H175.959C174.932 392 174.145 391.76 173.599 391.28C173.052 390.8 172.779 390.02 172.779 388.94V382.84H171.479V380.98H172.779V378.24H175.079V380.98H177.759V382.84H175.079ZM189.76 386.18C189.76 386.567 189.733 386.927 189.68 387.26H181.24C181.307 388.18 181.633 388.913 182.22 389.46C182.807 389.993 183.533 390.26 184.4 390.26C185.627 390.26 186.493 389.747 187 388.72H189.46C189.127 389.733 188.52 390.567 187.64 391.22C186.773 391.86 185.693 392.18 184.4 392.18C183.347 392.18 182.4 391.947 181.56 391.48C180.733 391 180.08 390.333 179.6 389.48C179.133 388.613 178.9 387.613 178.9 386.48C178.9 385.347 179.127 384.353 179.58 383.5C180.047 382.633 180.693 381.967 181.52 381.5C182.36 381.033 183.32 380.8 184.4 380.8C185.44 380.8 186.367 381.027 187.18 381.48C187.993 381.933 188.627 382.567 189.08 383.38C189.533 384.193 189.76 385.127 189.76 386.18ZM187.38 385.62C187.367 384.727 187.067 384.02 186.48 383.5C185.907 382.98 185.18 382.72 184.3 382.72C183.5 382.72 182.813 382.98 182.24 383.5C181.68 384.02 181.353 384.727 181.26 385.62H187.38ZM205.144 380.8C206.011 380.8 206.784 380.98 207.464 381.34C208.157 381.7 208.697 382.233 209.084 382.94C209.484 383.647 209.684 384.5 209.684 385.5V392H207.424V385.84C207.424 384.853 207.177 384.1 206.684 383.58C206.191 383.047 205.517 382.78 204.664 382.78C203.811 382.78 203.131 383.047 202.624 383.58C202.131 384.1 201.884 384.853 201.884 385.84V392H199.624V385.84C199.624 384.853 199.377 384.1 198.884 383.58C198.391 383.047 197.717 382.78 196.864 382.78C196.011 382.78 195.331 383.047 194.824 383.58C194.331 384.1 194.084 384.853 194.084 385.84V392H191.804V380.98H194.084V382.24C194.457 381.787 194.931 381.433 195.504 381.18C196.077 380.927 196.691 380.8 197.344 380.8C198.224 380.8 199.011 380.987 199.704 381.36C200.397 381.733 200.931 382.273 201.304 382.98C201.637 382.313 202.157 381.787 202.864 381.4C203.571 381 204.331 380.8 205.144 380.8ZM214.885 389.26L212.465 394.78H210.985L212.405 389.26H214.885ZM221.713 386.44C221.713 385.333 221.94 384.353 222.393 383.5C222.86 382.647 223.487 381.987 224.273 381.52C225.073 381.04 225.953 380.8 226.913 380.8C227.78 380.8 228.533 380.973 229.173 381.32C229.827 381.653 230.347 382.073 230.733 382.58V380.98H233.033V392H230.733V390.36C230.347 390.88 229.82 391.313 229.153 391.66C228.487 392.007 227.727 392.18 226.873 392.18C225.927 392.18 225.06 391.94 224.273 391.46C223.487 390.967 222.86 390.287 222.393 389.42C221.94 388.54 221.713 387.547 221.713 386.44ZM230.733 386.48C230.733 385.72 230.573 385.06 230.253 384.5C229.947 383.94 229.54 383.513 229.033 383.22C228.527 382.927 227.98 382.78 227.393 382.78C226.807 382.78 226.26 382.927 225.753 383.22C225.247 383.5 224.833 383.92 224.513 384.48C224.207 385.027 224.053 385.68 224.053 386.44C224.053 387.2 224.207 387.867 224.513 388.44C224.833 389.013 225.247 389.453 225.753 389.76C226.273 390.053 226.82 390.2 227.393 390.2C227.98 390.2 228.527 390.053 229.033 389.76C229.54 389.467 229.947 389.04 230.253 388.48C230.573 387.907 230.733 387.24 230.733 386.48ZM243.904 382.9C244.238 382.233 244.678 381.72 245.224 381.36C245.784 380.987 246.444 380.8 247.204 380.8V383.16H246.624C245.731 383.16 245.051 383.387 244.584 383.84C244.131 384.293 243.904 385.08 243.904 386.2V392H241.624V380.98H243.904V382.9ZM248.34 386.44C248.34 385.333 248.567 384.353 249.02 383.5C249.487 382.647 250.113 381.987 250.9 381.52C251.7 381.04 252.58 380.8 253.54 380.8C254.407 380.8 255.16 380.973 255.8 381.32C256.453 381.653 256.973 382.073 257.36 382.58V380.98H259.66V392H257.36V390.36C256.973 390.88 256.447 391.313 255.78 391.66C255.113 392.007 254.353 392.18 253.5 392.18C252.553 392.18 251.687 391.94 250.9 391.46C250.113 390.967 249.487 390.287 249.02 389.42C248.567 388.54 248.34 387.547 248.34 386.44ZM257.36 386.48C257.36 385.72 257.2 385.06 256.88 384.5C256.573 383.94 256.167 383.513 255.66 383.22C255.153 382.927 254.607 382.78 254.02 382.78C253.433 382.78 252.887 382.927 252.38 383.22C251.873 383.5 251.46 383.92 251.14 384.48C250.833 385.027 250.68 385.68 250.68 386.44C250.68 387.2 250.833 387.867 251.14 388.44C251.46 389.013 251.873 389.453 252.38 389.76C252.9 390.053 253.447 390.2 254.02 390.2C254.607 390.2 255.153 390.053 255.66 389.76C256.167 389.467 256.573 389.04 256.88 388.48C257.2 387.907 257.36 387.24 257.36 386.48ZM268.015 380.8C268.881 380.8 269.655 380.98 270.335 381.34C271.028 381.7 271.568 382.233 271.955 382.94C272.341 383.647 272.535 384.5 272.535 385.5V392H270.275V385.84C270.275 384.853 270.028 384.1 269.535 383.58C269.041 383.047 268.368 382.78 267.515 382.78C266.661 382.78 265.981 383.047 265.475 383.58C264.981 384.1 264.735 384.853 264.735 385.84V392H262.455V380.98H264.735V382.24C265.108 381.787 265.581 381.433 266.155 381.18C266.741 380.927 267.361 380.8 268.015 380.8ZM279.683 380.8C280.536 380.8 281.29 380.973 281.943 381.32C282.61 381.653 283.13 382.073 283.503 382.58V380.98H285.803V392.18C285.803 393.193 285.59 394.093 285.163 394.88C284.736 395.68 284.116 396.307 283.303 396.76C282.503 397.213 281.543 397.44 280.423 397.44C278.93 397.44 277.69 397.087 276.703 396.38C275.716 395.687 275.156 394.74 275.023 393.54H277.283C277.456 394.113 277.823 394.573 278.383 394.92C278.956 395.28 279.636 395.46 280.423 395.46C281.343 395.46 282.083 395.18 282.643 394.62C283.216 394.06 283.503 393.247 283.503 392.18V390.34C283.116 390.86 282.59 391.3 281.923 391.66C281.27 392.007 280.523 392.18 279.683 392.18C278.723 392.18 277.843 391.94 277.043 391.46C276.256 390.967 275.63 390.287 275.163 389.42C274.71 388.54 274.483 387.547 274.483 386.44C274.483 385.333 274.71 384.353 275.163 383.5C275.63 382.647 276.256 381.987 277.043 381.52C277.843 381.04 278.723 380.8 279.683 380.8ZM283.503 386.48C283.503 385.72 283.343 385.06 283.023 384.5C282.716 383.94 282.31 383.513 281.803 383.22C281.296 382.927 280.75 382.78 280.163 382.78C279.576 382.78 279.03 382.927 278.523 383.22C278.016 383.5 277.603 383.92 277.283 384.48C276.976 385.027 276.823 385.68 276.823 386.44C276.823 387.2 276.976 387.867 277.283 388.44C277.603 389.013 278.016 389.453 278.523 389.76C279.043 390.053 279.59 390.2 280.163 390.2C280.75 390.2 281.296 390.053 281.803 389.76C282.31 389.467 282.716 389.04 283.023 388.48C283.343 387.907 283.503 387.24 283.503 386.48ZM298.698 386.18C298.698 386.567 298.671 386.927 298.618 387.26H290.178C290.244 388.18 290.571 388.913 291.158 389.46C291.744 389.993 292.471 390.26 293.338 390.26C294.564 390.26 295.431 389.747 295.938 388.72H298.398C298.064 389.733 297.458 390.567 296.578 391.22C295.711 391.86 294.631 392.18 293.338 392.18C292.284 392.18 291.338 391.947 290.498 391.48C289.671 391 289.018 390.333 288.538 389.48C288.071 388.613 287.838 387.613 287.838 386.48C287.838 385.347 288.064 384.353 288.518 383.5C288.984 382.633 289.631 381.967 290.458 381.5C291.298 381.033 292.258 380.8 293.338 380.8C294.378 380.8 295.304 381.027 296.118 381.48C296.931 381.933 297.564 382.567 298.018 383.38C298.471 384.193 298.698 385.127 298.698 386.18ZM296.318 385.62C296.304 384.727 296.004 384.02 295.418 383.5C294.844 382.98 294.118 382.72 293.238 382.72C292.438 382.72 291.751 382.98 291.178 383.5C290.618 384.02 290.291 384.727 290.198 385.62H296.318ZM311.318 392.18C310.278 392.18 309.338 391.947 308.498 391.48C307.658 391 306.998 390.333 306.518 389.48C306.038 388.613 305.798 387.613 305.798 386.48C305.798 385.36 306.044 384.367 306.538 383.5C307.031 382.633 307.704 381.967 308.558 381.5C309.411 381.033 310.364 380.8 311.418 380.8C312.471 380.8 313.424 381.033 314.278 381.5C315.131 381.967 315.804 382.633 316.298 383.5C316.791 384.367 317.038 385.36 317.038 386.48C317.038 387.6 316.784 388.593 316.278 389.46C315.771 390.327 315.078 391 314.198 391.48C313.331 391.947 312.371 392.18 311.318 392.18ZM311.318 390.26C311.904 390.26 312.451 390.113 312.958 389.82C313.478 389.527 313.898 389.1 314.218 388.54C314.538 387.967 314.698 387.28 314.698 386.48C314.698 385.68 314.544 385 314.238 384.44C313.931 383.867 313.524 383.44 313.018 383.16C312.511 382.867 311.964 382.72 311.378 382.72C310.791 382.72 310.251 382.867 309.758 383.16C309.264 383.44 308.864 383.867 308.558 384.44C308.264 385 308.118 385.68 308.118 386.48C308.118 387.28 308.258 387.967 308.538 388.54C308.831 389.113 309.218 389.547 309.698 389.84C310.191 390.12 310.731 390.26 311.318 390.26ZM323.711 382.84H321.671V392H319.371V382.84H318.071V380.98H319.371V380.2C319.371 378.933 319.705 378.013 320.371 377.44C321.051 376.853 322.111 376.56 323.551 376.56V378.46C322.858 378.46 322.371 378.593 322.091 378.86C321.811 379.113 321.671 379.56 321.671 380.2V380.98H323.711V382.84ZM32.74 410.44C32.74 409.333 32.9667 408.353 33.42 407.5C33.8867 406.647 34.5133 405.987 35.3 405.52C36.1 405.04 36.98 404.8 37.94 404.8C38.8067 404.8 39.56 404.973 40.2 405.32C40.8533 405.653 41.3733 406.073 41.76 406.58V404.98H44.06V416H41.76V414.36C41.3733 414.88 40.8467 415.313 40.18 415.66C39.5133 416.007 38.7533 416.18 37.9 416.18C36.9533 416.18 36.0867 415.94 35.3 415.46C34.5133 414.967 33.8867 414.287 33.42 413.42C32.9667 412.54 32.74 411.547 32.74 410.44ZM41.76 410.48C41.76 409.72 41.6 409.06 41.28 408.5C40.9733 407.94 40.5667 407.513 40.06 407.22C39.5533 406.927 39.0067 406.78 38.42 406.78C37.8333 406.78 37.2867 406.927 36.78 407.22C36.2733 407.5 35.86 407.92 35.54 408.48C35.2333 409.027 35.08 409.68 35.08 410.44C35.08 411.2 35.2333 411.867 35.54 412.44C35.86 413.013 36.2733 413.453 36.78 413.76C37.3 414.053 37.8467 414.2 38.42 414.2C39.0067 414.2 39.5533 414.053 40.06 413.76C40.5667 413.467 40.9733 413.04 41.28 412.48C41.6 411.907 41.76 411.24 41.76 410.48ZM49.1347 406.6C49.5214 406.093 50.048 405.667 50.7147 405.32C51.3814 404.973 52.1347 404.8 52.9747 404.8C53.9347 404.8 54.808 405.04 55.5947 405.52C56.3947 405.987 57.0214 406.647 57.4747 407.5C57.928 408.353 58.1547 409.333 58.1547 410.44C58.1547 411.547 57.928 412.54 57.4747 413.42C57.0214 414.287 56.3947 414.967 55.5947 415.46C54.808 415.94 53.9347 416.18 52.9747 416.18C52.1347 416.18 51.388 416.013 50.7347 415.68C50.0814 415.333 49.548 414.907 49.1347 414.4V421.24H46.8547V404.98H49.1347V406.6ZM55.8347 410.44C55.8347 409.68 55.6747 409.027 55.3547 408.48C55.048 407.92 54.6347 407.5 54.1147 407.22C53.608 406.927 53.0614 406.78 52.4747 406.78C51.9014 406.78 51.3547 406.927 50.8347 407.22C50.328 407.513 49.9147 407.94 49.5947 408.5C49.288 409.06 49.1347 409.72 49.1347 410.48C49.1347 411.24 49.288 411.907 49.5947 412.48C49.9147 413.04 50.328 413.467 50.8347 413.76C51.3547 414.053 51.9014 414.2 52.4747 414.2C53.0614 414.2 53.608 414.053 54.1147 413.76C54.6347 413.453 55.048 413.013 55.3547 412.44C55.6747 411.867 55.8347 411.2 55.8347 410.44ZM62.4894 406.6C62.876 406.093 63.4027 405.667 64.0694 405.32C64.736 404.973 65.4894 404.8 66.3294 404.8C67.2894 404.8 68.1627 405.04 68.9494 405.52C69.7494 405.987 70.376 406.647 70.8294 407.5C71.2827 408.353 71.5094 409.333 71.5094 410.44C71.5094 411.547 71.2827 412.54 70.8294 413.42C70.376 414.287 69.7494 414.967 68.9494 415.46C68.1627 415.94 67.2894 416.18 66.3294 416.18C65.4894 416.18 64.7427 416.013 64.0894 415.68C63.436 415.333 62.9027 414.907 62.4894 414.4V421.24H60.2094V404.98H62.4894V406.6ZM69.1894 410.44C69.1894 409.68 69.0294 409.027 68.7094 408.48C68.4027 407.92 67.9894 407.5 67.4694 407.22C66.9627 406.927 66.416 406.78 65.8294 406.78C65.256 406.78 64.7094 406.927 64.1894 407.22C63.6827 407.513 63.2694 407.94 62.9494 408.5C62.6427 409.06 62.4894 409.72 62.4894 410.48C62.4894 411.24 62.6427 411.907 62.9494 412.48C63.2694 413.04 63.6827 413.467 64.1894 413.76C64.7094 414.053 65.256 414.2 65.8294 414.2C66.416 414.2 66.9627 414.053 67.4694 413.76C67.9894 413.453 68.4027 413.013 68.7094 412.44C69.0294 411.867 69.1894 411.2 69.1894 410.44ZM75.8441 406.9C76.1774 406.233 76.6174 405.72 77.1641 405.36C77.7241 404.987 78.3841 404.8 79.1441 404.8V407.16H78.5641C77.6707 407.16 76.9907 407.387 76.5241 407.84C76.0707 408.293 75.8441 409.08 75.8441 410.2V416H73.5641V404.98H75.8441V406.9ZM85.8198 416.18C84.7798 416.18 83.8398 415.947 82.9998 415.48C82.1598 415 81.4998 414.333 81.0198 413.48C80.5398 412.613 80.2998 411.613 80.2998 410.48C80.2998 409.36 80.5465 408.367 81.0398 407.5C81.5332 406.633 82.2065 405.967 83.0598 405.5C83.9132 405.033 84.8665 404.8 85.9198 404.8C86.9732 404.8 87.9265 405.033 88.7798 405.5C89.6332 405.967 90.3065 406.633 90.7998 407.5C91.2932 408.367 91.5398 409.36 91.5398 410.48C91.5398 411.6 91.2865 412.593 90.7798 413.46C90.2732 414.327 89.5798 415 88.6998 415.48C87.8332 415.947 86.8732 416.18 85.8198 416.18ZM85.8198 414.26C86.4065 414.26 86.9532 414.113 87.4598 413.82C87.9798 413.527 88.3998 413.1 88.7198 412.54C89.0398 411.967 89.1998 411.28 89.1998 410.48C89.1998 409.68 89.0465 409 88.7398 408.44C88.4332 407.867 88.0265 407.44 87.5198 407.16C87.0132 406.867 86.4665 406.72 85.8798 406.72C85.2932 406.72 84.7532 406.867 84.2598 407.16C83.7665 407.44 83.3665 407.867 83.0598 408.44C82.7665 409 82.6198 409.68 82.6198 410.48C82.6198 411.28 82.7598 411.967 83.0398 412.54C83.3332 413.113 83.7198 413.547 84.1998 413.84C84.6932 414.12 85.2332 414.26 85.8198 414.26ZM95.8738 406.6C96.2604 406.093 96.7871 405.667 97.4538 405.32C98.1204 404.973 98.8738 404.8 99.7138 404.8C100.674 404.8 101.547 405.04 102.334 405.52C103.134 405.987 103.76 406.647 104.214 407.5C104.667 408.353 104.894 409.333 104.894 410.44C104.894 411.547 104.667 412.54 104.214 413.42C103.76 414.287 103.134 414.967 102.334 415.46C101.547 415.94 100.674 416.18 99.7138 416.18C98.8738 416.18 98.1271 416.013 97.4738 415.68C96.8204 415.333 96.2871 414.907 95.8738 414.4V421.24H93.5938V404.98H95.8738V406.6ZM102.574 410.44C102.574 409.68 102.414 409.027 102.094 408.48C101.787 407.92 101.374 407.5 100.854 407.22C100.347 406.927 99.8004 406.78 99.2138 406.78C98.6404 406.78 98.0938 406.927 97.5738 407.22C97.0671 407.513 96.6538 407.94 96.3338 408.5C96.0271 409.06 95.8738 409.72 95.8738 410.48C95.8738 411.24 96.0271 411.907 96.3338 412.48C96.6538 413.04 97.0671 413.467 97.5738 413.76C98.0938 414.053 98.6404 414.2 99.2138 414.2C99.8004 414.2 100.347 414.053 100.854 413.76C101.374 413.453 101.787 413.013 102.094 412.44C102.414 411.867 102.574 411.2 102.574 410.44ZM109.228 406.9C109.562 406.233 110.002 405.72 110.548 405.36C111.108 404.987 111.768 404.8 112.528 404.8V407.16H111.948C111.055 407.16 110.375 407.387 109.908 407.84C109.455 408.293 109.228 409.08 109.228 410.2V416H106.948V404.98H109.228V406.9ZM115.584 403.52C115.171 403.52 114.824 403.38 114.544 403.1C114.264 402.82 114.124 402.473 114.124 402.06C114.124 401.647 114.264 401.3 114.544 401.02C114.824 400.74 115.171 400.6 115.584 400.6C115.984 400.6 116.324 400.74 116.604 401.02C116.884 401.3 117.024 401.647 117.024 402.06C117.024 402.473 116.884 402.82 116.604 403.1C116.324 403.38 115.984 403.52 115.584 403.52ZM116.704 404.98V416H114.424V404.98H116.704ZM118.738 410.44C118.738 409.333 118.964 408.353 119.418 407.5C119.884 406.647 120.511 405.987 121.298 405.52C122.098 405.04 122.978 404.8 123.938 404.8C124.804 404.8 125.558 404.973 126.198 405.32C126.851 405.653 127.371 406.073 127.758 406.58V404.98H130.058V416H127.758V414.36C127.371 414.88 126.844 415.313 126.178 415.66C125.511 416.007 124.751 416.18 123.898 416.18C122.951 416.18 122.084 415.94 121.298 415.46C120.511 414.967 119.884 414.287 119.418 413.42C118.964 412.54 118.738 411.547 118.738 410.44ZM127.758 410.48C127.758 409.72 127.598 409.06 127.278 408.5C126.971 407.94 126.564 407.513 126.058 407.22C125.551 406.927 125.004 406.78 124.418 406.78C123.831 406.78 123.284 406.927 122.778 407.22C122.271 407.5 121.858 407.92 121.538 408.48C121.231 409.027 121.078 409.68 121.078 410.44C121.078 411.2 121.231 411.867 121.538 412.44C121.858 413.013 122.271 413.453 122.778 413.76C123.298 414.053 123.844 414.2 124.418 414.2C125.004 414.2 125.551 414.053 126.058 413.76C126.564 413.467 126.971 413.04 127.278 412.48C127.598 411.907 127.758 411.24 127.758 410.48ZM135.512 406.84V412.94C135.512 413.353 135.606 413.653 135.792 413.84C135.992 414.013 136.326 414.1 136.792 414.1H138.192V416H136.392C135.366 416 134.579 415.76 134.032 415.28C133.486 414.8 133.212 414.02 133.212 412.94V406.84H131.912V404.98H133.212V402.24H135.512V404.98H138.192V406.84H135.512ZM150.194 410.18C150.194 410.567 150.167 410.927 150.114 411.26H141.674C141.74 412.18 142.067 412.913 142.654 413.46C143.24 413.993 143.967 414.26 144.834 414.26C146.06 414.26 146.927 413.747 147.434 412.72H149.894C149.56 413.733 148.954 414.567 148.074 415.22C147.207 415.86 146.127 416.18 144.834 416.18C143.78 416.18 142.834 415.947 141.994 415.48C141.167 415 140.514 414.333 140.034 413.48C139.567 412.613 139.334 411.613 139.334 410.48C139.334 409.347 139.56 408.353 140.014 407.5C140.48 406.633 141.127 405.967 141.954 405.5C142.794 405.033 143.754 404.8 144.834 404.8C145.874 404.8 146.8 405.027 147.614 405.48C148.427 405.933 149.06 406.567 149.514 407.38C149.967 408.193 150.194 409.127 150.194 410.18ZM147.814 409.62C147.8 408.727 147.5 408.02 146.914 407.5C146.34 406.98 145.614 406.72 144.734 406.72C143.934 406.72 143.247 406.98 142.674 407.5C142.114 408.02 141.787 408.727 141.694 409.62H147.814ZM162.814 416.18C161.774 416.18 160.834 415.947 159.994 415.48C159.154 415 158.494 414.333 158.014 413.48C157.534 412.613 157.294 411.613 157.294 410.48C157.294 409.36 157.54 408.367 158.034 407.5C158.527 406.633 159.2 405.967 160.054 405.5C160.907 405.033 161.86 404.8 162.914 404.8C163.967 404.8 164.92 405.033 165.774 405.5C166.627 405.967 167.3 406.633 167.794 407.5C168.287 408.367 168.534 409.36 168.534 410.48C168.534 411.6 168.28 412.593 167.774 413.46C167.267 414.327 166.574 415 165.694 415.48C164.827 415.947 163.867 416.18 162.814 416.18ZM162.814 414.26C163.4 414.26 163.947 414.113 164.454 413.82C164.974 413.527 165.394 413.1 165.714 412.54C166.034 411.967 166.194 411.28 166.194 410.48C166.194 409.68 166.04 409 165.734 408.44C165.427 407.867 165.02 407.44 164.514 407.16C164.007 406.867 163.46 406.72 162.874 406.72C162.287 406.72 161.747 406.867 161.254 407.16C160.76 407.44 160.36 407.867 160.054 408.44C159.76 409 159.614 409.68 159.614 410.48C159.614 411.28 159.754 411.967 160.034 412.54C160.327 413.113 160.714 413.547 161.194 413.84C161.687 414.12 162.227 414.26 162.814 414.26ZM172.868 406.6C173.254 406.093 173.781 405.667 174.448 405.32C175.114 404.973 175.868 404.8 176.708 404.8C177.668 404.8 178.541 405.04 179.328 405.52C180.128 405.987 180.754 406.647 181.208 407.5C181.661 408.353 181.888 409.333 181.888 410.44C181.888 411.547 181.661 412.54 181.208 413.42C180.754 414.287 180.128 414.967 179.328 415.46C178.541 415.94 177.668 416.18 176.708 416.18C175.868 416.18 175.121 416.013 174.468 415.68C173.814 415.333 173.281 414.907 172.868 414.4V421.24H170.588V404.98H172.868V406.6ZM179.568 410.44C179.568 409.68 179.408 409.027 179.088 408.48C178.781 407.92 178.368 407.5 177.848 407.22C177.341 406.927 176.794 406.78 176.208 406.78C175.634 406.78 175.088 406.927 174.568 407.22C174.061 407.513 173.648 407.94 173.328 408.5C173.021 409.06 172.868 409.72 172.868 410.48C172.868 411.24 173.021 411.907 173.328 412.48C173.648 413.04 174.061 413.467 174.568 413.76C175.088 414.053 175.634 414.2 176.208 414.2C176.794 414.2 177.341 414.053 177.848 413.76C178.368 413.453 178.781 413.013 179.088 412.44C179.408 411.867 179.568 411.2 179.568 410.44ZM186.602 406.84V412.94C186.602 413.353 186.696 413.653 186.882 413.84C187.082 414.013 187.416 414.1 187.882 414.1H189.282V416H187.482C186.456 416 185.669 415.76 185.122 415.28C184.576 414.8 184.302 414.02 184.302 412.94V406.84H183.002V404.98H184.302V402.24H186.602V404.98H189.282V406.84H186.602ZM192.344 403.52C191.93 403.52 191.584 403.38 191.304 403.1C191.024 402.82 190.884 402.473 190.884 402.06C190.884 401.647 191.024 401.3 191.304 401.02C191.584 400.74 191.93 400.6 192.344 400.6C192.744 400.6 193.084 400.74 193.364 401.02C193.644 401.3 193.784 401.647 193.784 402.06C193.784 402.473 193.644 402.82 193.364 403.1C193.084 403.38 192.744 403.52 192.344 403.52ZM193.464 404.98V416H191.184V404.98H193.464ZM201.037 416.18C199.997 416.18 199.057 415.947 198.217 415.48C197.377 415 196.717 414.333 196.237 413.48C195.757 412.613 195.517 411.613 195.517 410.48C195.517 409.36 195.764 408.367 196.257 407.5C196.75 406.633 197.424 405.967 198.277 405.5C199.13 405.033 200.084 404.8 201.137 404.8C202.19 404.8 203.144 405.033 203.997 405.5C204.85 405.967 205.524 406.633 206.017 407.5C206.51 408.367 206.757 409.36 206.757 410.48C206.757 411.6 206.504 412.593 205.997 413.46C205.49 414.327 204.797 415 203.917 415.48C203.05 415.947 202.09 416.18 201.037 416.18ZM201.037 414.26C201.624 414.26 202.17 414.113 202.677 413.82C203.197 413.527 203.617 413.1 203.937 412.54C204.257 411.967 204.417 411.28 204.417 410.48C204.417 409.68 204.264 409 203.957 408.44C203.65 407.867 203.244 407.44 202.737 407.16C202.23 406.867 201.684 406.72 201.097 406.72C200.51 406.72 199.97 406.867 199.477 407.16C198.984 407.44 198.584 407.867 198.277 408.44C197.984 409 197.837 409.68 197.837 410.48C197.837 411.28 197.977 411.967 198.257 412.54C198.55 413.113 198.937 413.547 199.417 413.84C199.91 414.12 200.45 414.26 201.037 414.26ZM214.371 404.8C215.238 404.8 216.011 404.98 216.691 405.34C217.384 405.7 217.924 406.233 218.311 406.94C218.698 407.647 218.891 408.5 218.891 409.5V416H216.631V409.84C216.631 408.853 216.384 408.1 215.891 407.58C215.398 407.047 214.724 406.78 213.871 406.78C213.018 406.78 212.338 407.047 211.831 407.58C211.338 408.1 211.091 408.853 211.091 409.84V416H208.811V404.98H211.091V406.24C211.464 405.787 211.938 405.433 212.511 405.18C213.098 404.927 213.718 404.8 214.371 404.8ZM225.559 416.18C224.706 416.18 223.939 416.027 223.259 415.72C222.579 415.4 222.039 414.973 221.639 414.44C221.239 413.893 221.026 413.287 220.999 412.62H223.359C223.399 413.127 223.619 413.547 224.019 413.88C224.433 414.213 224.946 414.38 225.559 414.38C226.199 414.38 226.693 414.253 227.039 414C227.399 413.733 227.579 413.38 227.579 412.94C227.579 412.54 227.379 412.233 226.979 412.02C226.579 411.807 225.959 411.593 225.119 411.38C224.306 411.153 223.639 410.94 223.119 410.74C222.613 410.527 222.173 410.207 221.799 409.78C221.426 409.34 221.239 408.773 221.239 408.08C221.239 407.48 221.406 406.933 221.739 406.44C222.073 405.933 222.553 405.533 223.179 405.24C223.819 404.947 224.566 404.8 225.419 404.8C226.673 404.8 227.679 405.12 228.439 405.76C229.213 406.387 229.626 407.247 229.679 408.34H227.399C227.359 407.807 227.159 407.387 226.799 407.08C226.439 406.76 225.953 406.6 225.339 406.6C224.739 406.6 224.279 406.727 223.959 406.98C223.639 407.22 223.479 407.547 223.479 407.96C223.479 408.253 223.586 408.5 223.799 408.7C224.013 408.9 224.279 409.06 224.599 409.18C224.919 409.287 225.373 409.42 225.959 409.58C226.759 409.793 227.413 410.007 227.919 410.22C228.426 410.433 228.859 410.76 229.219 411.2C229.579 411.627 229.759 412.187 229.759 412.88C229.759 413.507 229.593 414.073 229.259 414.58C228.926 415.073 228.439 415.467 227.799 415.76C227.173 416.04 226.426 416.18 225.559 416.18ZM237.119 410.44C237.119 409.333 237.346 408.353 237.799 407.5C238.266 406.647 238.892 405.987 239.679 405.52C240.479 405.04 241.359 404.8 242.319 404.8C243.186 404.8 243.939 404.973 244.579 405.32C245.232 405.653 245.752 406.073 246.139 406.58V404.98H248.439V416H246.139V414.36C245.752 414.88 245.226 415.313 244.559 415.66C243.892 416.007 243.132 416.18 242.279 416.18C241.332 416.18 240.466 415.94 239.679 415.46C238.892 414.967 238.266 414.287 237.799 413.42C237.346 412.54 237.119 411.547 237.119 410.44ZM246.139 410.48C246.139 409.72 245.979 409.06 245.659 408.5C245.352 407.94 244.946 407.513 244.439 407.22C243.932 406.927 243.386 406.78 242.799 406.78C242.212 406.78 241.666 406.927 241.159 407.22C240.652 407.5 240.239 407.92 239.919 408.48C239.612 409.027 239.459 409.68 239.459 410.44C239.459 411.2 239.612 411.867 239.919 412.44C240.239 413.013 240.652 413.453 241.159 413.76C241.679 414.053 242.226 414.2 242.799 414.2C243.386 414.2 243.932 414.053 244.439 413.76C244.946 413.467 245.352 413.04 245.659 412.48C245.979 411.907 246.139 411.24 246.139 410.48ZM253.514 406.9C253.847 406.233 254.287 405.72 254.834 405.36C255.394 404.987 256.054 404.8 256.814 404.8V407.16H256.234C255.34 407.16 254.66 407.387 254.194 407.84C253.74 408.293 253.514 409.08 253.514 410.2V416H251.234V404.98H253.514V406.9ZM268.809 410.18C268.809 410.567 268.783 410.927 268.729 411.26H260.289C260.356 412.18 260.683 412.913 261.269 413.46C261.856 413.993 262.583 414.26 263.449 414.26C264.676 414.26 265.543 413.747 266.049 412.72H268.509C268.176 413.733 267.569 414.567 266.689 415.22C265.823 415.86 264.743 416.18 263.449 416.18C262.396 416.18 261.449 415.947 260.609 415.48C259.783 415 259.129 414.333 258.649 413.48C258.183 412.613 257.949 411.613 257.949 410.48C257.949 409.347 258.176 408.353 258.629 407.5C259.096 406.633 259.743 405.967 260.569 405.5C261.409 405.033 262.369 404.8 263.449 404.8C264.489 404.8 265.416 405.027 266.229 405.48C267.043 405.933 267.676 406.567 268.129 407.38C268.583 408.193 268.809 409.127 268.809 410.18ZM266.429 409.62C266.416 408.727 266.116 408.02 265.529 407.5C264.956 406.98 264.229 406.72 263.349 406.72C262.549 406.72 261.863 406.98 261.289 407.5C260.729 408.02 260.403 408.727 260.309 409.62H266.429ZM35.78 430.6C36.1667 430.093 36.6933 429.667 37.36 429.32C38.0267 428.973 38.78 428.8 39.62 428.8C40.58 428.8 41.4533 429.04 42.24 429.52C43.04 429.987 43.6667 430.647 44.12 431.5C44.5733 432.353 44.8 433.333 44.8 434.44C44.8 435.547 44.5733 436.54 44.12 437.42C43.6667 438.287 43.04 438.967 42.24 439.46C41.4533 439.94 40.58 440.18 39.62 440.18C38.78 440.18 38.0333 440.013 37.38 439.68C36.7267 439.333 36.1933 438.907 35.78 438.4V445.24H33.5V428.98H35.78V430.6ZM42.48 434.44C42.48 433.68 42.32 433.027 42 432.48C41.6933 431.92 41.28 431.5 40.76 431.22C40.2533 430.927 39.7067 430.78 39.12 430.78C38.5467 430.78 38 430.927 37.48 431.22C36.9733 431.513 36.56 431.94 36.24 432.5C35.9333 433.06 35.78 433.72 35.78 434.48C35.78 435.24 35.9333 435.907 36.24 436.48C36.56 437.04 36.9733 437.467 37.48 437.76C38 438.053 38.5467 438.2 39.12 438.2C39.7067 438.2 40.2533 438.053 40.76 437.76C41.28 437.453 41.6933 437.013 42 436.44C42.32 435.867 42.48 435.2 42.48 434.44ZM49.1347 430.9C49.468 430.233 49.908 429.72 50.4547 429.36C51.0147 428.987 51.6747 428.8 52.4347 428.8V431.16H51.8547C50.9614 431.16 50.2814 431.387 49.8147 431.84C49.3614 432.293 49.1347 433.08 49.1347 434.2V440H46.8547V428.98H49.1347V430.9ZM64.4305 434.18C64.4305 434.567 64.4038 434.927 64.3505 435.26H55.9105C55.9771 436.18 56.3038 436.913 56.8905 437.46C57.4771 437.993 58.2038 438.26 59.0705 438.26C60.2971 438.26 61.1638 437.747 61.6705 436.72H64.1305C63.7971 437.733 63.1905 438.567 62.3105 439.22C61.4438 439.86 60.3638 440.18 59.0705 440.18C58.0171 440.18 57.0705 439.947 56.2305 439.48C55.4038 439 54.7505 438.333 54.2705 437.48C53.8038 436.613 53.5705 435.613 53.5705 434.48C53.5705 433.347 53.7971 432.353 54.2505 431.5C54.7171 430.633 55.3638 429.967 56.1905 429.5C57.0305 429.033 57.9905 428.8 59.0705 428.8C60.1105 428.8 61.0371 429.027 61.8505 429.48C62.6638 429.933 63.2971 430.567 63.7505 431.38C64.2038 432.193 64.4305 433.127 64.4305 434.18ZM62.0505 433.62C62.0371 432.727 61.7371 432.02 61.1505 431.5C60.5771 430.98 59.8505 430.72 58.9705 430.72C58.1705 430.72 57.4838 430.98 56.9105 431.5C56.3505 432.02 56.0238 432.727 55.9305 433.62H62.0505ZM70.4342 440.18C69.5809 440.18 68.8142 440.027 68.1342 439.72C67.4542 439.4 66.9142 438.973 66.5142 438.44C66.1142 437.893 65.9009 437.287 65.8742 436.62H68.2342C68.2742 437.127 68.4942 437.547 68.8942 437.88C69.3076 438.213 69.8209 438.38 70.4342 438.38C71.0742 438.38 71.5676 438.253 71.9142 438C72.2742 437.733 72.4542 437.38 72.4542 436.94C72.4542 436.54 72.2542 436.233 71.8542 436.02C71.4542 435.807 70.8342 435.593 69.9942 435.38C69.1809 435.153 68.5142 434.94 67.9942 434.74C67.4876 434.527 67.0476 434.207 66.6742 433.78C66.3009 433.34 66.1142 432.773 66.1142 432.08C66.1142 431.48 66.2809 430.933 66.6142 430.44C66.9476 429.933 67.4276 429.533 68.0542 429.24C68.6942 428.947 69.4409 428.8 70.2942 428.8C71.5476 428.8 72.5542 429.12 73.3142 429.76C74.0876 430.387 74.5009 431.247 74.5542 432.34H72.2742C72.2342 431.807 72.0342 431.387 71.6742 431.08C71.3142 430.76 70.8276 430.6 70.2142 430.6C69.6142 430.6 69.1542 430.727 68.8342 430.98C68.5142 431.22 68.3542 431.547 68.3542 431.96C68.3542 432.253 68.4609 432.5 68.6742 432.7C68.8876 432.9 69.1542 433.06 69.4742 433.18C69.7942 433.287 70.2476 433.42 70.8342 433.58C71.6342 433.793 72.2876 434.007 72.7942 434.22C73.3009 434.433 73.7342 434.76 74.0942 435.2C74.4542 435.627 74.6342 436.187 74.6342 436.88C74.6342 437.507 74.4676 438.073 74.1342 438.58C73.8009 439.073 73.3142 439.467 72.6742 439.76C72.0476 440.04 71.3009 440.18 70.4342 440.18ZM87.0578 434.18C87.0578 434.567 87.0311 434.927 86.9778 435.26H78.5378C78.6045 436.18 78.9311 436.913 79.5178 437.46C80.1045 437.993 80.8311 438.26 81.6978 438.26C82.9245 438.26 83.7911 437.747 84.2978 436.72H86.7578C86.4245 437.733 85.8178 438.567 84.9378 439.22C84.0711 439.86 82.9911 440.18 81.6978 440.18C80.6445 440.18 79.6978 439.947 78.8578 439.48C78.0311 439 77.3778 438.333 76.8978 437.48C76.4311 436.613 76.1978 435.613 76.1978 434.48C76.1978 433.347 76.4245 432.353 76.8778 431.5C77.3445 430.633 77.9911 429.967 78.8178 429.5C79.6578 429.033 80.6178 428.8 81.6978 428.8C82.7378 428.8 83.6645 429.027 84.4778 429.48C85.2911 429.933 85.9245 430.567 86.3778 431.38C86.8311 432.193 87.0578 433.127 87.0578 434.18ZM84.6778 433.62C84.6645 432.727 84.3645 432.02 83.7778 431.5C83.2045 430.98 82.4778 430.72 81.5978 430.72C80.7978 430.72 80.1111 430.98 79.5378 431.5C78.9778 432.02 78.6511 432.727 78.5578 433.62H84.6778ZM94.6616 428.8C95.5282 428.8 96.3016 428.98 96.9816 429.34C97.6749 429.7 98.2149 430.233 98.6016 430.94C98.9882 431.647 99.1816 432.5 99.1816 433.5V440H96.9216V433.84C96.9216 432.853 96.6749 432.1 96.1816 431.58C95.6882 431.047 95.0149 430.78 94.1616 430.78C93.3082 430.78 92.6282 431.047 92.1216 431.58C91.6282 432.1 91.3816 432.853 91.3816 433.84V440H89.1016V428.98H91.3816V430.24C91.7549 429.787 92.2282 429.433 92.8016 429.18C93.3882 428.927 94.0082 428.8 94.6616 428.8ZM104.55 430.84V436.94C104.55 437.353 104.643 437.653 104.83 437.84C105.03 438.013 105.363 438.1 105.83 438.1H107.23V440H105.43C104.403 440 103.617 439.76 103.07 439.28C102.523 438.8 102.25 438.02 102.25 436.94V430.84H100.95V428.98H102.25V426.24H104.55V428.98H107.23V430.84H104.55ZM119.231 434.18C119.231 434.567 119.205 434.927 119.151 435.26H110.711C110.778 436.18 111.105 436.913 111.691 437.46C112.278 437.993 113.005 438.26 113.871 438.26C115.098 438.26 115.965 437.747 116.471 436.72H118.931C118.598 437.733 117.991 438.567 117.111 439.22C116.245 439.86 115.165 440.18 113.871 440.18C112.818 440.18 111.871 439.947 111.031 439.48C110.205 439 109.551 438.333 109.071 437.48C108.605 436.613 108.371 435.613 108.371 434.48C108.371 433.347 108.598 432.353 109.051 431.5C109.518 430.633 110.165 429.967 110.991 429.5C111.831 429.033 112.791 428.8 113.871 428.8C114.911 428.8 115.838 429.027 116.651 429.48C117.465 429.933 118.098 430.567 118.551 431.38C119.005 432.193 119.231 433.127 119.231 434.18ZM116.851 433.62C116.838 432.727 116.538 432.02 115.951 431.5C115.378 430.98 114.651 430.72 113.771 430.72C112.971 430.72 112.285 430.98 111.711 431.5C111.151 432.02 110.825 432.727 110.731 433.62H116.851ZM120.515 434.44C120.515 433.333 120.742 432.353 121.195 431.5C121.662 430.647 122.288 429.987 123.075 429.52C123.875 429.04 124.762 428.8 125.735 428.8C126.455 428.8 127.162 428.96 127.855 429.28C128.562 429.587 129.122 430 129.535 430.52V425.2H131.835V440H129.535V438.34C129.162 438.873 128.642 439.313 127.975 439.66C127.322 440.007 126.568 440.18 125.715 440.18C124.755 440.18 123.875 439.94 123.075 439.46C122.288 438.967 121.662 438.287 121.195 437.42C120.742 436.54 120.515 435.547 120.515 434.44ZM129.535 434.48C129.535 433.72 129.375 433.06 129.055 432.5C128.748 431.94 128.342 431.513 127.835 431.22C127.328 430.927 126.782 430.78 126.195 430.78C125.608 430.78 125.062 430.927 124.555 431.22C124.048 431.5 123.635 431.92 123.315 432.48C123.008 433.027 122.855 433.68 122.855 434.44C122.855 435.2 123.008 435.867 123.315 436.44C123.635 437.013 124.048 437.453 124.555 437.76C125.075 438.053 125.622 438.2 126.195 438.2C126.782 438.2 127.328 438.053 127.835 437.76C128.342 437.467 128.748 437.04 129.055 436.48C129.375 435.907 129.535 435.24 129.535 434.48ZM143.086 430.84V436.94C143.086 437.353 143.179 437.653 143.366 437.84C143.566 438.013 143.899 438.1 144.366 438.1H145.766V440H143.966C142.939 440 142.152 439.76 141.606 439.28C141.059 438.8 140.786 438.02 140.786 436.94V430.84H139.486V428.98H140.786V426.24H143.086V428.98H145.766V430.84H143.086ZM152.447 440.18C151.407 440.18 150.467 439.947 149.627 439.48C148.787 439 148.127 438.333 147.647 437.48C147.167 436.613 146.927 435.613 146.927 434.48C146.927 433.36 147.174 432.367 147.667 431.5C148.161 430.633 148.834 429.967 149.687 429.5C150.541 429.033 151.494 428.8 152.547 428.8C153.601 428.8 154.554 429.033 155.407 429.5C156.261 429.967 156.934 430.633 157.427 431.5C157.921 432.367 158.167 433.36 158.167 434.48C158.167 435.6 157.914 436.593 157.407 437.46C156.901 438.327 156.207 439 155.327 439.48C154.461 439.947 153.501 440.18 152.447 440.18ZM152.447 438.26C153.034 438.26 153.581 438.113 154.087 437.82C154.607 437.527 155.027 437.1 155.347 436.54C155.667 435.967 155.827 435.28 155.827 434.48C155.827 433.68 155.674 433 155.367 432.44C155.061 431.867 154.654 431.44 154.147 431.16C153.641 430.867 153.094 430.72 152.507 430.72C151.921 430.72 151.381 430.867 150.887 431.16C150.394 431.44 149.994 431.867 149.687 432.44C149.394 433 149.247 433.68 149.247 434.48C149.247 435.28 149.387 435.967 149.667 436.54C149.961 437.113 150.347 437.547 150.827 437.84C151.321 438.12 151.861 438.26 152.447 438.26ZM168.297 430.6C168.684 430.093 169.211 429.667 169.877 429.32C170.544 428.973 171.297 428.8 172.137 428.8C173.097 428.8 173.971 429.04 174.757 429.52C175.557 429.987 176.184 430.647 176.637 431.5C177.091 432.353 177.317 433.333 177.317 434.44C177.317 435.547 177.091 436.54 176.637 437.42C176.184 438.287 175.557 438.967 174.757 439.46C173.971 439.94 173.097 440.18 172.137 440.18C171.297 440.18 170.551 440.013 169.897 439.68C169.244 439.333 168.711 438.907 168.297 438.4V445.24H166.017V428.98H168.297V430.6ZM174.997 434.44C174.997 433.68 174.837 433.027 174.517 432.48C174.211 431.92 173.797 431.5 173.277 431.22C172.771 430.927 172.224 430.78 171.637 430.78C171.064 430.78 170.517 430.927 169.997 431.22C169.491 431.513 169.077 431.94 168.757 432.5C168.451 433.06 168.297 433.72 168.297 434.48C168.297 435.24 168.451 435.907 168.757 436.48C169.077 437.04 169.491 437.467 169.997 437.76C170.517 438.053 171.064 438.2 171.637 438.2C172.224 438.2 172.771 438.053 173.277 437.76C173.797 437.453 174.211 437.013 174.517 436.44C174.837 435.867 174.997 435.2 174.997 434.44ZM189.472 434.18C189.472 434.567 189.445 434.927 189.392 435.26H180.952C181.019 436.18 181.345 436.913 181.932 437.46C182.519 437.993 183.245 438.26 184.112 438.26C185.339 438.26 186.205 437.747 186.712 436.72H189.172C188.839 437.733 188.232 438.567 187.352 439.22C186.485 439.86 185.405 440.18 184.112 440.18C183.059 440.18 182.112 439.947 181.272 439.48C180.445 439 179.792 438.333 179.312 437.48C178.845 436.613 178.612 435.613 178.612 434.48C178.612 433.347 178.839 432.353 179.292 431.5C179.759 430.633 180.405 429.967 181.232 429.5C182.072 429.033 183.032 428.8 184.112 428.8C185.152 428.8 186.079 429.027 186.892 429.48C187.705 429.933 188.339 430.567 188.792 431.38C189.245 432.193 189.472 433.127 189.472 434.18ZM187.092 433.62C187.079 432.727 186.779 432.02 186.192 431.5C185.619 430.98 184.892 430.72 184.012 430.72C183.212 430.72 182.525 430.98 181.952 431.5C181.392 432.02 181.065 432.727 180.972 433.62H187.092ZM193.796 430.9C194.129 430.233 194.569 429.72 195.116 429.36C195.676 428.987 196.336 428.8 197.096 428.8V431.16H196.516C195.622 431.16 194.942 431.387 194.476 431.84C194.022 432.293 193.796 433.08 193.796 434.2V440H191.516V428.98H193.796V430.9ZM203.611 430.84H201.571V440H199.271V430.84H197.971V428.98H199.271V428.2C199.271 426.933 199.605 426.013 200.271 425.44C200.951 424.853 202.011 424.56 203.451 424.56V426.46C202.758 426.46 202.271 426.593 201.991 426.86C201.711 427.113 201.571 427.56 201.571 428.2V428.98H203.611V430.84ZM210.212 440.18C209.172 440.18 208.232 439.947 207.392 439.48C206.552 439 205.892 438.333 205.412 437.48C204.932 436.613 204.692 435.613 204.692 434.48C204.692 433.36 204.939 432.367 205.432 431.5C205.925 430.633 206.599 429.967 207.452 429.5C208.305 429.033 209.259 428.8 210.312 428.8C211.365 428.8 212.319 429.033 213.172 429.5C214.025 429.967 214.699 430.633 215.192 431.5C215.685 432.367 215.932 433.36 215.932 434.48C215.932 435.6 215.679 436.593 215.172 437.46C214.665 438.327 213.972 439 213.092 439.48C212.225 439.947 211.265 440.18 210.212 440.18ZM210.212 438.26C210.799 438.26 211.345 438.113 211.852 437.82C212.372 437.527 212.792 437.1 213.112 436.54C213.432 435.967 213.592 435.28 213.592 434.48C213.592 433.68 213.439 433 213.132 432.44C212.825 431.867 212.419 431.44 211.912 431.16C211.405 430.867 210.859 430.72 210.272 430.72C209.685 430.72 209.145 430.867 208.652 431.16C208.159 431.44 207.759 431.867 207.452 432.44C207.159 433 207.012 433.68 207.012 434.48C207.012 435.28 207.152 435.967 207.432 436.54C207.725 437.113 208.112 437.547 208.592 437.84C209.085 438.12 209.625 438.26 210.212 438.26ZM220.266 430.9C220.599 430.233 221.039 429.72 221.586 429.36C222.146 428.987 222.806 428.8 223.566 428.8V431.16H222.986C222.093 431.16 221.413 431.387 220.946 431.84C220.493 432.293 220.266 433.08 220.266 434.2V440H217.986V428.98H220.266V430.9ZM238.802 428.8C239.668 428.8 240.442 428.98 241.122 429.34C241.815 429.7 242.355 430.233 242.742 430.94C243.142 431.647 243.342 432.5 243.342 433.5V440H241.082V433.84C241.082 432.853 240.835 432.1 240.342 431.58C239.848 431.047 239.175 430.78 238.322 430.78C237.468 430.78 236.788 431.047 236.282 431.58C235.788 432.1 235.542 432.853 235.542 433.84V440H233.282V433.84C233.282 432.853 233.035 432.1 232.542 431.58C232.048 431.047 231.375 430.78 230.522 430.78C229.668 430.78 228.988 431.047 228.482 431.58C227.988 432.1 227.742 432.853 227.742 433.84V440H225.462V428.98H227.742V430.24C228.115 429.787 228.588 429.433 229.162 429.18C229.735 428.927 230.348 428.8 231.002 428.8C231.882 428.8 232.668 428.987 233.362 429.36C234.055 429.733 234.588 430.273 234.962 430.98C235.295 430.313 235.815 429.787 236.522 429.4C237.228 429 237.988 428.8 238.802 428.8ZM251.079 434.44C251.079 433.333 251.306 432.353 251.759 431.5C252.226 430.647 252.852 429.987 253.639 429.52C254.439 429.04 255.319 428.8 256.279 428.8C257.146 428.8 257.899 428.973 258.539 429.32C259.192 429.653 259.712 430.073 260.099 430.58V428.98H262.399V440H260.099V438.36C259.712 438.88 259.186 439.313 258.519 439.66C257.852 440.007 257.092 440.18 256.239 440.18C255.292 440.18 254.426 439.94 253.639 439.46C252.852 438.967 252.226 438.287 251.759 437.42C251.306 436.54 251.079 435.547 251.079 434.44ZM260.099 434.48C260.099 433.72 259.939 433.06 259.619 432.5C259.312 431.94 258.906 431.513 258.399 431.22C257.892 430.927 257.346 430.78 256.759 430.78C256.172 430.78 255.626 430.927 255.119 431.22C254.612 431.5 254.199 431.92 253.879 432.48C253.572 433.027 253.419 433.68 253.419 434.44C253.419 435.2 253.572 435.867 253.879 436.44C254.199 437.013 254.612 437.453 255.119 437.76C255.639 438.053 256.186 438.2 256.759 438.2C257.346 438.2 257.892 438.053 258.399 437.76C258.906 437.467 259.312 437.04 259.619 436.48C259.939 435.907 260.099 435.24 260.099 434.48ZM270.754 428.8C271.62 428.8 272.394 428.98 273.074 429.34C273.767 429.7 274.307 430.233 274.694 430.94C275.08 431.647 275.274 432.5 275.274 433.5V440H273.014V433.84C273.014 432.853 272.767 432.1 272.274 431.58C271.78 431.047 271.107 430.78 270.254 430.78C269.4 430.78 268.72 431.047 268.214 431.58C267.72 432.1 267.474 432.853 267.474 433.84V440H265.194V428.98H267.474V430.24C267.847 429.787 268.32 429.433 268.894 429.18C269.48 428.927 270.1 428.8 270.754 428.8ZM38.28 464.18C37.24 464.18 36.3 463.947 35.46 463.48C34.62 463 33.96 462.333 33.48 461.48C33 460.613 32.76 459.613 32.76 458.48C32.76 457.36 33.0067 456.367 33.5 455.5C33.9933 454.633 34.6667 453.967 35.52 453.5C36.3733 453.033 37.3267 452.8 38.38 452.8C39.4333 452.8 40.3867 453.033 41.24 453.5C42.0933 453.967 42.7667 454.633 43.26 455.5C43.7533 456.367 44 457.36 44 458.48C44 459.6 43.7467 460.593 43.24 461.46C42.7333 462.327 42.04 463 41.16 463.48C40.2933 463.947 39.3333 464.18 38.28 464.18ZM38.28 462.26C38.8667 462.26 39.4133 462.113 39.92 461.82C40.44 461.527 40.86 461.1 41.18 460.54C41.5 459.967 41.66 459.28 41.66 458.48C41.66 457.68 41.5067 457 41.2 456.44C40.8933 455.867 40.4867 455.44 39.98 455.16C39.4733 454.867 38.9267 454.72 38.34 454.72C37.7533 454.72 37.2133 454.867 36.72 455.16C36.2267 455.44 35.8267 455.867 35.52 456.44C35.2267 457 35.08 457.68 35.08 458.48C35.08 459.28 35.22 459.967 35.5 460.54C35.7933 461.113 36.18 461.547 36.66 461.84C37.1533 462.12 37.6933 462.26 38.28 462.26ZM48.3339 454.6C48.7206 454.093 49.2472 453.667 49.9139 453.32C50.5806 452.973 51.3339 452.8 52.1739 452.8C53.1339 452.8 54.0072 453.04 54.7939 453.52C55.5939 453.987 56.2206 454.647 56.6739 455.5C57.1272 456.353 57.3539 457.333 57.3539 458.44C57.3539 459.547 57.1272 460.54 56.6739 461.42C56.2206 462.287 55.5939 462.967 54.7939 463.46C54.0072 463.94 53.1339 464.18 52.1739 464.18C51.3339 464.18 50.5872 464.013 49.9339 463.68C49.2806 463.333 48.7472 462.907 48.3339 462.4V469.24H46.0539V452.98H48.3339V454.6ZM55.0339 458.44C55.0339 457.68 54.8739 457.027 54.5539 456.48C54.2472 455.92 53.8339 455.5 53.3139 455.22C52.8072 454.927 52.2606 454.78 51.6739 454.78C51.1006 454.78 50.5539 454.927 50.0339 455.22C49.5272 455.513 49.1139 455.94 48.7939 456.5C48.4872 457.06 48.3339 457.72 48.3339 458.48C48.3339 459.24 48.4872 459.907 48.7939 460.48C49.1139 461.04 49.5272 461.467 50.0339 461.76C50.5539 462.053 51.1006 462.2 51.6739 462.2C52.2606 462.2 52.8072 462.053 53.3139 461.76C53.8339 461.453 54.2472 461.013 54.5539 460.44C54.8739 459.867 55.0339 459.2 55.0339 458.44ZM69.5086 458.18C69.5086 458.567 69.4819 458.927 69.4286 459.26H60.9886C61.0553 460.18 61.3819 460.913 61.9686 461.46C62.5553 461.993 63.2819 462.26 64.1486 462.26C65.3753 462.26 66.2419 461.747 66.7486 460.72H69.2086C68.8753 461.733 68.2686 462.567 67.3886 463.22C66.5219 463.86 65.4419 464.18 64.1486 464.18C63.0953 464.18 62.1486 463.947 61.3086 463.48C60.4819 463 59.8286 462.333 59.3486 461.48C58.8819 460.613 58.6486 459.613 58.6486 458.48C58.6486 457.347 58.8753 456.353 59.3286 455.5C59.7953 454.633 60.4419 453.967 61.2686 453.5C62.1086 453.033 63.0686 452.8 64.1486 452.8C65.1886 452.8 66.1153 453.027 66.9286 453.48C67.7419 453.933 68.3753 454.567 68.8286 455.38C69.2819 456.193 69.5086 457.127 69.5086 458.18ZM67.1286 457.62C67.1153 456.727 66.8153 456.02 66.2286 455.5C65.6553 454.98 64.9286 454.72 64.0486 454.72C63.2486 454.72 62.5619 454.98 61.9886 455.5C61.4286 456.02 61.1019 456.727 61.0086 457.62H67.1286ZM73.8323 454.9C74.1657 454.233 74.6057 453.72 75.1523 453.36C75.7123 452.987 76.3723 452.8 77.1323 452.8V455.16H76.5523C75.659 455.16 74.979 455.387 74.5123 455.84C74.059 456.293 73.8323 457.08 73.8323 458.2V464H71.5523V452.98H73.8323V454.9ZM78.2681 458.44C78.2681 457.333 78.4948 456.353 78.9481 455.5C79.4148 454.647 80.0415 453.987 80.8281 453.52C81.6281 453.04 82.5081 452.8 83.4681 452.8C84.3348 452.8 85.0881 452.973 85.7281 453.32C86.3815 453.653 86.9015 454.073 87.2881 454.58V452.98H89.5881V464H87.2881V462.36C86.9015 462.88 86.3748 463.313 85.7081 463.66C85.0415 464.007 84.2815 464.18 83.4281 464.18C82.4815 464.18 81.6148 463.94 80.8281 463.46C80.0415 462.967 79.4148 462.287 78.9481 461.42C78.4948 460.54 78.2681 459.547 78.2681 458.44ZM87.2881 458.48C87.2881 457.72 87.1281 457.06 86.8081 456.5C86.5015 455.94 86.0948 455.513 85.5881 455.22C85.0815 454.927 84.5348 454.78 83.9481 454.78C83.3615 454.78 82.8148 454.927 82.3081 455.22C81.8015 455.5 81.3881 455.92 81.0681 456.48C80.7615 457.027 80.6081 457.68 80.6081 458.44C80.6081 459.2 80.7615 459.867 81.0681 460.44C81.3881 461.013 81.8015 461.453 82.3081 461.76C82.8281 462.053 83.3748 462.2 83.9481 462.2C84.5348 462.2 85.0815 462.053 85.5881 461.76C86.0948 461.467 86.5015 461.04 86.8081 460.48C87.1281 459.907 87.2881 459.24 87.2881 458.48ZM95.0428 454.84V460.94C95.0428 461.353 95.1361 461.653 95.3228 461.84C95.5228 462.013 95.8561 462.1 96.3228 462.1H97.7228V464H95.9228C94.8961 464 94.1095 463.76 93.5628 463.28C93.0161 462.8 92.7428 462.02 92.7428 460.94V454.84H91.4428V452.98H92.7428V450.24H95.0428V452.98H97.7228V454.84H95.0428ZM100.784 451.52C100.371 451.52 100.024 451.38 99.7442 451.1C99.4642 450.82 99.3242 450.473 99.3242 450.06C99.3242 449.647 99.4642 449.3 99.7442 449.02C100.024 448.74 100.371 448.6 100.784 448.6C101.184 448.6 101.524 448.74 101.804 449.02C102.084 449.3 102.224 449.647 102.224 450.06C102.224 450.473 102.084 450.82 101.804 451.1C101.524 451.38 101.184 451.52 100.784 451.52ZM101.904 452.98V464H99.6242V452.98H101.904ZM109.478 464.18C108.438 464.18 107.498 463.947 106.658 463.48C105.818 463 105.158 462.333 104.678 461.48C104.198 460.613 103.958 459.613 103.958 458.48C103.958 457.36 104.204 456.367 104.698 455.5C105.191 454.633 105.864 453.967 106.718 453.5C107.571 453.033 108.524 452.8 109.578 452.8C110.631 452.8 111.584 453.033 112.438 453.5C113.291 453.967 113.964 454.633 114.458 455.5C114.951 456.367 115.198 457.36 115.198 458.48C115.198 459.6 114.944 460.593 114.438 461.46C113.931 462.327 113.238 463 112.358 463.48C111.491 463.947 110.531 464.18 109.478 464.18ZM109.478 462.26C110.064 462.26 110.611 462.113 111.118 461.82C111.638 461.527 112.058 461.1 112.378 460.54C112.698 459.967 112.858 459.28 112.858 458.48C112.858 457.68 112.704 457 112.398 456.44C112.091 455.867 111.684 455.44 111.178 455.16C110.671 454.867 110.124 454.72 109.538 454.72C108.951 454.72 108.411 454.867 107.918 455.16C107.424 455.44 107.024 455.867 106.718 456.44C106.424 457 106.278 457.68 106.278 458.48C106.278 459.28 106.418 459.967 106.698 460.54C106.991 461.113 107.378 461.547 107.858 461.84C108.351 462.12 108.891 462.26 109.478 462.26ZM122.812 452.8C123.678 452.8 124.452 452.98 125.132 453.34C125.825 453.7 126.365 454.233 126.752 454.94C127.138 455.647 127.332 456.5 127.332 457.5V464H125.072V457.84C125.072 456.853 124.825 456.1 124.332 455.58C123.838 455.047 123.165 454.78 122.312 454.78C121.458 454.78 120.778 455.047 120.272 455.58C119.778 456.1 119.532 456.853 119.532 457.84V464H117.252V452.98H119.532V454.24C119.905 453.787 120.378 453.433 120.952 453.18C121.538 452.927 122.158 452.8 122.812 452.8Z" fill="#212529"/>
<path d="M29.648 294.661L24.176 293.061L29.648 291.317V294.661ZM33.312 287.413L22 291.253V292.917L33.264 296.533L33.456 297.861H34V294.197H33.456L33.248 295.701L30.208 294.821V291.141L33.296 290.165L33.456 291.589H34V286.133H33.456L33.312 287.413ZM25.264 278.569V281.721C23.456 281.785 22.352 281.625 21.648 281.177C21.456 281.049 21.328 280.905 21.216 280.713L21.68 280.457C22.544 279.977 22.8 279.449 22.8 278.889C22.8 278.169 22.368 277.881 21.76 277.881C20.928 278.073 20.608 278.841 20.608 279.817C20.608 280.809 20.928 281.817 21.76 282.729C22.416 283.433 23.376 284.057 25.264 284.249L25.408 285.529H25.92V284.281H30.192C31.264 284.281 32.336 284.297 33.408 284.313L33.504 285.417H34V280.361H33.504L33.376 281.641C32.32 281.673 31.248 281.689 30.192 281.689H25.92V278.601H30.192C31.264 278.601 32.336 278.617 33.408 278.649L33.504 279.753H34V274.505H33.504L33.376 275.977C32.304 275.993 31.248 276.009 30.192 276.009H25.92V273.961H25.264V276.041C23.44 276.105 22.32 275.961 21.52 275.433C21.392 275.353 21.28 275.209 21.184 275.065L21.68 274.793C22.576 274.377 22.88 273.913 22.88 273.273C22.88 272.553 22.416 272.137 21.792 272.137C20.928 272.329 20.608 273.225 20.608 274.185C20.608 275.177 20.928 276.169 21.76 277.081C22.448 277.801 23.44 278.377 25.264 278.569ZM34.272 268.842C34.272 266.122 32.448 264.298 29.584 264.298C26.72 264.298 24.992 266.314 24.992 268.842C24.992 271.354 26.752 273.37 29.584 273.37C32.4 273.37 34.272 271.578 34.272 268.842ZM33.712 268.842C33.712 269.994 32.4 270.634 29.616 270.634C26.816 270.634 25.552 269.994 25.552 268.842C25.552 267.69 26.816 267.066 29.616 267.066C32.4 267.066 33.712 267.69 33.712 268.842ZM25.168 259.662L25.008 259.886L26.016 263.358H26.4L26.528 262.158C27.296 262.126 27.824 262.11 28.864 262.11H30.192C31.088 262.11 32.464 262.126 33.392 262.142L33.504 263.23H34V258.03H33.504L33.36 259.502C32.416 259.518 31.072 259.534 30.192 259.534H28.864C27.68 259.23 26.992 258.846 26.4 258.206L26.592 258.062C27.168 257.63 27.552 257.246 27.552 256.638C27.552 255.838 26.96 255.518 26.256 255.454C25.296 255.614 24.992 256.254 24.992 257.006C24.992 257.966 25.824 259.054 27.456 259.534L25.168 259.662ZM32.72 249.053C33.024 249.437 33.136 249.853 33.136 250.301C33.136 251.533 32.208 252.461 29.6 252.461C26.912 252.461 26.096 251.453 26.096 250.237C26.096 249.837 26.208 249.437 26.512 249.053H32.72ZM33.44 246.477H23.488L20.928 246.413L20.784 246.637L21.472 250.269H21.888L22.016 248.957H26.08C25.344 249.581 24.992 250.317 24.992 251.245C24.992 253.437 26.688 255.213 29.696 255.213C32.592 255.213 34.272 253.565 34.272 251.469C34.272 250.493 33.872 249.661 33.2 248.989L34.192 248.861L34 245.437H33.504L33.44 246.477ZM32.448 239.548C32.976 240.14 33.184 240.508 33.184 240.94C33.184 241.692 32.736 242.14 31.776 242.14C30.608 242.14 29.856 241.548 29.392 240.428C29.312 240.236 29.216 239.916 29.12 239.548H32.448ZM25.936 242.972L25.84 242.716L25.936 242.972ZM32.8 235.836C33.28 236.14 33.408 236.316 33.408 236.556C33.408 236.86 33.2 237.052 32.592 237.052H28.288C25.968 237.052 24.992 237.964 24.992 240.236C24.992 242.716 25.952 244.108 27.456 244.236C27.984 244.108 28.272 243.708 28.272 243.132C28.272 242.524 27.84 241.98 26.752 241.932L25.616 241.82C25.568 241.58 25.552 241.372 25.552 241.148C25.552 239.932 26.048 239.548 27.712 239.548H28.688C28.832 240.108 28.976 240.668 29.104 241.116C29.856 243.692 30.64 244.524 32.096 244.524C33.44 244.524 34.272 243.564 34.272 242.188C34.272 240.908 33.776 240.3 32.88 239.484C33.744 239.244 34.272 238.652 34.272 237.596C34.272 236.572 33.904 235.964 33.024 235.564L32.8 235.836ZM33.424 225.794C32.496 225.826 31.136 225.842 30.192 225.842H28.08C25.984 225.842 24.992 226.882 24.992 228.402C24.992 229.458 25.36 230.338 26.576 231.394L25.168 231.49L25.008 231.714L26.016 235.186H26.4L26.528 233.986C27.296 233.954 27.824 233.938 28.864 233.938H30.192C31.088 233.938 32.464 233.954 33.408 233.97L33.504 235.042H34V230.418H33.504L33.424 231.33C32.48 231.346 31.088 231.362 30.192 231.362H27.104C26.496 230.674 26.192 230.018 26.192 229.538C26.192 228.786 26.64 228.434 27.888 228.434H30.192C31.12 228.434 32.48 228.45 33.408 228.466L33.504 229.474H34V224.834H33.504L33.424 225.794ZM26.816 218.062C28 217.998 28.384 217.438 28.384 216.766C28.384 216.222 28.112 215.87 27.536 215.71C26.096 215.918 24.992 217.198 24.992 219.006C24.992 221.678 26.672 223.854 29.648 223.854C32.624 223.854 34.272 221.822 34.272 219.39C34.272 217.646 33.536 216.478 32.208 215.742L32 216.062C32.72 216.638 33.136 217.326 33.136 218.254C33.136 219.966 31.776 221.134 29.392 221.134C26.944 221.134 25.552 220.094 25.552 218.67C25.552 218.526 25.568 218.382 25.584 218.222L26.816 218.062ZM29.024 211.962C26.544 211.898 25.552 211.178 25.552 210.298C25.552 209.45 26.288 208.842 27.68 208.842C28.672 208.842 29.04 209.034 29.04 209.786L29.024 211.962ZM31.92 206.842C32.656 207.37 33.136 208.058 33.136 209.178C33.136 210.682 32.112 211.882 29.616 211.962V206.522C29.312 206.442 29.04 206.426 28.64 206.426C26.608 206.426 24.992 207.722 24.992 210.122C24.992 212.41 26.592 214.698 29.6 214.698C32.592 214.698 34.272 212.746 34.272 210.106C34.272 208.474 33.488 207.194 32.112 206.538L31.92 206.842Z" fill="#212529"/>
<path d="M330.352 209.339L335.824 210.939L330.352 212.683V209.339ZM326.688 216.587L338 212.747V211.083L326.736 207.467L326.544 206.139H326V209.803H326.544L326.752 208.299L329.792 209.179V212.859L326.704 213.835L326.544 212.411H326V217.867H326.544L326.688 216.587ZM334.736 225.431V222.279C336.544 222.215 337.648 222.375 338.352 222.823C338.544 222.951 338.672 223.095 338.784 223.287L338.32 223.543C337.456 224.023 337.2 224.551 337.2 225.111C337.2 225.831 337.632 226.119 338.24 226.119C339.072 225.927 339.392 225.159 339.392 224.183C339.392 223.191 339.072 222.183 338.24 221.271C337.584 220.567 336.624 219.943 334.736 219.751L334.592 218.471H334.08V219.719H329.808C328.736 219.719 327.664 219.703 326.592 219.687L326.496 218.583H326V223.639H326.496L326.624 222.359C327.68 222.327 328.752 222.311 329.808 222.311H334.08V225.399H329.808C328.736 225.399 327.664 225.383 326.592 225.351L326.496 224.247H326V229.495H326.496L326.624 228.023C327.696 228.007 328.752 227.991 329.808 227.991H334.08V230.039H334.736V227.959C336.56 227.895 337.68 228.039 338.48 228.567C338.608 228.647 338.72 228.791 338.816 228.935L338.32 229.207C337.424 229.623 337.12 230.087 337.12 230.727C337.12 231.447 337.584 231.863 338.208 231.863C339.072 231.671 339.392 230.775 339.392 229.815C339.392 228.823 339.072 227.831 338.24 226.919C337.552 226.199 336.56 225.623 334.736 225.431ZM325.728 235.158C325.728 237.878 327.552 239.702 330.416 239.702C333.28 239.702 335.008 237.686 335.008 235.158C335.008 232.646 333.248 230.63 330.416 230.63C327.6 230.63 325.728 232.422 325.728 235.158ZM326.288 235.158C326.288 234.006 327.6 233.366 330.384 233.366C333.184 233.366 334.448 234.006 334.448 235.158C334.448 236.31 333.184 236.934 330.384 236.934C327.6 236.934 326.288 236.31 326.288 235.158ZM334.832 244.338L334.992 244.114L333.984 240.642H333.6L333.472 241.842C332.704 241.874 332.176 241.89 331.136 241.89H329.808C328.912 241.89 327.536 241.874 326.608 241.858L326.496 240.77H326V245.97H326.496L326.64 244.498C327.584 244.482 328.928 244.466 329.808 244.466H331.136C332.32 244.77 333.008 245.154 333.6 245.794L333.408 245.938C332.832 246.37 332.448 246.754 332.448 247.362C332.448 248.162 333.04 248.482 333.744 248.546C334.704 248.386 335.008 247.746 335.008 246.994C335.008 246.034 334.176 244.946 332.544 244.466L334.832 244.338ZM327.28 254.947C326.976 254.563 326.864 254.147 326.864 253.699C326.864 252.467 327.792 251.539 330.4 251.539C333.088 251.539 333.904 252.547 333.904 253.763C333.904 254.163 333.792 254.563 333.488 254.947H327.28ZM326.56 257.523H336.512L339.072 257.587L339.216 257.363L338.528 253.731H338.112L337.984 255.043H333.92C334.656 254.419 335.008 253.683 335.008 252.755C335.008 250.563 333.312 248.787 330.304 248.787C327.408 248.787 325.728 250.435 325.728 252.531C325.728 253.507 326.128 254.339 326.8 255.011L325.808 255.139L326 258.563H326.496L326.56 257.523ZM327.552 264.452C327.024 263.86 326.816 263.492 326.816 263.06C326.816 262.308 327.264 261.86 328.224 261.86C329.392 261.86 330.144 262.452 330.608 263.572C330.688 263.764 330.784 264.084 330.88 264.452H327.552ZM334.064 261.028L334.16 261.284L334.064 261.028ZM327.2 268.164C326.72 267.86 326.592 267.684 326.592 267.444C326.592 267.14 326.8 266.948 327.408 266.948H331.712C334.032 266.948 335.008 266.036 335.008 263.764C335.008 261.284 334.048 259.892 332.544 259.764C332.016 259.892 331.728 260.292 331.728 260.868C331.728 261.476 332.16 262.02 333.248 262.068L334.384 262.18C334.432 262.42 334.448 262.628 334.448 262.852C334.448 264.068 333.952 264.452 332.288 264.452H331.312C331.168 263.892 331.024 263.332 330.896 262.884C330.144 260.308 329.36 259.476 327.904 259.476C326.56 259.476 325.728 260.436 325.728 261.812C325.728 263.092 326.224 263.7 327.12 264.516C326.256 264.756 325.728 265.348 325.728 266.404C325.728 267.428 326.096 268.036 326.976 268.436L327.2 268.164ZM326.576 278.206C327.504 278.174 328.864 278.158 329.808 278.158H331.92C334.016 278.158 335.008 277.118 335.008 275.598C335.008 274.542 334.64 273.662 333.424 272.606L334.832 272.51L334.992 272.286L333.984 268.814H333.6L333.472 270.014C332.704 270.046 332.176 270.062 331.136 270.062H329.808C328.912 270.062 327.536 270.046 326.592 270.03L326.496 268.958H326V273.582H326.496L326.576 272.67C327.52 272.654 328.912 272.638 329.808 272.638H332.896C333.504 273.326 333.808 273.982 333.808 274.462C333.808 275.214 333.36 275.566 332.112 275.566H329.808C328.88 275.566 327.52 275.55 326.592 275.534L326.496 274.526H326V279.166H326.496L326.576 278.206ZM333.184 285.938C332 286.002 331.616 286.562 331.616 287.234C331.616 287.778 331.888 288.13 332.464 288.29C333.904 288.082 335.008 286.802 335.008 284.994C335.008 282.322 333.328 280.146 330.352 280.146C327.376 280.146 325.728 282.178 325.728 284.61C325.728 286.354 326.464 287.522 327.792 288.258L328 287.938C327.28 287.362 326.864 286.674 326.864 285.746C326.864 284.034 328.224 282.866 330.608 282.866C333.056 282.866 334.448 283.906 334.448 285.33C334.448 285.474 334.432 285.618 334.416 285.778L333.184 285.938ZM330.976 292.038C333.456 292.102 334.448 292.822 334.448 293.702C334.448 294.55 333.712 295.158 332.32 295.158C331.328 295.158 330.96 294.966 330.96 294.214L330.976 292.038ZM328.08 297.158C327.344 296.63 326.864 295.942 326.864 294.822C326.864 293.318 327.888 292.118 330.384 292.038V297.478C330.688 297.558 330.96 297.574 331.36 297.574C333.392 297.574 335.008 296.278 335.008 293.878C335.008 291.59 333.408 289.302 330.4 289.302C327.408 289.302 325.728 291.254 325.728 293.894C325.728 295.526 326.512 296.806 327.888 297.462L328.08 297.158Z" fill="#212529"/>
<path d="M198.575 49.4C198.575 46.928 199.127 44.72 200.231 42.776C201.359 40.808 202.883 39.284 204.803 38.204C206.747 37.1 208.919 36.548 211.319 36.548C214.127 36.548 216.587 37.268 218.699 38.708C220.811 40.148 222.287 42.14 223.127 44.684H217.331C216.731 43.532 215.915 42.668 214.883 42.092C213.851 41.492 212.651 41.192 211.283 41.192C209.819 41.192 208.511 41.528 207.359 42.2C206.231 42.872 205.343 43.832 204.695 45.08C204.071 46.328 203.759 47.768 203.759 49.4C203.759 51.032 204.071 52.472 204.695 53.72C205.343 54.944 206.231 55.904 207.359 56.6C208.511 57.272 209.819 57.608 211.283 57.608C212.651 57.608 213.851 57.308 214.883 56.708C215.939 56.108 216.755 55.232 217.331 54.08H223.127C222.287 56.648 220.811 58.652 218.699 60.092C216.611 61.508 214.151 62.216 211.319 62.216C208.919 62.216 206.747 61.676 204.803 60.596C202.883 59.492 201.359 57.968 200.231 56.024C199.127 54.08 198.575 51.872 198.575 49.4ZM239.064 41.768C240.576 41.768 241.92 42.104 243.096 42.776C244.272 43.424 245.184 44.396 245.832 45.692C246.504 46.964 246.84 48.5 246.84 50.3V62H241.8V50.984C241.8 49.4 241.404 48.188 240.612 47.348C239.82 46.484 238.74 46.052 237.372 46.052C235.98 46.052 234.876 46.484 234.06 47.348C233.268 48.188 232.872 49.4 232.872 50.984V62H227.832V35.36H232.872V44.54C233.52 43.676 234.384 43.004 235.464 42.524C236.544 42.02 237.744 41.768 239.064 41.768ZM260.888 62.324C258.968 62.324 257.24 61.904 255.704 61.064C254.168 60.2 252.956 58.988 252.068 57.428C251.204 55.868 250.772 54.068 250.772 52.028C250.772 49.988 251.216 48.188 252.104 46.628C253.016 45.068 254.252 43.868 255.812 43.028C257.372 42.164 259.112 41.732 261.032 41.732C262.952 41.732 264.692 42.164 266.252 43.028C267.812 43.868 269.036 45.068 269.924 46.628C270.836 48.188 271.292 49.988 271.292 52.028C271.292 54.068 270.824 55.868 269.888 57.428C268.976 58.988 267.728 60.2 266.144 61.064C264.584 61.904 262.832 62.324 260.888 62.324ZM260.888 58.004C261.8 58.004 262.652 57.776 263.444 57.32C264.26 56.864 264.908 56.192 265.388 55.304C265.868 54.392 266.108 53.3 266.108 52.028C266.108 50.756 265.868 49.676 265.388 48.788C264.908 47.876 264.272 47.192 263.48 46.736C262.712 46.28 261.872 46.052 260.96 46.052C259.544 46.052 258.344 46.58 257.36 47.636C256.376 48.668 255.884 50.132 255.884 52.028C255.884 53.924 256.364 55.4 257.324 56.456C258.284 57.488 259.472 58.004 260.888 58.004ZM277.945 39.68C277.057 39.68 276.313 39.404 275.713 38.852C275.137 38.276 274.849 37.568 274.849 36.728C274.849 35.888 275.137 35.192 275.713 34.64C276.313 34.064 277.057 33.776 277.945 33.776C278.833 33.776 279.565 34.064 280.141 34.64C280.741 35.192 281.041 35.888 281.041 36.728C281.041 37.568 280.741 38.276 280.141 38.852C279.565 39.404 278.833 39.68 277.945 39.68ZM280.429 42.056V62H275.389V42.056H280.429ZM284.513 52.028C284.513 49.964 284.933 48.164 285.773 46.628C286.613 45.068 287.777 43.868 289.265 43.028C290.753 42.164 292.457 41.732 294.377 41.732C296.849 41.732 298.889 42.356 300.497 43.604C302.129 44.828 303.221 46.556 303.773 48.788H298.337C298.049 47.924 297.557 47.252 296.861 46.772C296.189 46.268 295.349 46.016 294.341 46.016C292.901 46.016 291.761 46.544 290.921 47.6C290.081 48.632 289.661 50.108 289.661 52.028C289.661 53.924 290.081 55.4 290.921 56.456C291.761 57.488 292.901 58.004 294.341 58.004C296.381 58.004 297.713 57.092 298.337 55.268H303.773C303.221 57.428 302.129 59.144 300.497 60.416C298.865 61.688 296.825 62.324 294.377 62.324C292.457 62.324 290.753 61.904 289.265 61.064C287.777 60.2 286.613 59 285.773 57.464C284.933 55.904 284.513 54.092 284.513 52.028ZM326.405 51.56C326.405 52.232 326.357 52.856 326.261 53.432H311.681C311.777 54.896 312.269 56.048 313.157 56.888C314.045 57.728 315.149 58.148 316.469 58.148C318.341 58.148 319.673 57.344 320.465 55.736H325.901C325.325 57.656 324.221 59.24 322.589 60.488C320.957 61.712 318.953 62.324 316.577 62.324C314.657 62.324 312.929 61.904 311.393 61.064C309.881 60.2 308.693 58.988 307.829 57.428C306.989 55.868 306.569 54.068 306.569 52.028C306.569 49.964 306.989 48.152 307.829 46.592C308.669 45.032 309.845 43.832 311.357 42.992C312.869 42.152 314.609 41.732 316.577 41.732C318.473 41.732 320.165 42.14 321.653 42.956C323.165 43.772 324.329 44.924 325.145 46.412C325.985 47.9 326.405 49.616 326.405 51.56ZM321.185 50.372C321.161 48.98 320.693 47.888 319.781 47.096C318.893 46.28 317.777 45.872 316.433 45.872C315.161 45.872 314.093 46.28 313.229 47.096C312.365 47.888 311.849 48.98 311.681 50.372H321.185ZM134.725 97.212H124.717L123.061 102H117.769L126.805 76.836H132.673L141.709 102H136.381L134.725 97.212ZM133.393 93.288L129.721 82.668L126.049 93.288H133.393ZM153.802 97.356L158.842 82.056H164.242L156.898 102H150.706L143.362 82.056H148.762L153.802 97.356ZM166.141 91.956C166.141 89.94 166.537 88.152 167.329 86.592C168.145 85.032 169.237 83.832 170.605 82.992C171.997 82.152 173.545 81.732 175.249 81.732C176.737 81.732 178.033 82.032 179.137 82.632C180.265 83.232 181.165 83.988 181.837 84.9V82.056H186.913V102H181.837V99.084C181.189 100.02 180.289 100.8 179.137 101.424C178.009 102.024 176.701 102.324 175.213 102.324C173.533 102.324 171.997 101.892 170.605 101.028C169.237 100.164 168.145 98.952 167.329 97.392C166.537 95.808 166.141 93.996 166.141 91.956ZM181.837 92.028C181.837 90.804 181.597 89.76 181.117 88.896C180.637 88.008 179.989 87.336 179.173 86.88C178.357 86.4 177.481 86.16 176.545 86.16C175.609 86.16 174.745 86.388 173.953 86.844C173.161 87.3 172.513 87.972 172.009 88.86C171.529 89.724 171.289 90.756 171.289 91.956C171.289 93.156 171.529 94.212 172.009 95.124C172.513 96.012 173.161 96.696 173.953 97.176C174.769 97.656 175.633 97.896 176.545 97.896C177.481 97.896 178.357 97.668 179.173 97.212C179.989 96.732 180.637 96.06 181.117 95.196C181.597 94.308 181.837 93.252 181.837 92.028ZM194.792 79.68C193.904 79.68 193.16 79.404 192.56 78.852C191.984 78.276 191.696 77.568 191.696 76.728C191.696 75.888 191.984 75.192 192.56 74.64C193.16 74.064 193.904 73.776 194.792 73.776C195.68 73.776 196.412 74.064 196.988 74.64C197.588 75.192 197.888 75.888 197.888 76.728C197.888 77.568 197.588 78.276 196.988 78.852C196.412 79.404 195.68 79.68 194.792 79.68ZM197.276 82.056V102H192.236V82.056H197.276ZM207.695 75.36V102H202.655V75.36H207.695ZM211.779 91.956C211.779 89.94 212.175 88.152 212.967 86.592C213.783 85.032 214.875 83.832 216.243 82.992C217.635 82.152 219.183 81.732 220.887 81.732C222.375 81.732 223.671 82.032 224.775 82.632C225.903 83.232 226.803 83.988 227.475 84.9V82.056H232.551V102H227.475V99.084C226.827 100.02 225.927 100.8 224.775 101.424C223.647 102.024 222.339 102.324 220.851 102.324C219.171 102.324 217.635 101.892 216.243 101.028C214.875 100.164 213.783 98.952 212.967 97.392C212.175 95.808 211.779 93.996 211.779 91.956ZM227.475 92.028C227.475 90.804 227.235 89.76 226.755 88.896C226.275 88.008 225.627 87.336 224.811 86.88C223.995 86.4 223.119 86.16 222.183 86.16C221.247 86.16 220.383 86.388 219.591 86.844C218.799 87.3 218.151 87.972 217.647 88.86C217.167 89.724 216.927 90.756 216.927 91.956C216.927 93.156 217.167 94.212 217.647 95.124C218.151 96.012 218.799 96.696 219.591 97.176C220.407 97.656 221.271 97.896 222.183 97.896C223.119 97.896 223.995 97.668 224.811 97.212C225.627 96.732 226.275 96.06 226.755 95.196C227.235 94.308 227.475 93.252 227.475 92.028ZM242.913 84.972C243.561 84.012 244.449 83.232 245.577 82.632C246.729 82.032 248.037 81.732 249.501 81.732C251.205 81.732 252.741 82.152 254.109 82.992C255.501 83.832 256.593 85.032 257.385 86.592C258.201 88.128 258.609 89.916 258.609 91.956C258.609 93.996 258.201 95.808 257.385 97.392C256.593 98.952 255.501 100.164 254.109 101.028C252.741 101.892 251.205 102.324 249.501 102.324C248.013 102.324 246.705 102.036 245.577 101.46C244.473 100.86 243.585 100.092 242.913 99.156V102H237.873V75.36H242.913V84.972ZM253.461 91.956C253.461 90.756 253.209 89.724 252.705 88.86C252.225 87.972 251.577 87.3 250.761 86.844C249.969 86.388 249.105 86.16 248.169 86.16C247.257 86.16 246.393 86.4 245.577 86.88C244.785 87.336 244.137 88.008 243.633 88.896C243.153 89.784 242.913 90.828 242.913 92.028C242.913 93.228 243.153 94.272 243.633 95.16C244.137 96.048 244.785 96.732 245.577 97.212C246.393 97.668 247.257 97.896 248.169 97.896C249.105 97.896 249.969 97.656 250.761 97.176C251.577 96.696 252.225 96.012 252.705 95.124C253.209 94.236 253.461 93.18 253.461 91.956ZM265.228 79.68C264.34 79.68 263.596 79.404 262.996 78.852C262.42 78.276 262.132 77.568 262.132 76.728C262.132 75.888 262.42 75.192 262.996 74.64C263.596 74.064 264.34 73.776 265.228 73.776C266.116 73.776 266.848 74.064 267.424 74.64C268.024 75.192 268.324 75.888 268.324 76.728C268.324 77.568 268.024 78.276 267.424 78.852C266.848 79.404 266.116 79.68 265.228 79.68ZM267.712 82.056V102H262.672V82.056H267.712ZM278.131 75.36V102H273.091V75.36H278.131ZM286.067 79.68C285.179 79.68 284.435 79.404 283.835 78.852C283.259 78.276 282.971 77.568 282.971 76.728C282.971 75.888 283.259 75.192 283.835 74.64C284.435 74.064 285.179 73.776 286.067 73.776C286.955 73.776 287.687 74.064 288.263 74.64C288.863 75.192 289.163 75.888 289.163 76.728C289.163 77.568 288.863 78.276 288.263 78.852C287.687 79.404 286.955 79.68 286.067 79.68ZM288.551 82.056V102H283.511V82.056H288.551ZM299.798 86.196V95.844C299.798 96.516 299.954 97.008 300.266 97.32C300.602 97.608 301.154 97.752 301.922 97.752H304.262V102H301.094C296.846 102 294.722 99.936 294.722 95.808V86.196H292.346V82.056H294.722V77.124H299.798V82.056H304.262V86.196H299.798ZM311.635 82.056L316.783 95.988L322.003 82.056H327.367L315.019 111.432H309.655L313.975 101.496L305.983 82.056H311.635Z" fill="#212529"/>
<path fill-rule="evenodd" clip-rule="evenodd" d="M214.564 224L145.282 264L214.564 304V224Z" fill="#4C6EF5" stroke="#212529" stroke-width="2" stroke-miterlimit="1.5" stroke-linecap="round" stroke-linejoin="round"/>
<path fill-rule="evenodd" clip-rule="evenodd" d="M145.282 184L76 224L145.282 264V184Z" fill="#4C6EF5" stroke="#212529" stroke-width="2" stroke-miterlimit="1.5" stroke-linecap="round" stroke-linejoin="round"/>
<path fill-rule="evenodd" clip-rule="evenodd" d="M214.564 304V224L283.846 184V264L214.564 304Z" stroke="#212529" stroke-width="2" stroke-miterlimit="1.5" stroke-linecap="round" stroke-linejoin="round"/>
<path fill-rule="evenodd" clip-rule="evenodd" d="M145.282 264V184L214.564 144V224L145.282 264Z" stroke="#212529" stroke-width="2" stroke-miterlimit="1.5" stroke-linecap="round" stroke-linejoin="round"/>
<path fill-rule="evenodd" clip-rule="evenodd" d="M76.0003 264V304L110.641 284L76.0003 264Z" fill="#4C6EF5" stroke="#212529" stroke-width="2" stroke-miterlimit="1.5" stroke-linecap="round" stroke-linejoin="round"/>
<path fill-rule="evenodd" clip-rule="evenodd" d="M145.282 304V344L179.923 324L145.282 304Z" fill="#4C6EF5" stroke="#212529" stroke-width="2" stroke-miterlimit="1.5" stroke-linecap="round" stroke-linejoin="round"/>
<path d="M187.56 204.002C187.56 208.223 184.139 211.644 179.919 211.644C175.699 211.644 172.278 208.223 172.278 204.002C172.278 199.782 175.699 196.361 179.919 196.361C184.139 196.361 187.56 199.782 187.56 204.002Z" fill="#4C6EF5" stroke="#212529" stroke-width="2"/>
<path d="M256.846 244C256.846 248.22 253.425 251.641 249.205 251.641C244.985 251.641 241.564 248.22 241.564 244C241.564 239.78 244.985 236.359 249.205 236.359C253.425 236.359 256.846 239.78 256.846 244Z" fill="#4C6EF5" stroke="#212529" stroke-width="2"/>
<path d="M179.919 324.002H145.282" stroke="#212529" stroke-width="2" stroke-miterlimit="1.5" stroke-linecap="round" stroke-linejoin="round"/>
<path d="M110.641 284H76.0044" stroke="#212529" stroke-width="2" stroke-miterlimit="1.5" stroke-linecap="round" stroke-linejoin="round"/>
<defs>
<filter id="filter0_i" x="0" y="0" width="360" height="506" filterUnits="userSpaceOnUse" color-interpolation-filters="sRGB">
<feFlood flood-opacity="0" result="BackgroundImageFix"/>
<feBlend mode="normal" in="SourceGraphic" in2="BackgroundImageFix" result="shape"/>
<feColorMatrix in="SourceAlpha" type="matrix" values="0 0 0 0 0 0 0 0 0 0 0 0 0 0 0 0 0 0 127 0" result="hardAlpha"/>
<feOffset dy="2"/>
<feGaussianBlur stdDeviation="0.5"/>
<feComposite in2="hardAlpha" operator="arithmetic" k2="-1" k3="1"/>
<feColorMatrix type="matrix" values="0 0 0 0 0.945098 0 0 0 0 0.952941 0 0 0 0 0.960784 0 0 0 1 0"/>
<feBlend mode="normal" in2="shape" result="effect1_innerShadow"/>
</filter>
</defs>
</svg>
